<svg width="24" height="24" viewBox="0 0 24 24" fill="none" xmlns="http://www.w3.org/2000/svg">
<path d="M19.2909 9.58485C19.731 9.58485 20.1189 9.74447 20.4452 10.026C20.7262 10.3329 20.9 10.7173 20.9 11.1455V13.2061C20.9 13.6521 20.7368 14.0321 20.446 14.3256C20.1372 14.6127 19.7486 14.7909 19.3151 14.7909H15.8242C15.2419 14.7909 14.8151 15.2728 14.8151 15.8V19.3151C14.8151 19.7612 14.6519 20.1412 14.3612 20.4347C14.0524 20.7218 13.6637 20.9 13.2303 20.9H11.1697C10.7236 20.9 10.3436 20.7368 10.0501 20.446C9.76301 20.1372 9.58485 19.7486 9.58485 19.3151V15.8242C9.58485 15.2419 9.10298 14.8151 8.57576 14.8151H5.08485C4.63877 14.8151 4.25881 14.6519 3.96528 14.3612C3.67817 14.0524 3.5 13.6637 3.5 13.2303V11.1697C3.5 10.7236 3.66321 10.3436 3.95398 10.0501C4.26275 9.76302 4.65143 9.58485 5.08485 9.58485H8.55151C9.13389 9.58485 9.5606 9.10298 9.5606 8.57576V5.08485C9.5606 4.63877 9.72381 4.2588 10.0146 3.96528C10.3233 3.67817 10.712 3.5 11.1455 3.5H13.2061C13.6521 3.5 14.0321 3.66321 14.3256 3.95398C14.6127 4.26275 14.7909 4.65143 14.7909 5.08485V8.57576C14.7909 9.15813 15.2728 9.58485 15.8 9.58485H19.2909Z" fill="#573353" stroke="#FC9D45"/>
</svg>
