<svg width="20" height="27" viewBox="0 0 20 27" fill="none" xmlns="http://www.w3.org/2000/svg">
<path d="M1.50059 13.9312C-0.56163 14.9285 4.16976 19.3982 4.75527 20.1277C5.98677 21.6605 7.21773 23.1927 8.44923 24.7249C8.91159 25.3006 9.54988 26.471 10.4554 26.4045C11.3416 26.3391 11.8056 25.5315 12.2938 24.9229C13.5984 23.2994 14.9031 21.6753 16.2082 20.0524C17.1005 18.9418 17.9928 17.8318 18.8851 16.7207C19.1562 16.3832 19.9297 15.7421 19.9841 15.2693C20.2425 13.0345 17.2319 13.6794 15.6123 13.7387C14.8464 13.0455 16.6673 4.65641 16.8234 3.54421C16.8982 3.01092 17.393 1.40062 16.7679 0.966298C15.9086 0.36924 14.5331 0.635332 13.5666 0.635332C11.5538 0.635332 9.54054 0.635332 7.5278 0.635332C6.52556 0.635332 5.16376 0.36869 4.29016 1.02897C3.66066 1.50508 4.04771 2.74538 4.13292 3.35178C4.4298 5.46953 4.72778 7.58617 5.02466 9.70392C5.21159 11.0377 5.39906 12.3709 5.58599 13.7041C5.58324 13.6799 2.07126 13.6552 1.50059 13.9312ZM3.05206 16.3293C2.97784 16.2375 2.90362 16.1451 2.82995 16.0528C1.41537 14.2924 2.698 14.421 4.14942 14.526C4.12688 14.5535 4.09884 14.5782 4.08124 14.6063C3.74533 15.1528 3.41161 15.6998 3.0823 16.2501C3.06855 16.2738 3.06306 16.3029 3.05206 16.3293ZM7.67844 21.9568C7.6603 21.981 7.65205 22.0101 7.63776 22.0365C7.55529 21.9343 7.47282 21.832 7.39091 21.7292C7.4041 21.7105 7.4217 21.7001 7.43324 21.6781C7.72957 21.1289 8.0292 20.5807 8.33433 20.0359C10.4994 16.762 12.6534 13.4809 14.8234 10.2086C14.8003 10.3752 14.7761 10.5407 14.753 10.7084C14.6073 11.0151 14.4682 11.3252 14.3159 11.6281C12.3246 14.9988 10.2673 18.3288 8.00061 21.523C7.89395 21.6676 7.7862 21.8117 7.67844 21.9568ZM17.067 15.8961C16.868 16.4634 16.6662 17.0297 16.4644 17.5954C16.3627 17.8819 16.15 18.3228 15.9872 18.579C15.6128 19.1678 15.2236 19.7577 14.8272 20.3443C14.5666 20.6681 14.3066 20.9925 14.0465 21.3163C14.7755 19.9171 15.5133 18.5218 16.2753 17.1358C16.5101 16.7103 16.7459 16.2831 16.9818 15.857C17.1275 15.592 17.1665 15.6096 17.067 15.8961ZM16.4452 14.4974C16.4111 14.5354 16.3737 14.5722 16.3501 14.6134C14.2956 18.137 12.2872 21.688 10.3157 25.261C10.3124 25.267 10.3113 25.2736 10.308 25.2797C10.2151 25.2148 10.1162 25.1202 10.0089 24.9872C9.41519 24.2483 8.82143 23.5094 8.22822 22.7705C8.25021 22.749 8.27495 22.7353 8.29474 22.7084C8.58173 22.3169 8.86596 21.9244 9.1469 21.5291C11.0172 18.9875 12.82 16.3931 14.3758 13.6717C14.4187 14.012 14.5924 14.2995 15.0499 14.4985C15.1279 14.5326 15.2153 14.5398 15.3044 14.5304C15.3066 14.5304 15.3077 14.531 15.3099 14.531C15.4688 14.531 15.9174 14.5051 16.4452 14.4974ZM15.6095 4.60418C14.0025 7.74341 12.3713 10.8694 10.6643 13.951C10.1008 14.9576 9.53779 15.9587 8.95668 16.934C8.45088 17.7862 7.95498 18.6433 7.46513 19.5048C7.24412 19.8743 7.02256 20.2443 6.79825 20.6121C6.75261 20.6813 6.70588 20.7506 6.6597 20.8199C6.38536 20.4785 6.11102 20.1371 5.83668 19.7956C5.85373 19.7753 5.87462 19.7638 5.89001 19.739C9.19033 14.3979 12.4467 9.02824 15.7382 3.6811C15.6959 3.98898 15.6524 4.29685 15.6095 4.60418ZM6.0489 17.5767C7.19519 15.5849 8.35742 13.604 9.55703 11.6507C10.9183 9.43288 12.3565 7.26126 13.7337 5.05665C13.8948 4.79935 13.8959 4.7988 13.737 5.05775C11.1745 9.23056 8.62846 13.4133 6.06319 17.5855C5.90321 17.8439 5.89716 17.8401 6.0489 17.5767ZM15.7998 1.59524C15.8185 1.60679 15.8404 1.61724 15.8569 1.62933C15.5067 2.1923 15.156 2.75473 14.8069 3.31825C14.6469 3.57664 14.6458 3.57609 14.8019 3.3155C15.1428 2.74648 15.4754 2.17306 15.7998 1.59524ZM11.4318 3.48538C11.7638 2.83389 12.0899 2.17966 12.4104 1.52322C12.4318 1.47924 12.4357 1.44021 12.4434 1.39897C12.6424 1.38688 12.8881 1.37039 13.163 1.35664C13.1245 1.39238 13.0828 1.42756 13.0525 1.46605C12.5341 2.15162 12.0151 2.83829 11.5065 3.53101C11.3251 3.77511 11.2938 3.75587 11.4318 3.48538ZM8.84177 1.49024C8.85771 1.4655 8.85881 1.44406 8.86981 1.42042C9.68403 1.42042 10.4983 1.42042 11.3136 1.42042C11.2883 1.4545 11.258 1.48639 11.2405 1.52322C9.70657 4.68665 8.0226 7.7786 6.28805 10.8464C6.09453 9.47081 5.90156 8.09582 5.70859 6.72082C6.72183 4.95384 7.75431 3.20279 8.84177 1.49024ZM5.29625 3.78336C5.28031 3.66901 5.26437 3.5552 5.24842 3.4414C5.20884 3.16046 5.14616 2.88832 5.09888 2.63872C5.34024 2.25553 5.58214 1.87178 5.82624 1.49079C5.84108 1.46715 5.84548 1.4468 5.85703 1.42426C5.88177 1.42371 5.90266 1.42096 5.92795 1.42096C6.16545 1.42096 6.40351 1.42096 6.64101 1.42096C6.61792 1.45065 6.58933 1.47814 6.57229 1.50838C6.14896 2.26707 5.72343 3.02577 5.29625 3.78336ZM5.3034 14.5667C6.13247 14.5387 6.77406 14.3122 6.65311 13.4512C6.61022 13.1444 6.56679 12.8382 6.52391 12.5309C8.92754 8.73961 11.4928 5.05005 14.1944 1.4666C14.2301 1.41932 14.2466 1.37643 14.2615 1.33355C14.4528 1.33685 14.6381 1.3451 14.8146 1.35994C14.7722 1.40777 14.731 1.45725 14.7008 1.51003C12.4203 5.63776 9.66204 9.51424 7.24742 13.5612C6.34578 15.0719 5.46064 16.5954 4.58539 18.1243C4.5722 18.148 4.5678 18.1771 4.55735 18.2024C4.29511 17.8758 4.03231 17.5492 3.77007 17.2227C3.78491 17.2034 3.80361 17.1924 3.8168 17.1694C4.30665 16.3177 4.79596 15.465 5.28636 14.614C5.2968 14.5969 5.29625 14.5832 5.3034 14.5667Z" fill="#573353"/>
</svg>
