<svg width="24" height="24" viewBox="0 0 24 24" fill="none" xmlns="http://www.w3.org/2000/svg">
<path opacity="0.3" d="M20.4038 11.9483C20.4062 10.7781 19.9717 9.65095 19.1888 8.79646C18.406 7.94197 17.3337 7.4244 16.1902 7.34917C16.0553 7.17928 15.9092 7.01903 15.7528 6.86954C15.1741 6.31422 14.482 5.89685 13.7264 5.64748C13.8837 5.36492 13.9678 5.04608 13.9709 4.72107C13.9709 4.19831 13.7675 3.69696 13.4056 3.32731C13.0437 2.95767 12.5528 2.75 12.041 2.75C11.5291 2.75 11.0383 2.95767 10.6764 3.32731C10.3144 3.69696 10.1111 4.19831 10.1111 4.72107C10.112 5.05054 10.1962 5.37418 10.3556 5.66062C9.32276 6.00642 8.41607 6.66228 7.75389 7.54254C7.09171 8.4228 6.70482 9.48655 6.64374 10.5949L6.25133 17.8221C6.24566 17.912 6.25815 18.0022 6.28803 18.087C6.31791 18.1717 6.36454 18.2493 6.42502 18.3149C6.48556 18.3798 6.55845 18.4313 6.63921 18.4663C6.71997 18.5014 6.80689 18.5191 6.89463 18.5186H8.88884C9.03649 19.2612 9.43096 19.9289 10.0054 20.4084C10.5799 20.888 11.299 21.15 12.041 21.15C12.7829 21.15 13.5021 20.888 14.0765 20.4084C14.651 19.9289 15.0455 19.2612 15.1931 18.5186H17.1873C17.2751 18.5191 17.362 18.5014 17.4428 18.4663C17.5235 18.4313 17.5964 18.3798 17.6569 18.3149C17.7174 18.2493 17.7641 18.1717 17.7939 18.087C17.8238 18.0022 17.8363 17.912 17.8306 17.8221L17.7406 16.1402C18.5328 15.7779 19.2057 15.1896 19.6782 14.4459C20.1507 13.7022 20.4027 12.8349 20.4038 11.9483ZM12.041 4.06405C12.1682 4.06405 12.2926 4.10258 12.3984 4.17478C12.5042 4.24697 12.5866 4.34959 12.6353 4.46964C12.684 4.5897 12.6967 4.7218 12.6719 4.84925C12.6471 4.9767 12.5858 5.09377 12.4959 5.18566C12.4059 5.27755 12.2913 5.34012 12.1665 5.36547C12.0417 5.39082 11.9124 5.37781 11.7948 5.32808C11.6773 5.27836 11.5768 5.19414 11.5061 5.0861C11.4354 4.97805 11.3977 4.85102 11.3977 4.72107C11.3977 4.54682 11.4655 4.3797 11.5861 4.25649C11.7067 4.13327 11.8704 4.06405 12.041 4.06405ZM7.57652 17.2045L7.93033 10.6671C7.97291 9.90349 8.21831 9.16609 8.64019 8.53411C9.06207 7.90213 9.6445 7.39943 10.325 7.07997C11.0054 6.7605 11.7582 6.63634 12.5026 6.72081C13.2469 6.80528 13.9546 7.09519 14.5498 7.55942C13.5223 7.88812 12.6441 8.58197 12.0745 9.51519C11.5049 10.4484 11.2815 11.5592 11.4448 12.6462C11.6082 13.7332 12.1475 14.7244 12.965 15.4401C13.7825 16.1559 14.824 16.5487 15.9008 16.5475C16.09 16.5444 16.279 16.5313 16.4669 16.5081L16.5055 17.2045H7.57652ZM17.2645 12.4148C17.3844 12.5379 17.4516 12.7045 17.4516 12.878C17.4516 13.0516 17.3844 13.2181 17.2645 13.3412C17.144 13.4636 16.981 13.5323 16.811 13.5323C16.6411 13.5323 16.478 13.4636 16.3575 13.3412L15.9008 12.8747L15.444 13.3412C15.3235 13.4636 15.1604 13.5323 14.9905 13.5323C14.8205 13.5323 14.6575 13.4636 14.537 13.3412C14.4172 13.2181 14.3499 13.0516 14.3499 12.878C14.3499 12.7045 14.4172 12.5379 14.537 12.4148L14.9937 11.9483L14.537 11.4819C14.4316 11.3562 14.3765 11.1945 14.3828 11.0291C14.389 10.8638 14.4561 10.7069 14.5707 10.5899C14.6853 10.4729 14.8388 10.4043 15.0007 10.398C15.1627 10.3916 15.321 10.4478 15.444 10.5555L15.9008 11.0219L16.3575 10.5555C16.4806 10.4478 16.6389 10.3916 16.8008 10.398C16.9627 10.4043 17.1162 10.4729 17.2308 10.5899C17.3454 10.7069 17.4125 10.8638 17.4187 11.0291C17.425 11.1945 17.3699 11.3562 17.2645 11.4819L16.8078 11.9483L17.2645 12.4148Z" fill="#573353"/>
</svg>
