<svg width="188" height="200" viewBox="0 0 188 200" fill="none" xmlns="http://www.w3.org/2000/svg">
<path d="M15.714 95.4081C15.4079 95.4081 15.1528 95.2551 15.0507 94.949C14.6936 94.0306 14.3364 93.1122 14.0303 92.2449C13.8773 91.8877 14.0813 91.4796 14.4895 91.3265C14.8466 91.1735 15.2548 91.3775 15.4079 91.7857C15.714 92.653 16.0711 93.5714 16.4283 94.4388C16.5813 94.7959 16.3772 95.2041 16.0201 95.3571C15.9181 95.4081 15.816 95.4081 15.714 95.4081Z" fill="url(#paint0_linear_553_233)"/>
<path d="M13.1121 87.398C12.8059 87.398 12.4998 87.1939 12.3978 86.8368C11.9386 85 11.5815 83.1633 11.3264 81.3266C11.2753 80.9184 11.5304 80.5613 11.9386 80.5102C12.3468 80.4592 12.7039 80.7143 12.7549 81.1225C13.01 82.9082 13.3672 84.7449 13.8264 86.5306C13.9284 86.9388 13.6733 87.2959 13.3162 87.398C13.2141 87.398 13.1631 87.398 13.1121 87.398ZM11.4794 76.4286C11.1223 76.4286 10.7651 76.1225 10.7651 75.7653C10.7141 74.6939 10.6631 73.5715 10.6631 72.449C10.6631 71.6837 10.6631 70.8674 10.7141 70.1021C10.7141 69.6939 11.0713 69.3878 11.4794 69.3878C11.8876 69.3878 12.1937 69.7449 12.1937 70.1531C12.1427 70.9184 12.1427 71.6837 12.1427 72.449C12.1427 73.5204 12.1937 74.5919 12.2447 75.6633C12.1937 76.0204 11.8876 76.3776 11.4794 76.4286ZM11.8876 65.3061C11.8366 65.3061 11.8366 65.3061 11.7855 65.3061C11.3774 65.2551 11.1223 64.898 11.1733 64.4898C11.4284 62.6531 11.7345 60.7653 12.1937 58.9286C12.2957 58.5204 12.6529 58.3163 13.0611 58.3674C13.4692 58.4694 13.6733 58.8266 13.6223 59.2347C13.2141 61.0204 12.908 62.8572 12.6529 64.6429C12.5508 65.051 12.2447 65.3061 11.8876 65.3061ZM14.3876 54.4898C14.3366 54.4898 14.2345 54.4898 14.1835 54.4388C13.8264 54.3368 13.6223 53.9286 13.7243 53.5204C14.3366 51.7347 14.9998 50 15.7651 48.2653C15.9182 47.9082 16.3264 47.7551 16.7345 47.9082C17.0917 48.0612 17.2447 48.4694 17.0917 48.8776C16.3774 50.5612 15.6631 52.2959 15.1019 53.9796C14.9488 54.2857 14.6937 54.4898 14.3876 54.4898ZM18.8774 44.2857C18.7753 44.2857 18.6223 44.2347 18.5202 44.1837C18.1631 43.9796 18.061 43.5714 18.2651 43.2143C19.1835 41.5817 20.2039 40 21.2243 38.4184C21.4284 38.1123 21.8876 38.0102 22.2447 38.2143C22.5508 38.4184 22.6529 38.8776 22.4488 39.2347C21.4284 40.7143 20.408 42.2959 19.5406 43.8776C19.3876 44.1837 19.1325 44.2857 18.8774 44.2857ZM25.2039 35.1531C25.0508 35.1531 24.8978 35.1021 24.7447 35C24.4386 34.7449 24.3876 34.2857 24.6427 33.9796C25.8672 32.551 27.1427 31.1735 28.4692 29.847C28.7753 29.5919 29.1835 29.5919 29.4896 29.847C29.7447 30.1531 29.7447 30.5612 29.4896 30.8674C28.2141 32.1429 26.9386 33.5204 25.7651 34.898C25.6121 35.051 25.408 35.1531 25.2039 35.1531ZM33.1121 27.347C32.908 27.347 32.7039 27.2449 32.5508 27.0919C32.2957 26.7857 32.3468 26.3266 32.6529 26.0714C34.0815 24.898 35.6121 23.7755 37.1937 22.7041C37.4998 22.5 37.959 22.551 38.2141 22.9082C38.4182 23.2143 38.3672 23.6735 38.01 23.9286C36.4794 24.949 34.9998 26.0204 33.5713 27.1939C33.4692 27.2959 33.2651 27.347 33.1121 27.347ZM100.867 22.5C100.765 22.5 100.612 22.449 100.51 22.398C98.9284 21.4796 97.2957 20.5612 95.6631 19.7959C95.3059 19.6429 95.1529 19.1837 95.3059 18.8265C95.459 18.4694 95.9182 18.3163 96.2753 18.4694C97.959 19.2857 99.6427 20.2041 101.224 21.1225C101.581 21.3265 101.683 21.7857 101.479 22.0919C101.377 22.347 101.122 22.5 100.867 22.5ZM42.3468 21.1735C42.0917 21.1735 41.8366 21.0204 41.7345 20.8163C41.5304 20.4592 41.6835 20.051 42.0406 19.847C43.6733 18.9796 45.408 18.1123 47.0917 17.398C47.4488 17.2449 47.857 17.398 48.061 17.7551C48.2141 18.1123 48.061 18.5204 47.7039 18.7245C46.0202 19.4388 44.3366 20.2551 42.7549 21.1225C42.6019 21.1225 42.4998 21.1735 42.3468 21.1735ZM90.8672 17.7041C90.7651 17.7041 90.7141 17.7041 90.6121 17.6531C88.8774 17.0408 87.1427 16.4796 85.357 16.0204C84.9488 15.9184 84.7447 15.5102 84.8468 15.1531C84.9488 14.7449 85.357 14.5408 85.7141 14.6429C87.4998 15.1021 89.3366 15.7143 91.0713 16.3265C91.4284 16.4796 91.6325 16.8878 91.4794 17.2449C91.4284 17.5 91.1733 17.7041 90.8672 17.7041ZM52.6019 16.8367C52.2957 16.8367 51.9896 16.6327 51.9386 16.3265C51.8366 15.9694 52.0406 15.5612 52.3978 15.4082C54.1835 14.847 56.0202 14.3367 57.857 13.9796C58.2651 13.8776 58.6223 14.1327 58.7243 14.5408C58.8264 14.949 58.5713 15.3061 58.1631 15.4082C56.3774 15.8163 54.5917 16.2755 52.857 16.8367C52.7549 16.7857 52.6529 16.8367 52.6019 16.8367ZM80.1019 14.847C80.0508 14.847 79.9998 14.847 79.9998 14.847C78.2141 14.5408 76.3774 14.3367 74.5406 14.2347C74.1325 14.1837 73.8263 13.8776 73.8774 13.4694C73.9284 13.0612 74.2345 12.7551 74.6427 12.8061C76.5304 12.9592 78.4182 13.1633 80.2549 13.4694C80.6631 13.5204 80.9182 13.9286 80.8672 14.2857C80.7651 14.5919 80.459 14.847 80.1019 14.847ZM63.4692 14.4898C63.1121 14.4898 62.8059 14.2347 62.7549 13.8776C62.7039 13.4694 63.01 13.1123 63.3672 13.0612C65.2039 12.8572 67.0917 12.7041 68.9794 12.6531C69.3876 12.6531 69.6937 12.9592 69.6937 13.3674C69.6937 13.7755 69.3876 14.0816 68.9794 14.0816C67.1427 14.1327 65.3059 14.2347 63.5202 14.4898H63.4692Z" fill="url(#paint1_linear_553_233)"/>
<path d="M107.806 27.3979C107.653 27.3979 107.5 27.3469 107.347 27.2449C106.632 26.6326 105.867 26.0714 105.102 25.5102C104.796 25.2551 104.694 24.8469 104.949 24.4898C105.204 24.1837 105.612 24.0816 105.969 24.3367C106.734 24.8979 107.5 25.5102 108.265 26.1224C108.571 26.3775 108.622 26.8367 108.367 27.1428C108.214 27.2959 108.01 27.3979 107.806 27.3979Z" fill="url(#paint2_linear_553_233)"/>
<path d="M113.061 32.449L105 30.8163C104.336 30.8163 103.979 30 104.489 29.5408L110.765 23.2653C111.224 22.8061 112.041 23.1123 112.041 23.7755L113.775 31.6837C113.775 32.1429 113.469 32.449 113.061 32.449Z" fill="url(#paint3_linear_553_233)"/>
<path d="M129.133 175.357C128.98 175.357 128.827 175.306 128.725 175.255C128.419 175.051 128.317 174.592 128.521 174.235C129.031 173.469 129.541 172.653 130 171.837C130.204 171.48 130.664 171.378 130.97 171.582C131.327 171.786 131.429 172.245 131.225 172.551C130.715 173.418 130.204 174.235 129.643 175.051C129.592 175.204 129.337 175.357 129.133 175.357Z" fill="url(#paint4_linear_553_233)"/>
<path d="M96.3781 191.684C96.3781 191.684 96.3271 191.684 96.3781 191.684C94.4904 191.582 92.6537 191.378 90.8169 191.02C90.4088 190.969 90.1537 190.561 90.2557 190.153C90.3067 189.745 90.7149 189.49 91.123 189.592C92.8577 189.949 94.6435 190.153 96.4292 190.255C96.8373 190.255 97.1434 190.612 97.0924 191.02C97.0924 191.378 96.7353 191.684 96.3781 191.684ZM101.837 191.531C101.48 191.531 101.174 191.276 101.123 190.867C101.072 190.459 101.378 190.102 101.786 190.102C103.572 189.949 105.358 189.643 107.041 189.184C107.45 189.082 107.807 189.337 107.909 189.694C108.011 190.102 107.756 190.459 107.399 190.561C105.613 191.02 103.776 191.327 101.939 191.48C101.888 191.531 101.837 191.531 101.837 191.531ZM85.6639 189.592C85.5618 189.592 85.5108 189.592 85.4088 189.541C83.6741 188.929 81.9394 188.163 80.3067 187.296C79.9496 187.092 79.7965 186.684 80.0006 186.327C80.2047 185.969 80.6128 185.816 80.97 186.02C82.5516 186.837 84.1843 187.551 85.8679 188.163C86.2251 188.316 86.4292 188.725 86.3271 189.082C86.2761 189.388 85.97 189.592 85.6639 189.592ZM112.399 188.929C112.092 188.929 111.837 188.776 111.735 188.469C111.582 188.112 111.735 187.704 112.143 187.551C113.776 186.888 115.409 186.071 116.939 185.153C117.297 184.949 117.705 185.051 117.909 185.408C118.113 185.765 118.011 186.173 117.654 186.378C116.072 187.347 114.388 188.163 112.654 188.878C112.552 188.878 112.501 188.929 112.399 188.929ZM121.735 183.367C121.531 183.367 121.327 183.265 121.174 183.112C120.919 182.806 120.97 182.347 121.276 182.092C122.654 180.969 123.98 179.745 125.154 178.418C125.409 178.112 125.868 178.112 126.174 178.367C126.48 178.622 126.48 179.082 126.225 179.388C124.95 180.765 123.623 182.041 122.194 183.214C122.092 183.316 121.888 183.367 121.735 183.367Z" fill="url(#paint5_linear_553_233)"/>
<path d="M76.0207 184.49C75.8677 184.49 75.7146 184.439 75.6126 184.337C74.8473 183.776 74.082 183.163 73.3167 182.5C73.0105 182.245 72.9595 181.786 73.2146 181.48C73.4697 181.173 73.9289 181.122 74.235 181.378C74.9493 181.99 75.7146 182.602 76.4289 183.112C76.735 183.367 76.8371 183.776 76.582 184.133C76.4799 184.388 76.2758 184.49 76.0207 184.49Z" fill="url(#paint6_linear_553_233)"/>
<path d="M67.3981 176.837L75.6124 177.296C76.2757 177.194 76.7349 177.959 76.3267 178.469L71.0206 185.612C70.6124 186.122 69.7961 185.918 69.6941 185.255L66.7859 177.653C66.6838 177.245 66.99 176.888 67.3981 176.837Z" fill="url(#paint7_linear_553_233)"/>
<path d="M35.4082 118.367H9.33675C8.36736 118.367 7.60205 117.602 7.60205 116.633V100.459C7.60205 99.4898 8.36736 98.7245 9.33675 98.7245H35.4082C36.3776 98.7245 37.1429 99.4898 37.1429 100.459V116.633C37.1429 117.602 36.3776 118.367 35.4082 118.367Z" fill="url(#paint8_linear_553_233)"/>
<path d="M23.3164 116.531L30.9185 123.878C31.5307 124.49 32.6021 124.031 32.6021 123.163V116.378L23.3164 116.531Z" fill="url(#paint9_linear_553_233)"/>
<path d="M31.5307 106.429H13.6735C13.2653 106.429 12.9082 106.071 12.9082 105.663C12.9082 105.255 13.2653 104.898 13.6735 104.898H31.5307C31.9388 104.898 32.296 105.255 32.296 105.663C32.347 106.071 31.9898 106.429 31.5307 106.429Z" fill="white"/>
<path d="M31.5307 111.99H13.6735C13.2653 111.99 12.9082 111.633 12.9082 111.224C12.9082 110.816 13.2653 110.459 13.6735 110.459H31.5307C31.9388 110.459 32.296 110.816 32.296 111.224C32.347 111.684 31.9898 111.99 31.5307 111.99Z" fill="white"/>
<path d="M160.153 117.5C156.276 120.51 146.786 123.265 140.867 122.5C135.459 121.786 134.541 118.775 141.378 117.755C142.398 117.347 141.939 116.224 141.531 115.816C139.898 114.133 137.806 113.571 135.816 113.418C134.439 113.418 133.163 113.316 132.041 113.061C126.174 111.888 125.918 108.265 135.102 108.265C144.286 108.265 157.296 97.8571 161.429 95.4082C167.908 91.5306 171.582 96.3265 155.816 106.735C155.408 106.99 150.816 110 150.357 110.255C148.725 111.224 147.551 113.112 149.337 113.878C152.653 115.408 158.929 110.51 160.867 109.184C166.99 104.898 166.123 112.908 160.153 117.5Z" fill="url(#paint10_linear_553_233)"/>
<path d="M169.082 101.02C167.143 102.806 166.276 103.776 167.041 105.051C167.806 106.327 168.674 106.275 170.663 104.235C173.316 101.582 171.123 99.2347 169.082 101.02Z" fill="url(#paint11_linear_553_233)"/>
<path d="M167.5 114.184C165.51 115.765 163.265 118.316 159.592 120.561C155.306 123.214 156.122 123.622 158.878 123.01C161.684 122.398 165.816 119.49 167.449 117.755C170.612 114.388 169.184 112.857 167.5 114.184Z" fill="url(#paint12_linear_553_233)"/>
<path d="M166.837 117.5V160.051C166.837 161.939 165.306 163.52 163.367 163.52H83.9797C82.0919 163.52 80.5103 161.99 80.5103 160.051V117.5C80.5103 115.612 82.0409 114.031 83.9797 114.031H163.367C165.306 114.082 166.837 115.612 166.837 117.5Z" fill="url(#paint13_linear_553_233)"/>
<path d="M116.225 114.082V163.571H83.9797C82.0919 163.571 80.5103 162.041 80.5103 160.102V117.551C80.5103 115.663 82.0409 114.082 83.9797 114.082H116.225Z" fill="url(#paint14_linear_553_233)"/>
<path d="M153.673 139.49H128.826C128.163 139.49 127.653 138.98 127.653 138.316C127.653 137.653 128.163 137.143 128.826 137.143H153.673C154.336 137.143 154.847 137.653 154.847 138.316C154.847 138.98 154.336 139.49 153.673 139.49Z" fill="url(#paint15_linear_553_233)"/>
<path d="M153.673 145.153H128.826C128.163 145.153 127.653 144.643 127.653 143.98C127.653 143.316 128.163 142.806 128.826 142.806H153.673C154.336 142.806 154.847 143.316 154.847 143.98C154.847 144.592 154.336 145.153 153.673 145.153Z" fill="url(#paint16_linear_553_233)"/>
<path d="M153.673 150.765H128.826C128.163 150.765 127.653 150.255 127.653 149.592C127.653 148.929 128.163 148.418 128.826 148.418H153.673C154.336 148.418 154.847 148.929 154.847 149.592C154.847 150.255 154.336 150.765 153.673 150.765Z" fill="url(#paint17_linear_553_233)"/>
<path d="M148.928 130.714H130.204C128.775 130.714 127.653 129.592 127.653 128.163C127.653 126.735 128.775 125.612 130.204 125.612H148.928C150.357 125.612 151.479 126.735 151.479 128.163C151.53 129.541 150.357 130.714 148.928 130.714Z" fill="url(#paint18_linear_553_233)"/>
<path d="M90.6124 155.255H116.072C117.143 155.255 117.959 154.388 117.959 153.367V124.439C117.959 123.367 117.092 122.551 116.072 122.551H90.6124C89.5409 122.551 88.7246 123.418 88.7246 124.439V153.367C88.7246 154.388 89.5409 155.255 90.6124 155.255Z" fill="url(#paint19_linear_553_233)"/>
<path d="M112.398 48.9286V167.398C112.398 169.388 110.816 170.969 108.826 170.969H37.8571C35.8673 170.969 34.2856 169.388 34.2856 167.398V48.9286C34.2856 46.9388 35.8673 45.3572 37.8571 45.3572H108.877C110.816 45.3572 112.398 46.9898 112.398 48.9286Z" fill="url(#paint20_linear_553_233)"/>
<path d="M112.398 48.9286V50.8674H34.2349V48.9286C34.2349 46.9388 35.8165 45.3572 37.8063 45.3572H108.827C110.816 45.3572 112.398 46.9898 112.398 48.9286Z" fill="url(#paint21_linear_553_233)"/>
<path d="M34.2349 167.602V165.663H112.398V167.602C112.398 169.592 110.816 171.174 108.827 171.174H37.8573C35.8675 171.174 34.2349 169.541 34.2349 167.602Z" fill="url(#paint22_linear_553_233)"/>
<path d="M73.3163 121.275C87.9124 121.275 99.7449 109.443 99.7449 94.8469C99.7449 80.2508 87.9124 68.4183 73.3163 68.4183C58.7202 68.4183 46.8877 80.2508 46.8877 94.8469C46.8877 109.443 58.7202 121.275 73.3163 121.275Z" fill="url(#paint23_linear_553_233)"/>
<path d="M27.602 146.378C29.1837 147.347 29.0816 148.929 26.6836 148.724C24.2857 148.52 21.1734 147.704 20.9694 149.337C20.8163 150.969 31.5306 158.622 40.7653 162.806C50.051 166.99 52.2449 166.48 51.6326 170.204C51.0714 173.929 46.9898 174.796 39.0816 171.48C31.1734 168.163 18.2143 159.082 15.153 154.388C12.0918 149.694 11.6836 147.959 14.1836 147.755C16.6836 147.551 18.7755 147.041 17.3469 145.663C15.8673 144.235 10.7653 139.439 10.7143 137.398C10.6122 135.357 10.9694 135.459 13.6734 137.449C16.3775 139.439 24.6939 144.592 27.602 146.378Z" fill="url(#paint24_linear_553_233)"/>
<path d="M0.663046 134.694C-1.47981 136.429 3.061 141.735 5.45896 143.01C7.85692 144.286 8.52019 141.99 6.27529 138.265C4.03039 134.541 1.93856 133.673 0.663046 134.694Z" fill="url(#paint25_linear_553_233)"/>
<path d="M155.867 75.7653V106.071C155.867 107.296 155.102 108.316 154.03 108.673C153.724 108.775 153.418 108.878 153.061 108.878H108.571C108.265 108.878 107.959 108.827 107.704 108.724C106.581 108.367 105.765 107.296 105.765 106.071V75.7653C105.765 74.2347 107.041 72.9592 108.571 72.9592H153.061C154.03 72.9592 154.898 73.4694 155.408 74.2347C155.714 74.6939 155.867 75.2551 155.867 75.7653Z" fill="url(#paint26_linear_553_233)"/>
<path d="M106.224 74.4388L126.224 52.1429C128.724 49.3367 133.163 49.3367 135.663 52.1429L155.357 74.2857L106.224 74.4388Z" fill="url(#paint27_linear_553_233)"/>
<path d="M155.867 75.7653V106.071C155.867 107.602 154.591 108.878 153.061 108.878H149.132L135.357 96.2245C134.183 95.153 134.234 93.3673 135.357 92.2959L154.795 74.6428C155 74.4388 155.204 74.3367 155.459 74.1837C155.714 74.6939 155.867 75.2551 155.867 75.7653Z" fill="url(#paint28_linear_553_233)"/>
<path d="M105.816 75.7653V106.071C105.816 107.602 107.091 108.878 108.622 108.878H112.551L126.326 96.2245C127.5 95.153 127.449 93.3673 126.326 92.2959L106.887 74.6428C106.683 74.4388 106.479 74.3367 106.224 74.1837C105.969 74.6939 105.816 75.2551 105.816 75.7653Z" fill="url(#paint29_linear_553_233)"/>
<path d="M154.031 108.724C153.725 108.827 153.418 108.929 153.061 108.929H108.571C108.265 108.929 107.959 108.878 107.704 108.775L127.194 91.2755C129.286 89.3877 132.704 89.3877 134.796 91.2755L154.031 108.724Z" fill="url(#paint30_linear_553_233)"/>
<path d="M167.704 71.6326C163.418 76.6836 158.826 84.1836 150.714 91.6326C141.224 100.357 143.316 101.122 149.949 98.2653C156.581 95.4081 165.663 86.1224 169.03 80.8673C175.51 70.7143 171.326 67.3469 167.704 71.6326Z" fill="url(#paint31_linear_553_233)"/>
<path d="M125.663 56.1225C132.088 56.1225 137.296 50.9144 137.296 44.4898C137.296 38.0653 132.088 32.8572 125.663 32.8572C119.239 32.8572 114.031 38.0653 114.031 44.4898C114.031 50.9144 119.239 56.1225 125.663 56.1225Z" fill="url(#paint32_linear_553_233)"/>
<path d="M122.908 50.3572C122.653 50.3572 122.398 50.2551 122.245 50.0511L117.908 45.6123C117.551 45.2551 117.551 44.6429 117.908 44.2347C118.265 43.8776 118.877 43.8776 119.286 44.2347L122.857 47.9082L130.204 38.3164C130.51 37.9082 131.122 37.8061 131.53 38.1633C131.939 38.4694 132.041 39.0817 131.684 39.4898L123.673 50C123.52 50.2041 123.265 50.3572 122.959 50.3572C122.908 50.3572 122.908 50.3572 122.908 50.3572Z" fill="white"/>
<path d="M93.5204 143.112H53.1632C49.7448 143.112 46.9897 140.357 46.9897 136.939C46.9897 133.52 49.7448 130.765 53.1632 130.765H93.5204C96.9387 130.765 99.6938 133.52 99.6938 136.939C99.6938 140.357 96.9387 143.112 93.5204 143.112Z" fill="url(#paint33_linear_553_233)"/>
<path d="M73.3163 141.276C72.9082 141.276 72.6021 140.969 72.6021 140.561V133.674C72.6021 133.265 72.9082 132.959 73.3163 132.959C73.7245 132.959 74.0306 133.265 74.0306 133.674V140.561C74.0306 140.969 73.7245 141.276 73.3163 141.276Z" fill="white"/>
<path d="M76.7856 137.857H69.8979C69.4897 137.857 69.1836 137.551 69.1836 137.143C69.1836 136.735 69.4897 136.429 69.8979 136.429H76.7856C77.1938 136.429 77.4999 136.735 77.4999 137.143C77.4999 137.5 77.1938 137.857 76.7856 137.857Z" fill="white"/>
<path d="M81.6836 149.337H64.9999C64.6428 149.337 64.2856 149.031 64.2856 148.622C64.2856 148.265 64.5918 147.908 64.9999 147.908H81.6836C82.0407 147.908 82.3979 148.214 82.3979 148.622C82.3469 149.031 82.0407 149.337 81.6836 149.337Z" fill="url(#paint34_linear_553_233)"/>
<path d="M80.102 81.5816C80.102 81.5816 77.704 90.5612 76.6326 98.4183C75.5612 106.275 75.6122 106.837 76.5816 107.449C78.2142 108.469 81.2245 106.224 81.2245 106.224C81.2245 106.224 82.4999 108.01 84.0816 106.582C85.6632 105.153 85.6122 103.98 85.6122 103.98C85.6122 103.98 86.7857 105.561 87.7551 103.418C88.6734 101.275 87.5 93.6224 85.7142 88.4183C84.3877 84.7449 80.102 81.5816 80.102 81.5816Z" fill="url(#paint35_linear_553_233)"/>
<path d="M81.4284 106.071C81.3264 106.122 81.2754 106.122 81.1733 106.071C81.0713 105.969 81.0203 105.714 81.0713 105.51C81.0713 105.51 81.5305 104.337 81.5815 103.265C81.6835 102.143 81.5815 101.173 81.5815 101.173C81.5815 100.969 81.6835 100.765 81.8366 100.714C81.9897 100.714 82.0917 100.867 82.1427 101.071C82.1427 101.122 82.2448 102.143 82.1427 103.367C82.0407 104.592 81.5815 105.867 81.5815 105.918C81.4795 106.02 81.4284 106.071 81.4284 106.071Z" fill="#600B32"/>
<path d="M85.6631 104.031C85.6121 104.082 85.5101 104.082 85.408 104.031C85.255 103.929 85.204 103.725 85.306 103.52C85.306 103.52 85.5611 102.806 85.5611 102.092C85.5611 101.378 85.5101 100.714 85.5101 100.714C85.5101 100.51 85.5611 100.306 85.7142 100.255C85.8672 100.204 85.9693 100.357 86.0203 100.561C86.0203 100.612 86.1223 101.276 86.0713 102.092C86.0203 102.959 85.7652 103.776 85.7652 103.827C85.7652 103.929 85.7142 103.98 85.6631 104.031Z" fill="#600B32"/>
<path d="M83.5712 89.7959C83.6732 89.2347 84.2855 88.9286 84.7447 89.1327C85.459 89.4388 86.3263 90.102 86.4794 91.6837C86.7855 94.4388 85.1529 96.0714 83.9794 96.5306C83.6222 96.6326 83.3671 96.6837 83.112 96.6837C82.5508 96.6837 82.1937 96.1224 82.2957 95.6122L83.5712 89.7959Z" fill="url(#paint36_linear_553_233)"/>
<path d="M84.0816 91.0204C84.1326 90.7143 84.4898 90.5102 84.7959 90.6633C85.2041 90.8163 85.7143 91.2245 85.8163 92.1428C86.0204 93.7755 85.051 94.6939 84.3878 94.949C84.1837 95 84.0306 95.051 83.8775 95.051C83.5714 95.051 83.3163 94.7449 83.4184 94.4388L84.0816 91.0204Z" fill="url(#paint37_linear_553_233)"/>
<path d="M62.8058 85.2551C62.8058 85.2551 60.4588 93.4694 59.4384 97.2449C58.367 101.02 58.316 103.622 60.0507 104.847C61.7854 106.02 63.316 103.725 63.316 103.725C63.316 103.725 63.6221 106.48 64.6935 107.245C65.765 108.01 66.8874 106.48 66.8874 106.48C66.8874 106.48 69.9997 109.949 71.8364 107.092C72.6017 105.867 70.4589 95.5613 69.3874 90.4082C68.316 85.2551 62.8058 85.2551 62.8058 85.2551Z" fill="url(#paint38_linear_553_233)"/>
<path d="M66.8876 106.071C66.9896 106.122 67.0406 106.122 67.1427 106.071C67.2447 105.969 67.2957 105.714 67.2447 105.51C67.2447 105.51 66.7855 104.337 66.7345 103.265C66.6325 102.143 66.7345 101.174 66.7345 101.174C66.7345 100.969 66.6325 100.765 66.4794 100.714C66.3263 100.714 66.2243 100.867 66.1733 101.072C66.1733 101.123 66.0712 102.143 66.1733 103.367C66.2753 104.592 66.7345 105.867 66.7855 105.918C66.7855 106.02 66.8365 106.071 66.8876 106.071Z" fill="#600B32"/>
<path d="M63.1119 103.571C63.1629 103.622 63.265 103.622 63.367 103.571C63.5201 103.469 63.5711 103.265 63.469 103.061C63.469 103.061 63.2139 102.347 63.2139 101.633C63.2139 100.918 63.265 100.255 63.265 100.255C63.265 100.051 63.2139 99.847 63.0609 99.796C62.9078 99.7449 62.8058 99.898 62.7548 100.102C62.7548 100.153 62.6527 100.816 62.7037 101.633C62.7548 102.5 63.0099 103.316 63.0099 103.367C63.0099 103.469 63.0609 103.52 63.1119 103.571Z" fill="#600B32"/>
<path d="M62.9076 89.7959C62.8056 89.2347 62.1933 88.9286 61.7341 89.1327C61.0198 89.4388 60.1525 90.102 59.9994 91.6837C59.6933 94.4388 61.326 96.0714 62.4994 96.5306C62.8566 96.6326 63.1117 96.6837 63.3668 96.6837C63.928 96.6837 64.2851 96.1224 64.1831 95.6122L62.9076 89.7959Z" fill="url(#paint39_linear_553_233)"/>
<path d="M62.3976 91.0204C62.3466 90.7143 61.9895 90.5102 61.6833 90.6633C61.2752 90.8163 60.765 91.2245 60.6629 92.1428C60.4589 93.7755 61.4282 94.6939 62.0915 94.949C62.2956 95 62.4487 95.051 62.6017 95.051C62.9078 95.051 63.1629 94.7449 63.0609 94.4388L62.3976 91.0204Z" fill="url(#paint40_linear_553_233)"/>
<path d="M70.3569 109.082L76.1223 109.184L76.3263 100.306L70.561 100.153L70.3569 109.082Z" fill="url(#paint41_linear_553_233)"/>
<path d="M65.1528 98.3673C67.7038 103.98 72.6528 105.408 77.2446 103.265C81.7854 101.173 83.6732 92.9592 83.5711 88.0612C83.4691 83.1633 80.714 77.602 74.3874 77.1939C68.5711 76.7857 65.2548 78.4694 63.7752 82.3979C63.6222 82.7551 63.5201 83.1633 63.4181 83.5204C63.4181 83.5204 63.214 85.2041 63.0609 87.5C62.8058 90.9694 63.9283 95.8163 65.1528 98.3673Z" fill="url(#paint42_linear_553_233)"/>
<path d="M62.8569 89.2857C63.01 89.2857 63.3671 89.3367 63.5202 89.3367C64.6937 89.1837 66.7855 87.1939 66.7855 87.3469C66.7855 87.5 67.0916 89.0306 68.9284 88.3163C70.7651 87.653 71.6324 85.8673 71.6324 85.8673C71.6324 85.8673 72.4488 86.1735 74.1324 86.5306C75.8161 86.8877 79.4386 86.4796 79.4386 86.4796C79.4386 86.4796 75.2039 83.4694 75.1528 83.3163C75.1018 83.1122 73.2141 83.1122 73.2141 83.1122C73.2141 83.1122 70.7141 82.3979 69.6937 82.0918C68.7243 81.7857 64.4896 83.0612 64.4896 83.0612C64.4896 83.0612 64.1835 83.5204 63.7753 84.2347C63.6222 84.5918 63.5202 85 63.4182 85.3571C63.4692 85.3571 63.01 86.9898 62.8569 89.2857Z" fill="url(#paint43_linear_553_233)"/>
<path d="M72.0402 84.3367C72.0402 84.3367 70.1525 87.4489 68.5198 87.9592C66.8872 88.4694 66.9892 86.2755 66.9892 86.2755C66.9892 86.2755 64.2851 88.6734 62.7035 88.9285C61.1219 89.1836 62.2443 84.6938 63.3668 83.1632C64.5402 81.5816 74.5402 79.4898 72.0402 84.3367Z" fill="url(#paint44_linear_553_233)"/>
<path d="M81.5815 86.6326L82.4489 95.4081L84.2346 88.1632C84.1836 88.1632 82.806 87.0408 81.5815 86.6326Z" fill="#600B32"/>
<path d="M65.0507 86.0714L64.1833 95.6122L61.7343 87.1939C61.6833 87.1939 63.7751 86.4796 65.0507 86.0714Z" fill="#600B32"/>
<path d="M87.3466 88.1122C87.4486 89.2347 86.2752 90 85.3058 89.4898C82.9078 88.1633 76.8364 85.1531 70.867 85.5102C63.2139 85.9694 62.0405 88.1122 61.1221 87.7551C59.4894 87.0408 60.4588 84.2347 60.765 83.7245C61.0711 83.2143 61.4282 73.8776 70.765 70.9694C80.1017 68.0612 84.5405 72.3469 85.3058 74.3367C86.5303 77.551 84.4384 79.5918 84.5405 81.0204C84.6425 82.449 86.5303 85.5102 86.8364 86.1735C86.9894 86.4796 87.2956 87.2959 87.3466 88.1122Z" fill="url(#paint45_linear_553_233)"/>
<path d="M86.7344 86.7857C86.7855 86.7857 86.7855 86.7347 86.8365 86.6836C86.9385 86.5306 86.8875 86.3775 86.7855 86.2245C86.5814 86.0714 82.2446 82.1428 74.7446 81.3775C67.2957 80.6632 61.5303 83.0612 61.4793 83.0612C61.3263 83.1122 61.2752 83.3163 61.3263 83.4694C61.3773 83.6224 61.5814 83.7245 61.7344 83.6734C61.7854 83.6734 67.3977 81.2755 74.7446 81.9898C82.0406 82.7041 86.3773 86.6326 86.4283 86.6836C86.5303 86.8367 86.6324 86.8367 86.7344 86.7857Z" fill="#CB2527"/>
<path d="M84.2855 88.5714C84.3365 88.5204 84.3875 88.4694 84.4385 88.4184C84.4385 88.3673 84.6936 87.602 84.8467 86.5816C84.9997 85.5612 84.9487 85.2041 84.9487 85.1531C84.8977 85 84.7446 84.8469 84.5916 84.8469C84.4385 84.8469 84.3365 85 84.3875 85.2041C84.3875 85.2041 84.4385 85.5102 84.2855 86.3775C84.1324 87.3469 83.9283 88.1122 83.9283 88.1122C83.8773 88.2653 83.9793 88.4694 84.1324 88.5204C84.1324 88.6224 84.1834 88.6225 84.2855 88.5714Z" fill="#CB2527"/>
<path d="M80.8672 86.7857C80.9183 86.7347 80.9693 86.6836 81.0203 86.5816L81.7856 83.5204C81.8366 83.3673 81.7346 83.1632 81.5815 83.1122C81.4285 83.0612 81.2754 83.1122 81.2244 83.3163L80.4591 86.3775C80.4081 86.5306 80.5101 86.7347 80.6632 86.7857C80.7142 86.7857 80.8162 86.7857 80.8672 86.7857Z" fill="#CB2527"/>
<path d="M77.0407 85.7143C77.1428 85.6632 77.1938 85.6122 77.1938 85.5102L77.704 82.2449C77.755 82.0918 77.6019 81.8877 77.4489 81.8367C77.2958 81.7857 77.1428 81.8877 77.1428 82.0408L76.6326 85.3061C76.5815 85.4592 76.7346 85.6632 76.8877 85.7143C76.8877 85.7653 76.9897 85.7653 77.0407 85.7143Z" fill="#CB2527"/>
<path d="M73.4184 85.102C73.5205 85.051 73.5715 85 73.5715 84.8979L73.9796 81.7347C73.9796 81.5816 73.8776 81.3775 73.7245 81.3775C73.5715 81.3265 73.4184 81.4285 73.4184 81.5816L73.0103 84.7449C73.0103 84.8979 73.1123 85.102 73.2654 85.102C73.2654 85.153 73.3674 85.153 73.4184 85.102Z" fill="#CB2527"/>
<path d="M69.0816 85.051C69.1326 85 69.2347 84.949 69.2347 84.8469L69.8469 81.8367C69.8979 81.6837 69.7959 81.4796 69.6428 81.4286C69.4897 81.3775 69.3367 81.4796 69.2857 81.6326L68.6734 84.6428C68.6224 84.7959 68.7244 85 68.8775 85.051C68.9795 85.051 69.0306 85.051 69.0816 85.051Z" fill="#CB2527"/>
<path d="M65.0508 85.6122C65.1019 85.5612 65.2039 85.5102 65.2039 85.4081L65.8161 82.3979C65.8672 82.2449 65.7651 82.0408 65.6121 81.9898C65.459 81.9388 65.3059 82.0408 65.2549 82.1939L64.6427 85.2041C64.5916 85.3571 64.6937 85.5612 64.8468 85.6122C64.9488 85.6122 64.9998 85.6122 65.0508 85.6122Z" fill="#CB2527"/>
<path d="M62.3466 86.6326C62.4487 86.5816 62.4997 86.5306 62.4997 86.4285L62.9079 83.1122C62.9079 82.9591 62.8058 82.7551 62.6528 82.7551C62.4997 82.704 62.3466 82.8061 62.3466 83.0102L61.9385 86.3265C61.9385 86.4796 62.0405 86.6836 62.1936 86.6836C62.2446 86.6836 62.2956 86.6326 62.3466 86.6326Z" fill="#CB2527"/>
<path d="M91.1223 114.439C86.4284 118.673 80.2039 121.276 73.3672 121.276C66.6325 121.276 60.51 118.776 55.8672 114.643C57.4488 113.827 63.2141 111.071 68.8774 110.408C75.51 109.643 79.8468 110.408 83.8774 111.327C87.4488 112.092 90.459 113.98 91.1223 114.439Z" fill="url(#paint46_linear_553_233)"/>
<path d="M77.1937 111.071H69.1324C68.3671 111.071 67.7549 110.459 67.7549 109.694V107.857C67.7549 107.092 68.3671 106.48 69.1324 106.48H77.1937C77.959 106.48 78.5712 107.092 78.5712 107.857V109.694C78.5202 110.459 77.9079 111.071 77.1937 111.071Z" fill="url(#paint47_linear_553_233)"/>
<path d="M78.0611 110.357C78.0611 110.357 78.0101 110.357 78.0101 110.408C77.908 110.459 75.408 111.276 72.908 111.276C70.357 111.276 68.4693 110.663 68.3672 110.663C68.1631 110.612 68.0611 110.408 68.1121 110.204C68.1631 110 68.3672 109.898 68.5713 109.949C68.5713 109.949 70.4591 110.561 72.857 110.561C75.255 110.561 77.755 109.745 77.755 109.745C77.9591 109.694 78.1631 109.796 78.2142 110C78.3162 110.102 78.2142 110.306 78.0611 110.357Z" fill="#F3802A"/>
<path d="M69.8469 110.867C69.7958 110.918 69.7448 110.918 69.6428 110.918C69.4387 110.918 69.2856 110.663 69.2856 110.408L69.4387 107.806C69.4387 107.551 69.6428 107.347 69.8469 107.347C70.0509 107.347 70.204 107.602 70.204 107.857L70.0509 110.459C69.9999 110.663 69.9489 110.765 69.8469 110.867Z" fill="#F3802A"/>
<path d="M72.2958 111.122C72.2448 111.173 72.1938 111.173 72.1428 111.173C71.9387 111.173 71.7856 110.969 71.7856 110.714V107.704C71.7856 107.449 71.9387 107.245 72.1428 107.245C72.3469 107.245 72.4999 107.449 72.4999 107.704V110.714C72.4999 110.918 72.3979 111.071 72.2958 111.122Z" fill="#F3802A"/>
<path d="M74.7446 110.969C74.6935 111.02 74.6425 111.02 74.5915 111.02C74.3874 111.02 74.2344 110.816 74.2344 110.561L74.1323 107.5C74.1323 107.245 74.2854 106.99 74.4895 106.99C74.6935 106.99 74.8466 107.194 74.8466 107.449L74.9486 110.51C74.8976 110.714 74.8466 110.867 74.7446 110.969Z" fill="#F3802A"/>
<path d="M76.9897 110.51C76.9387 110.561 76.8876 110.561 76.8876 110.561C76.6836 110.612 76.5305 110.408 76.4795 110.153L76.2754 107.704C76.2754 107.449 76.3774 107.194 76.5815 107.194C76.7856 107.143 76.9387 107.347 76.9897 107.602L77.1938 110.051C77.1938 110.204 77.1427 110.408 76.9897 110.51Z" fill="#F3802A"/>
<path d="M70.714 121.122C67.8059 120.816 64.9997 120.051 62.4487 118.878L67.8569 110.867C67.8569 110.867 69.7957 112.194 70.561 115.51C71.1222 118.061 70.8671 120.255 70.714 121.122Z" fill="#F69241"/>
<path d="M84.2854 118.929C81.7344 120.102 78.9793 120.867 76.0711 121.122C75.9181 120.255 75.6119 118.061 76.2242 115.51C76.9895 112.194 78.9283 110.867 78.9283 110.867L84.2854 118.929Z" fill="#F69241"/>
<path d="M69.8467 121.02C64.3365 120.306 59.3876 117.857 55.459 114.286C55.6631 113.929 56.2243 113.418 57.6529 112.806C60.6121 111.582 63.2651 110.561 64.8467 110.459C66.4284 110.357 67.959 109.796 68.9794 111.735C70.561 114.541 69.8978 120.51 69.8467 121.02Z" fill="url(#paint48_linear_553_233)"/>
<path d="M91.1735 114.337C87.5001 117.704 82.8572 120.051 77.7041 120.918C77.5511 120.102 76.9899 116.735 77.296 114.133C77.6021 111.633 77.6021 109.592 81.3776 110.204C85.9184 111.02 90.4592 113.878 91.1735 114.337Z" fill="url(#paint49_linear_553_233)"/>
<path d="M77.1531 91.2391C76.8155 91.2594 76.568 91.7092 76.6002 92.2436C76.6325 92.778 76.9322 93.1948 77.2697 93.1744C77.6072 93.1541 77.8547 92.7043 77.8225 92.1699C77.7903 91.6355 77.4906 91.2188 77.1531 91.2391Z" fill="#461C34"/>
<path d="M68.9358 91.4064C68.5982 91.4267 68.3508 91.8764 68.383 92.4109C68.4152 92.9453 68.7149 93.362 69.0524 93.3417C69.39 93.3213 69.6375 92.8716 69.6052 92.3372C69.573 91.8028 69.2733 91.386 68.9358 91.4064Z" fill="#461C34"/>
<path d="M78.1634 88.9796C78.4695 89.2347 78.1123 89.6939 77.0409 89.2857C75.9695 88.8265 75.8675 88.3163 76.2756 88.2653C76.6838 88.1633 77.5511 88.4184 78.1634 88.9796Z" fill="#461C34"/>
<path d="M67.9593 88.9796C68.1123 88.8265 69.4899 87.9082 69.796 88.2653C70.1021 88.6224 68.5715 89.4898 68.0613 89.5408C67.5511 89.5918 67.9593 88.9796 67.9593 88.9796Z" fill="#461C34"/>
<path d="M75.6633 98.6735C75.7653 98.8265 75.102 100.306 73.0612 100.102C71.2245 99.949 70.7143 98.8775 70.8673 98.8775C71.0204 98.8775 72.0918 99.4388 73.2143 99.4388C74.3367 99.4898 75.4082 98.3163 75.6633 98.6735Z" fill="url(#paint50_linear_553_233)"/>
<path d="M73.4184 92.9082C73.6225 93.1633 74.1327 96.4286 73.9796 97.1939C73.8776 97.7551 72.9082 98.1123 72.5511 97.1429C72.1939 96.1735 72.9592 92.449 73.4184 92.9082Z" fill="url(#paint51_linear_553_233)"/>
<defs>
<linearGradient id="paint0_linear_553_233" x1="13.9767" y1="93.3604" x2="16.439" y2="93.3604" gradientUnits="userSpaceOnUse">
<stop stop-color="#827FCB"/>
<stop offset="1" stop-color="#A8A7E1"/>
</linearGradient>
<linearGradient id="paint1_linear_553_233" x1="10.6526" y1="50.022" x2="101.608" y2="50.022" gradientUnits="userSpaceOnUse">
<stop stop-color="#827FCB"/>
<stop offset="1" stop-color="#A8A7E1"/>
</linearGradient>
<linearGradient id="paint2_linear_553_233" x1="104.827" y1="25.7756" x2="108.542" y2="25.7756" gradientUnits="userSpaceOnUse">
<stop stop-color="#827FCB"/>
<stop offset="1" stop-color="#A8A7E1"/>
</linearGradient>
<linearGradient id="paint3_linear_553_233" x1="104.255" y1="27.7433" x2="113.792" y2="27.7433" gradientUnits="userSpaceOnUse">
<stop stop-color="#827FCB"/>
<stop offset="1" stop-color="#A8A7E1"/>
</linearGradient>
<linearGradient id="paint4_linear_553_233" x1="128.404" y1="173.397" x2="131.377" y2="173.397" gradientUnits="userSpaceOnUse">
<stop stop-color="#827FCB"/>
<stop offset="1" stop-color="#A8A7E1"/>
</linearGradient>
<linearGradient id="paint5_linear_553_233" x1="79.9609" y1="184.92" x2="126.45" y2="184.92" gradientUnits="userSpaceOnUse">
<stop stop-color="#827FCB"/>
<stop offset="1" stop-color="#A8A7E1"/>
</linearGradient>
<linearGradient id="paint6_linear_553_233" x1="73.0576" y1="182.872" x2="76.7552" y2="182.872" gradientUnits="userSpaceOnUse">
<stop stop-color="#827FCB"/>
<stop offset="1" stop-color="#A8A7E1"/>
</linearGradient>
<linearGradient id="paint7_linear_553_233" x1="66.7356" y1="181.352" x2="76.4261" y2="181.352" gradientUnits="userSpaceOnUse">
<stop stop-color="#827FCB"/>
<stop offset="1" stop-color="#A8A7E1"/>
</linearGradient>
<linearGradient id="paint8_linear_553_233" x1="37.1658" y1="129.531" x2="14.5898" y2="97.4685" gradientUnits="userSpaceOnUse">
<stop stop-color="#ED4527"/>
<stop offset="0.9946" stop-color="#F26A41"/>
</linearGradient>
<linearGradient id="paint9_linear_553_233" x1="36.7786" y1="129.003" x2="14.2027" y2="96.9406" gradientUnits="userSpaceOnUse">
<stop stop-color="#ED4527"/>
<stop offset="0.9946" stop-color="#F26A41"/>
</linearGradient>
<linearGradient id="paint10_linear_553_233" x1="130.155" y1="117.34" x2="169.87" y2="103.678" gradientUnits="userSpaceOnUse">
<stop stop-color="#F0CBDD"/>
<stop offset="0.9946" stop-color="#FAEBF3"/>
</linearGradient>
<linearGradient id="paint11_linear_553_233" x1="166.905" y1="104.852" x2="171.929" y2="101.362" gradientUnits="userSpaceOnUse">
<stop stop-color="#F0CBDD"/>
<stop offset="0.9946" stop-color="#FAEBF3"/>
</linearGradient>
<linearGradient id="paint12_linear_553_233" x1="155.624" y1="125.749" x2="167.304" y2="115.823" gradientUnits="userSpaceOnUse">
<stop stop-color="#19207D"/>
<stop offset="1" stop-color="#0E125C"/>
</linearGradient>
<linearGradient id="paint13_linear_553_233" x1="35.1281" y1="162.668" x2="145.602" y2="132.888" gradientUnits="userSpaceOnUse">
<stop stop-color="#ECEEFB"/>
<stop offset="1" stop-color="#E3E0FD"/>
</linearGradient>
<linearGradient id="paint14_linear_553_233" x1="110.844" y1="138.794" x2="123.233" y2="138.794" gradientUnits="userSpaceOnUse">
<stop stop-color="#C9CDFB"/>
<stop offset="1" stop-color="#E3E0FD"/>
</linearGradient>
<linearGradient id="paint15_linear_553_233" x1="66.0957" y1="176.132" x2="141.99" y2="137.945" gradientUnits="userSpaceOnUse">
<stop stop-color="#827FCB"/>
<stop offset="1" stop-color="#A8A7E1"/>
</linearGradient>
<linearGradient id="paint16_linear_553_233" x1="68.3648" y1="180.641" x2="144.258" y2="142.454" gradientUnits="userSpaceOnUse">
<stop stop-color="#827FCB"/>
<stop offset="1" stop-color="#A8A7E1"/>
</linearGradient>
<linearGradient id="paint17_linear_553_233" x1="70.6338" y1="185.151" x2="146.528" y2="146.964" gradientUnits="userSpaceOnUse">
<stop stop-color="#827FCB"/>
<stop offset="1" stop-color="#A8A7E1"/>
</linearGradient>
<linearGradient id="paint18_linear_553_233" x1="61.6757" y1="167.347" x2="137.569" y2="129.16" gradientUnits="userSpaceOnUse">
<stop stop-color="#827FCB"/>
<stop offset="1" stop-color="#A8A7E1"/>
</linearGradient>
<linearGradient id="paint19_linear_553_233" x1="58.6573" y1="161.348" x2="134.551" y2="123.161" gradientUnits="userSpaceOnUse">
<stop stop-color="#827FCB"/>
<stop offset="1" stop-color="#A8A7E1"/>
</linearGradient>
<linearGradient id="paint20_linear_553_233" x1="73.3314" y1="13.9855" x2="73.3314" y2="179.768" gradientUnits="userSpaceOnUse">
<stop stop-color="#F0CBDD"/>
<stop offset="0.9946" stop-color="#FAEBF3"/>
</linearGradient>
<linearGradient id="paint21_linear_553_233" x1="93.2128" y1="25.3829" x2="50.3025" y2="76.9393" gradientUnits="userSpaceOnUse">
<stop stop-color="#FBB666"/>
<stop offset="1" stop-color="#F89E44"/>
</linearGradient>
<linearGradient id="paint22_linear_553_233" x1="103.71" y1="124.956" x2="58.5579" y2="187.721" gradientUnits="userSpaceOnUse">
<stop stop-color="#FBB666"/>
<stop offset="1" stop-color="#F89E44"/>
</linearGradient>
<linearGradient id="paint23_linear_553_233" x1="76.6527" y1="119.544" x2="66.4054" y2="43.3301" gradientUnits="userSpaceOnUse">
<stop stop-color="#19207D"/>
<stop offset="1" stop-color="#0E125C"/>
</linearGradient>
<linearGradient id="paint24_linear_553_233" x1="15.3841" y1="159.024" x2="45.9482" y2="149.8" gradientUnits="userSpaceOnUse">
<stop stop-color="#F0CBDD"/>
<stop offset="0.9946" stop-color="#FAEBF3"/>
</linearGradient>
<linearGradient id="paint25_linear_553_233" x1="3.82264" y1="134.288" x2="3.89503" y2="143.402" gradientUnits="userSpaceOnUse">
<stop stop-color="#F0CBDD"/>
<stop offset="0.9946" stop-color="#FAEBF3"/>
</linearGradient>
<linearGradient id="paint26_linear_553_233" x1="130.838" y1="43.6064" x2="130.838" y2="73.0485" gradientUnits="userSpaceOnUse">
<stop stop-color="#FBB666"/>
<stop offset="1" stop-color="#F69241"/>
</linearGradient>
<linearGradient id="paint27_linear_553_233" x1="130.817" y1="43.6064" x2="130.817" y2="73.0485" gradientUnits="userSpaceOnUse">
<stop stop-color="#FBB666"/>
<stop offset="1" stop-color="#F69241"/>
</linearGradient>
<linearGradient id="paint28_linear_553_233" x1="156.277" y1="88.4393" x2="135.942" y2="110.055" gradientUnits="userSpaceOnUse">
<stop stop-color="#FBB666"/>
<stop offset="1" stop-color="#F89E44"/>
</linearGradient>
<linearGradient id="paint29_linear_553_233" x1="110.512" y1="90.1048" x2="118.198" y2="103.074" gradientUnits="userSpaceOnUse">
<stop stop-color="#FBB666"/>
<stop offset="1" stop-color="#F89E44"/>
</linearGradient>
<linearGradient id="paint30_linear_553_233" x1="130.893" y1="89.5588" x2="130.893" y2="116.348" gradientUnits="userSpaceOnUse">
<stop stop-color="#FBB666"/>
<stop offset="1" stop-color="#F89E44"/>
</linearGradient>
<linearGradient id="paint31_linear_553_233" x1="142.941" y1="106.796" x2="169.328" y2="77.2492" gradientUnits="userSpaceOnUse">
<stop stop-color="#ED4527"/>
<stop offset="0.9946" stop-color="#F26A41"/>
</linearGradient>
<linearGradient id="paint32_linear_553_233" x1="124.236" y1="31.8948" x2="128.239" y2="67.4399" gradientUnits="userSpaceOnUse">
<stop stop-color="#B22878"/>
<stop offset="1" stop-color="#C24A9A"/>
</linearGradient>
<linearGradient id="paint33_linear_553_233" x1="44.2047" y1="120.389" x2="93.6797" y2="148.489" gradientUnits="userSpaceOnUse">
<stop stop-color="#ED4527"/>
<stop offset="0.9946" stop-color="#F26A41"/>
</linearGradient>
<linearGradient id="paint34_linear_553_233" x1="72.537" y1="145.717" x2="63.17" y2="110.892" gradientUnits="userSpaceOnUse">
<stop stop-color="#F0CBDD"/>
<stop offset="0.9946" stop-color="#FAEBF3"/>
</linearGradient>
<linearGradient id="paint35_linear_553_233" x1="81.8347" y1="87.2316" x2="81.9102" y2="99.8288" gradientUnits="userSpaceOnUse">
<stop offset="0.00537634" stop-color="#6A0F35"/>
<stop offset="1" stop-color="#772743"/>
</linearGradient>
<linearGradient id="paint36_linear_553_233" x1="90.6843" y1="91.2742" x2="80.2424" y2="93.7513" gradientUnits="userSpaceOnUse">
<stop stop-color="#F27C7D"/>
<stop offset="1" stop-color="#F7B0AC"/>
</linearGradient>
<linearGradient id="paint37_linear_553_233" x1="84.4393" y1="92.8536" x2="87.5185" y2="89.7393" gradientUnits="userSpaceOnUse">
<stop stop-color="#F27C7D"/>
<stop offset="1" stop-color="#F7B0AC"/>
</linearGradient>
<linearGradient id="paint38_linear_553_233" x1="66.902" y1="92.2333" x2="65.2833" y2="103.608" gradientUnits="userSpaceOnUse">
<stop offset="0.00537634" stop-color="#6A0F35"/>
<stop offset="1" stop-color="#772743"/>
</linearGradient>
<linearGradient id="paint39_linear_553_233" x1="55.8153" y1="91.2742" x2="66.2571" y2="93.7513" gradientUnits="userSpaceOnUse">
<stop stop-color="#F27C7D"/>
<stop offset="1" stop-color="#F7B0AC"/>
</linearGradient>
<linearGradient id="paint40_linear_553_233" x1="62.0606" y1="92.8536" x2="58.9814" y2="89.7394" gradientUnits="userSpaceOnUse">
<stop stop-color="#F27C7D"/>
<stop offset="1" stop-color="#F7B0AC"/>
</linearGradient>
<linearGradient id="paint41_linear_553_233" x1="73.414" y1="100.868" x2="73.2814" y2="106.861" gradientUnits="userSpaceOnUse">
<stop stop-color="#F27C7D"/>
<stop offset="1" stop-color="#F6A2A4"/>
</linearGradient>
<linearGradient id="paint42_linear_553_233" x1="58.8306" y1="99.7365" x2="69.0617" y2="92.9191" gradientUnits="userSpaceOnUse">
<stop stop-color="#F27C7D"/>
<stop offset="1" stop-color="#F7B0AC"/>
</linearGradient>
<linearGradient id="paint43_linear_553_233" x1="71.1865" y1="87.9383" x2="70.4012" y2="81.47" gradientUnits="userSpaceOnUse">
<stop offset="0.00537634" stop-color="#F05A53"/>
<stop offset="1" stop-color="#F0635E"/>
</linearGradient>
<linearGradient id="paint44_linear_553_233" x1="67.5353" y1="88.3595" x2="66.7164" y2="81.6143" gradientUnits="userSpaceOnUse">
<stop offset="0.00537634" stop-color="#6A0F35"/>
<stop offset="1" stop-color="#772743"/>
</linearGradient>
<linearGradient id="paint45_linear_553_233" x1="78.0049" y1="91.6814" x2="68.0147" y2="70.447" gradientUnits="userSpaceOnUse">
<stop stop-color="#EC4728"/>
<stop offset="1" stop-color="#F16843"/>
</linearGradient>
<linearGradient id="paint46_linear_553_233" x1="73.4995" y1="104.454" x2="73.4995" y2="132.669" gradientUnits="userSpaceOnUse">
<stop stop-color="#FBB666"/>
<stop offset="1" stop-color="#F89E44"/>
</linearGradient>
<linearGradient id="paint47_linear_553_233" x1="73.1534" y1="104.185" x2="73.1534" y2="115.716" gradientUnits="userSpaceOnUse">
<stop stop-color="#FBB666"/>
<stop offset="1" stop-color="#F89E44"/>
</linearGradient>
<linearGradient id="paint48_linear_553_233" x1="63.9772" y1="126.271" x2="61.669" y2="105.498" gradientUnits="userSpaceOnUse">
<stop stop-color="#B22878"/>
<stop offset="1" stop-color="#C24A9A"/>
</linearGradient>
<linearGradient id="paint49_linear_553_233" x1="85.1705" y1="124.418" x2="82.9902" y2="104.796" gradientUnits="userSpaceOnUse">
<stop stop-color="#B22878"/>
<stop offset="1" stop-color="#C24A9A"/>
</linearGradient>
<linearGradient id="paint50_linear_553_233" x1="73.1851" y1="99.9798" x2="73.2626" y2="98.38" gradientUnits="userSpaceOnUse">
<stop offset="0.00537634" stop-color="#F05A53"/>
<stop offset="1" stop-color="#F0635E"/>
</linearGradient>
<linearGradient id="paint51_linear_553_233" x1="73.3589" y1="97.3919" x2="72.713" y2="92.6685" gradientUnits="userSpaceOnUse">
<stop offset="0.00537634" stop-color="#F05A53"/>
<stop offset="1" stop-color="#F0635E"/>
</linearGradient>
</defs>
</svg>
