<svg width="16" height="19" viewBox="0 0 16 19" fill="none" xmlns="http://www.w3.org/2000/svg">
<path d="M15.2484 11.0979C15.2484 13.0416 14.4763 14.9057 13.1019 16.2802C11.7275 17.6546 9.86336 18.4267 7.91964 18.4267C5.97593 18.4267 4.11182 17.6546 2.7374 16.2802C1.36298 14.9057 0.590843 13.0416 0.590843 11.0979C0.586824 9.49835 1.1124 7.94244 2.08558 6.67298C2.49184 6.10148 2.98508 5.59713 3.54739 5.17824C3.65826 5.10032 3.79049 5.0585 3.92601 5.0585C4.06153 5.0585 4.19375 5.10032 4.30463 5.17824C4.41701 5.26034 4.50049 5.37594 4.54308 5.50844C4.58567 5.64094 4.58518 5.78353 4.54168 5.91573C4.31691 6.77931 4.31691 7.68605 4.54168 8.54962C4.64631 8.88964 4.86083 9.18532 5.1516 9.39029C5.44237 9.59526 5.79295 9.69793 6.14835 9.68219C6.29646 9.68437 6.44327 9.65428 6.57859 9.59402C6.7139 9.53375 6.83447 9.44475 6.93194 9.33321C7.02219 9.13818 7.06894 8.92585 7.06894 8.71095C7.06894 8.49605 7.02219 8.28372 6.93194 8.08869C4.95652 1.32618 7.41262 0.187019 7.70235 0.0421551C7.80533 0.00342208 7.91637 -0.0088907 8.02533 0.0063414C8.13429 0.0215735 8.2377 0.063865 8.32611 0.129352C8.41451 0.19484 8.4851 0.281436 8.53143 0.381229C8.57775 0.481023 8.59833 0.590833 8.59129 0.700628C8.48593 1.83979 8.40033 2.74189 10.3362 3.9469L10.4482 4.00616C14.4188 6.10669 15.2484 9.02372 15.2484 11.0979Z" fill="#FDA758"/>
</svg>
