<svg width="11" height="19" viewBox="0 0 11 19" fill="none" xmlns="http://www.w3.org/2000/svg">
<path d="M1.15732 10.3754H2.86278L0.716369 17.9171C0.678964 18.043 0.671533 18.176 0.694669 18.3054C0.717805 18.4348 0.770867 18.5569 0.849619 18.6621C0.928371 18.7674 1.03063 18.8527 1.14824 18.9114C1.26584 18.97 1.39553 19.0004 1.52695 19C1.6393 19.0005 1.75061 18.9784 1.85422 18.9349C1.95784 18.8915 2.05163 18.8276 2.13002 18.7471L10.2099 10.6413C10.3385 10.5134 10.4262 10.3501 10.4618 10.1723C10.4974 9.99439 10.4793 9.80995 10.4098 9.6424C10.3403 9.47485 10.2225 9.33176 10.0714 9.23135C9.92035 9.13093 9.74282 9.07773 9.56142 9.0785H7.97268L9.91807 2.21775C9.99107 1.95885 10.0032 1.68658 9.95353 1.42222C9.90386 1.15786 9.79372 0.90857 9.63172 0.693832C9.46973 0.479095 9.26027 0.30473 9.01971 0.184368C8.77915 0.0640048 8.51402 0.000904919 8.24504 0H4.03002C3.65202 0.00192538 3.2848 0.126133 2.98324 0.354055C2.68168 0.581978 2.46198 0.901375 2.35698 1.2645L0.132752 9.04607C0.0886537 9.20233 0.0813748 9.36668 0.111487 9.52623C0.141599 9.68577 0.208282 9.83616 0.306301 9.9656C0.404319 10.095 0.531006 10.2 0.676414 10.2722C0.821822 10.3445 0.981995 10.382 1.14436 10.3819L1.15732 10.3754Z" fill="#F65B4E"/>
</svg>
