<svg width="414" height="264" viewBox="0 0 414 264" fill="none" xmlns="http://www.w3.org/2000/svg">
<path d="M121.879 99.2219C119.068 98.3991 116.943 99.9761 119.342 102.307C121.742 104.639 125.719 107.244 123.525 108.89C121.331 110.535 100.829 106.147 86.5677 100.182C72.3059 94.2166 71.1403 91.4053 66.3407 95.3136C61.541 99.2219 63.8723 104.364 75.6657 109.713C87.459 115.061 112.006 120.546 121.468 119.586C130.93 118.626 133.741 117.461 131.821 114.649C129.902 111.838 128.736 109.164 132.096 109.438C135.455 109.713 146.769 110.741 149.786 109.027C152.803 107.313 152.323 107.038 147.043 105.941C141.763 104.844 127.022 100.662 121.879 99.2219Z" fill="url(#paint0_linear_485_78)"/>
<path d="M105.766 93.8737C100.83 92.091 95.4815 89.0741 93.6987 92.091C91.9846 95.1079 100.555 99.2904 106.109 99.0162C111.663 98.7419 112.829 96.4107 105.766 93.8737Z" fill="url(#paint1_linear_485_78)"/>
<path d="M161.716 96.8221C158.631 96.685 158.699 104.227 164.459 105.256C181.326 108.273 203.542 103.267 218.146 98.8105C220.477 98.0563 220.82 101.622 216.638 104.639C212.455 107.656 205.599 109.37 209.918 111.907C214.238 114.444 237.002 106.696 244.064 99.9761C251.127 93.2567 244.887 92.1596 240.91 91.9539C236.933 91.7482 235.836 87.9085 242.35 84.5487C248.932 81.2576 266.074 72.0011 264.703 69.0528C263.331 66.1044 241.527 79.612 219.243 86.6057C187.429 96.8221 176.184 97.3021 161.716 96.8221Z" fill="url(#paint2_linear_485_78)"/>
<path d="M247.356 181.021C249.413 179.65 251.469 180.267 250.235 182.804C249.001 185.341 246.396 188.426 248.59 189.181C250.784 189.935 266.074 180.884 275.879 172.245C285.684 163.605 285.89 161.069 290.826 162.92C295.763 164.771 295.215 169.502 287.193 176.976C279.17 184.45 260.932 195.42 253.115 197.203C245.23 198.986 242.693 198.78 243.447 196.037C244.201 193.295 244.476 190.826 241.87 191.923C239.265 193.02 230.42 196.929 227.54 196.312C224.66 195.694 224.934 195.352 228.911 193.089C232.888 190.826 243.653 183.558 247.356 181.021Z" fill="url(#paint3_linear_485_78)"/>
<path d="M258.874 172.451C262.371 169.708 265.868 165.8 268.062 167.788C270.256 169.776 264.497 175.399 259.971 176.633C255.377 177.867 253.869 176.359 258.874 172.451Z" fill="#FAE1ED"/>
<path d="M214.718 189.798C217.186 188.907 219.106 194.872 214.786 197.272C202.033 204.197 182.903 206.185 169.944 206.459C167.887 206.528 168.573 209.476 172.755 210.779C176.938 212.082 182.903 211.602 180.16 214.825C177.418 218.047 157.054 217.91 149.58 214.413C142.106 210.916 146.769 208.379 149.923 207.145C153.077 205.911 152.94 202.551 146.769 201.591C140.598 200.7 124.348 197.889 124.69 195.146C125.033 192.403 146.152 197.409 165.899 197.066C194.079 196.723 203.267 194.049 214.718 189.798Z" fill="url(#paint4_linear_485_78)"/>
<path d="M268.405 81.3947C270.119 81.0519 276.907 83.3831 267.102 89.417C262.645 92.1596 257.366 95.6565 255.377 93.5995C253.389 91.5425 258.737 83.3146 268.405 81.3947Z" fill="url(#paint5_linear_485_78)"/>
<path d="M308.174 147.424C313.59 143.859 319.418 147.767 310.436 154.898C306.322 158.12 299.946 163.126 297.683 161.274C295.489 159.423 300.014 152.841 308.174 147.424Z" fill="url(#paint6_linear_485_78)"/>
<path d="M298.437 94.5594C298.574 91.7482 294.666 93.3938 288.769 97.3021C282.873 101.279 273.753 112.935 241.596 118.763C209.37 124.591 205.599 123.357 204.707 130.351C203.816 137.345 223.769 131.859 237.55 127.677C251.332 123.494 260.04 123.357 259.354 128.637C258.669 133.916 239.539 146.601 200.113 145.504C160.688 144.407 143.546 131.791 134.29 138.785C125.033 145.778 148.072 161.549 180.023 162.097C211.975 162.646 232.751 159.354 258.532 143.653C284.313 127.951 286.644 118.832 283.833 116.843C281.09 114.855 276.565 121.986 271.216 122.809C265.868 123.631 265.937 121.506 269.297 118.763C272.656 116.021 298.232 99.5648 298.437 94.5594Z" fill="url(#paint7_linear_485_78)"/>
<path d="M86.7732 145.23C83.2078 144.133 78.8195 151.264 84.442 155.72C90.0644 160.109 121.056 166.622 122.565 169.159C124.073 171.696 123.593 173.753 117.354 174.302C111.114 174.85 102.886 172.382 105.766 177.73C108.646 183.078 137.169 189.181 148.757 186.575C160.276 183.97 154.517 178.964 150.471 176.29C146.426 173.616 147.729 168.885 156.574 169.502C165.487 170.119 189.074 171.216 189.485 167.308C189.897 163.4 158.699 164.017 131.204 157.297C103.709 150.578 102.132 149.892 86.7732 145.23Z" fill="url(#paint8_linear_485_78)"/>
<path d="M102.612 137.893C104.326 139.196 104.121 143.036 97.9496 141.527C91.7786 140.019 77.3111 135.013 77.5854 131.517C77.8597 128.02 93.0814 130.694 102.612 137.893Z" fill="url(#paint9_linear_485_78)"/>
<path d="M126.062 81.4633C120.165 83.3832 138.404 91.1312 154.928 91.954C170.561 92.7768 175.429 89.2799 173.715 87.6343C172.001 85.9887 163.019 87.7029 149.991 85.5087C136.964 83.3146 130.313 80.0234 126.062 81.4633Z" fill="url(#paint10_linear_485_78)"/>
<path d="M182.149 85.9886C179.749 86.9485 180.023 90.3083 183.109 89.8283C186.194 89.3483 195.451 87.8399 198.125 86.0571C200.799 84.2744 198.742 82.286 195.108 82.766C191.405 83.3145 185.646 84.5487 182.149 85.9886Z" fill="#F47D56"/>
<path d="M189.211 199.329C186.4 202.346 142.038 177.456 136.141 170.394C136.004 170.188 135.867 169.982 135.73 169.845C132.027 163.674 127.845 103.336 134.084 102.856C142.792 102.239 186.811 117.735 188.046 127.06C188.183 128.157 188.457 131.311 188.663 135.699C189.828 154.555 191.543 196.792 189.211 199.329Z" fill="url(#paint11_linear_485_78)"/>
<path d="M189.211 199.329C186.4 202.346 142.038 177.456 136.141 170.394C139.227 168.542 142.929 166.348 147.386 163.674C167.75 151.675 186.263 130.077 186.263 130.077L188.663 135.631C189.828 154.555 191.543 196.792 189.211 199.329Z" fill="url(#paint12_linear_485_78)"/>
<path d="M188.937 199.603C188.937 199.603 216.295 197.135 231.996 194.392C247.698 191.649 256.063 191.169 257.366 187.947C258.669 184.724 258.943 160.177 257.914 142.35C256.886 124.591 256.475 117.323 252.978 115.061C249.481 112.798 185.577 121.232 185.371 123.357C185.166 125.483 183.932 128.294 184.754 142.35C185.577 156.406 186.057 183.97 186.468 187.878C186.811 191.786 186.194 199.397 188.937 199.603Z" fill="url(#paint13_linear_485_78)"/>
<path d="M134.084 102.856C134.084 102.856 153.008 109.027 164.047 114.032C175.087 119.038 184.069 122.809 185.372 123.357C186.606 123.906 219.655 120.203 229.597 119.655C239.539 119.106 252.224 117.872 253.869 115.952C255.515 114.032 209.507 98.8791 203.13 97.5078C196.754 95.9993 136.964 99.222 134.084 102.856Z" fill="url(#paint14_linear_485_78)"/>
<path d="M247.15 123.289C247.15 123.289 215.541 127.06 205.187 127.471C190.857 128.088 190.857 130.42 190.857 131.242C190.857 132.065 192.571 175.468 192.16 181.776C191.748 188.084 192.571 192.678 192.571 192.678C192.571 192.678 244.064 185.958 246.944 185.341C249.824 184.724 252.909 183.695 252.909 183.01C252.909 182.393 253.115 155.309 252.704 141.459C252.292 127.745 253.321 122.877 247.15 123.289Z" fill="#BF2726"/>
<path d="M244.887 126.374C244.887 126.374 216.089 129.802 206.627 130.214C193.6 130.762 193.6 132.888 193.6 133.642C193.6 134.396 195.177 173.959 194.765 179.719C194.422 185.478 195.108 189.661 195.108 189.661C195.108 189.661 242.007 183.558 244.613 182.941C247.218 182.393 250.098 181.433 250.098 180.816C250.098 180.199 250.304 155.583 249.892 142.967C249.618 130.42 250.51 126.031 244.887 126.374Z" fill="url(#paint15_linear_485_78)"/>
<path d="M238.853 149.892C238.853 149.892 258.874 146.875 260.177 147.013C261.48 147.15 263.605 148.384 263.948 152.018C264.359 155.583 264.496 160.452 262.302 161.617C258.805 163.537 242.144 164.84 240.567 165.183C237.756 165.868 236.179 161.069 236.041 157.503C235.904 153.938 236.521 150.784 238.853 149.892Z" fill="#D02527"/>
<path d="M238.921 149.138C238.921 149.138 258.942 146.121 260.245 146.258C261.548 146.396 263.673 147.63 264.016 151.264C264.359 154.898 263.811 158.6 261.616 159.766C258.12 161.686 242.212 163.057 240.635 163.4C237.824 164.086 236.247 160.315 236.11 156.749C235.973 153.252 236.59 150.098 238.921 149.138Z" fill="url(#paint16_linear_485_78)"/>
<path d="M238.304 150.03C237.139 150.647 237.961 151.127 241.87 150.578C245.709 150.03 259.628 148.041 260.52 147.767C261.411 147.561 261.274 146.601 260.177 146.601C259.08 146.601 248.932 148.041 246.326 148.315C243.652 148.658 239.196 149.55 238.304 150.03Z" fill="url(#paint17_linear_485_78)"/>
<path d="M282.187 165.32C282.187 165.32 281.021 168.131 280.267 168.131C279.993 168.131 278.827 166.623 277.25 164.634C274.439 161.069 270.188 155.926 267.377 154.692C262.988 152.772 258.806 154.143 257.503 157.915C256.132 161.686 259.149 166.623 261.206 169.228C262.234 170.531 263.537 172.245 264.634 173.685C265.731 175.193 266.622 176.359 266.622 176.359C266.622 176.359 266.622 178.416 265.114 178.622C263.605 178.827 263.194 177.73 263.194 177.73L258.189 170.599C258.189 170.599 248.864 157.092 258.737 152.086C270.119 146.258 282.187 165.32 282.187 165.32Z" fill="#F1AD66"/>
<path d="M277.868 161.892L277.319 164.634C274.508 161.069 270.257 155.926 267.446 154.692C263.057 152.772 258.875 154.144 257.572 157.915C256.201 161.686 259.218 166.623 261.275 169.228C262.303 170.531 263.606 172.245 264.703 173.685L264.291 173.959C264.291 173.959 262.852 174.165 260.452 170.737C258.052 167.308 255.995 163.057 256.338 159.286C256.612 155.515 260.178 151.881 265.8 152.909C271.354 154.006 277.868 161.892 277.868 161.892Z" fill="#E59745"/>
<path d="M285.89 199.809C279.102 202.963 274.851 201.111 273.068 199.946C272.382 199.466 272.04 199.123 272.04 199.123C272.04 199.123 258.532 180.199 258.738 177.182C258.738 177.182 260.863 171.628 269.023 166.211C277.182 160.794 280.542 159.56 282.667 160.657C284.793 161.754 300.22 178.279 301.043 180.267C301.18 180.61 301.317 181.021 301.317 181.501C301.797 186.644 294.529 195.832 285.89 199.809Z" fill="url(#paint18_linear_485_78)"/>
<path d="M285.89 199.809C279.102 202.963 274.851 201.111 273.068 199.946C273 199.329 272.862 194.735 281.365 186.712C290.484 178.073 299.603 178.553 301.043 180.953C301.112 181.09 301.249 181.296 301.317 181.433C301.797 186.644 294.529 195.832 285.89 199.809Z" fill="#E59745"/>
<path d="M259.697 177.525C259.697 177.525 261.686 173.068 262.92 172.794C264.154 172.519 277.045 187.878 276.565 189.044C276.153 190.209 273.753 194.529 272.999 195.832C272.313 197.135 272.931 198.986 271.559 197.203C270.257 195.42 259.286 179.513 259.697 177.525Z" fill="#EFA453"/>
<path d="M281.57 162.097C279.719 161.892 280.747 164.223 285.341 169.228C289.935 174.165 293.364 177.867 294.872 176.77C296.381 175.673 293.089 172.519 289.318 168.68C285.547 164.84 283.284 162.303 281.57 162.097Z" fill="#FDC07C"/>
<path d="M277.319 172.931C277.319 172.931 278.142 170.188 275.81 169.777C273.479 169.365 272.451 171.148 272.725 172.862C272.999 174.576 275.673 174.508 275.673 174.508C275.673 174.508 277.867 181.159 278.827 181.296C279.787 181.433 283.833 178.073 283.833 177.319C283.833 176.565 277.319 172.931 277.319 172.931Z" fill="#E59745"/>
<path d="M277.593 172.656C277.593 172.656 278.416 170.119 276.154 169.708C273.959 169.365 272.999 170.942 273.274 172.588C273.548 174.233 276.016 174.096 276.016 174.096C276.016 174.096 278.073 180.336 278.965 180.404C279.856 180.473 283.627 177.387 283.627 176.702C283.627 176.016 277.593 172.656 277.593 172.656Z" fill="url(#paint19_linear_485_78)"/>
<path d="M213.003 129.46C213.003 129.46 213.689 166.005 213.895 175.673C214.1 185.341 213.346 187.192 214.1 186.987C214.855 186.781 215.403 187.672 215.746 186.575C216.089 185.478 215.952 129.185 214.923 128.637C213.895 128.088 213.209 128.705 213.003 129.46Z" fill="#BF2726"/>
<path d="M232.682 126.58C232.682 126.58 233.368 163.126 233.573 172.794C233.779 182.53 233.025 184.313 233.779 184.107C234.465 183.901 235.082 184.793 235.425 183.696C235.768 182.599 235.63 126.306 234.602 125.757C233.505 125.209 232.888 125.826 232.682 126.58Z" fill="#BF2726"/>
<path d="M213.004 127.06L212.798 120.82L215.472 120.615V127.334C215.403 127.471 213.278 128.5 213.004 127.06Z" fill="#BF2726"/>
<path d="M232.819 125.551L232.613 119.449L235.287 119.243L235.219 125.894C235.219 125.894 233.093 126.991 232.819 125.551Z" fill="#BF2726"/>
<path d="M213.689 195.9L213.483 188.632L216.157 188.427V196.312C216.157 196.312 213.963 197.615 213.689 195.9Z" fill="#BF2726"/>
<path d="M233.093 193.089L232.888 185.958L235.562 185.753L235.493 193.501C235.493 193.501 233.368 194.803 233.093 193.089Z" fill="#BF2726"/>
<path d="M212.729 121.026L157.328 99.1535L159.179 98.8792L215.54 120.752L212.729 121.026Z" fill="#BF2726"/>
<path d="M232.614 119.38L177.692 97.645L179.887 97.5764L235.357 119.106L232.614 119.38Z" fill="#BF2726"/>
<path d="M130.93 121.437L184.823 146.807L184.755 149.824L130.93 124.729V121.437Z" fill="#BF2726"/>
<path d="M132.37 149.549L185.714 174.919L185.646 178.004L132.507 152.909L132.37 149.549Z" fill="#BF2726"/>
<path d="M256.269 153.595C256.269 153.595 256.955 153.184 258.189 154.281C259.423 155.378 258.189 156.818 258.189 156.818L264.154 154.555C264.154 154.555 264.154 152.018 263.949 150.51C263.743 149.001 262.852 148.59 262.852 148.59L255.721 151.812L256.269 153.595Z" fill="url(#paint20_linear_485_78)"/>
<path d="M256.543 153.664C256.543 153.664 257.503 153.389 258.257 154.418C259.011 155.446 258.531 156.201 258.531 156.201L258.257 156.543C258.257 156.543 258.6 156.68 259.149 156.132C259.629 155.583 259.834 154.212 258.669 153.321C257.503 152.429 256.817 152.704 256.2 153.184C255.583 153.664 255.652 154.555 255.652 154.555L256.543 153.664Z" fill="#BA2026"/>
<path d="M212.181 229.978C208.958 226.618 207.176 218.733 211.769 214.962C216.363 211.191 222.466 215.442 224.797 218.664C227.745 222.71 228.98 228.538 224.66 232.103C220.34 235.6 215.403 233.337 212.181 229.978ZM222.466 229.841C225.071 227.715 223.906 223.121 222.123 220.653C220.752 218.664 216.638 215.51 213.895 217.773C211.152 220.036 212.524 225.452 214.512 227.509C216.501 229.566 219.86 232.035 222.466 229.841Z" fill="url(#paint21_linear_485_78)"/>
<path d="M226.031 220.241L249.892 203.1C250.578 202.62 250.715 201.66 250.235 200.974L250.029 200.631C249.549 199.946 248.589 199.74 247.904 200.288L223.494 217.773C222.945 218.184 222.671 218.87 222.945 219.487C223.151 220.036 223.768 220.584 225.277 220.515C225.482 220.515 225.825 220.378 226.031 220.241Z" fill="url(#paint22_linear_485_78)"/>
<path d="M248.589 202.894L252.292 207.968L250.578 209.134L249.275 207.488L244.818 210.574L246.19 212.493L244.407 213.659L240.979 208.517L248.589 202.894Z" fill="url(#paint23_linear_485_78)"/>
<path d="M331.898 228.743C328.195 224.63 325.041 227.235 320.447 231.006C315.647 234.983 313.796 238.274 318.253 242.731C321.956 246.434 326.001 243.554 329.224 240.537C334.229 235.737 335.6 232.857 331.898 228.743ZM327.029 237.863C325.315 239.508 323.464 241.497 321.544 239.44C319.693 237.383 320.721 235.806 323.258 233.68C325.727 231.623 327.235 229.635 329.224 231.829C331.212 234.023 329.704 235.326 327.029 237.863Z" fill="url(#paint24_linear_485_78)"/>
<path d="M319.624 232.172L298.78 209.065C298.163 208.379 298.231 207.351 298.917 206.734L299.26 206.459C299.946 205.842 300.974 205.911 301.591 206.597L322.915 230.183C323.395 230.732 323.464 231.486 323.121 232.103C322.778 232.652 322.024 233.063 320.515 232.652C320.173 232.583 319.898 232.377 319.624 232.172Z" fill="url(#paint25_linear_485_78)"/>
<path d="M300.22 209.202L296.174 212.768C295.694 213.179 295.626 213.933 296.106 214.413C296.517 214.825 297.203 214.893 297.683 214.482L298.574 213.727L301.523 216.95C302.003 217.499 302.894 217.567 303.511 217.156L305.911 215.373L300.22 209.202Z" fill="url(#paint26_linear_485_78)"/>
<path d="M259.012 216.607C259.012 216.607 260.04 215.99 260.863 216.676C261.686 217.361 260.863 218.116 260.863 218.116L255.309 226.892C255.309 226.892 255.789 227.715 256.063 227.235C256.337 226.755 261.48 218.459 261.48 218.459C261.48 218.459 262.44 218.664 262.44 219.761C262.508 220.858 251.881 238 251.881 238L246.944 235.052L259.012 216.607Z" fill="url(#paint27_linear_485_78)"/>
<path d="M240.704 235.257L236.384 242.8C235.425 244.514 235.973 246.639 237.619 247.668L244.818 252.193C246.532 253.29 248.726 252.742 249.823 251.096L254.555 243.622C255.652 241.908 255.103 239.645 253.389 238.548L245.709 233.954C243.995 232.857 241.664 233.475 240.704 235.257ZM241.664 240.194L249.275 244.994C249.755 245.268 249.892 245.885 249.549 246.365L248.178 248.491C247.904 248.97 247.286 249.039 246.807 248.765L239.333 243.965C238.921 243.691 238.784 243.142 238.99 242.662L240.224 240.537C240.567 240.057 241.184 239.92 241.664 240.194Z" fill="url(#paint28_linear_485_78)"/>
<path d="M282.05 248.011C277.868 246.365 273.137 248.491 271.491 252.673C269.845 256.856 271.971 261.587 276.153 263.232C280.336 264.878 285.067 262.752 286.713 258.57C288.358 254.387 286.233 249.656 282.05 248.011ZM277.251 260.353C274.645 259.324 273.342 256.376 274.302 253.77C275.331 251.165 278.279 249.862 280.885 250.822C283.49 251.85 284.793 254.799 283.833 257.404C282.873 260.078 279.925 261.381 277.251 260.353Z" fill="url(#paint29_linear_485_78)"/>
<path d="M277.936 248.902L280.404 217.841C280.473 216.813 281.433 216.059 282.461 216.196C283.421 216.333 284.107 217.156 284.038 218.184L281.57 248.971L277.936 248.902Z" fill="url(#paint30_linear_485_78)"/>
<path d="M281.091 230.321L275.948 229.841C275.057 229.772 274.371 228.949 274.508 228.058L274.645 226.138C274.714 225.521 275.194 225.041 275.811 225.109L277.457 225.178L277.525 224.012L275.948 223.875C275.331 223.807 274.851 223.258 274.92 222.641L275.125 220.31C275.194 219.693 275.674 219.213 276.291 219.281L281.571 219.556V224.492H281.296L281.091 226.481V230.321Z" fill="url(#paint31_linear_485_78)"/>
<path d="M183.726 15.3655C185.166 14.7484 185.989 13.1713 185.646 11.6629C185.235 9.81159 185.577 7.41178 189.349 6.04046C196.068 3.57207 201.485 8.5774 199.291 16.8053C197.097 25.0333 187.086 22.5649 183.658 26.6103C181.601 29.0787 181.258 32.8498 181.326 35.4554C181.395 37.1009 182.492 38.4723 184.069 38.8837L188.251 39.9122C190.377 40.4607 192.434 39.0208 192.777 36.8952C193.12 34.564 194.011 31.9585 196.617 31.1357C201.69 29.5587 210.536 23.3191 210.261 14.1998C209.987 5.01196 200.936 -1.02186 192.708 0.143763C184.48 1.30939 181.189 6.93182 179.749 10.223C179.544 10.6344 179.406 11.1144 179.269 11.5258C178.515 14.1313 181.189 16.4625 183.726 15.3655Z" fill="url(#paint32_linear_485_78)"/>
<path d="M185.783 55.6824C189.116 55.6824 191.817 52.981 191.817 49.6486C191.817 46.3162 189.116 43.6147 185.783 43.6147C182.451 43.6147 179.75 46.3162 179.75 49.6486C179.75 52.981 182.451 55.6824 185.783 55.6824Z" fill="url(#paint33_linear_485_78)"/>
<path d="M144.232 29.8329C144.986 28.9415 145.055 27.5702 144.3 26.6788C143.409 25.5818 142.792 23.799 144.986 21.5364C148.757 17.6281 154.174 19.2737 155.408 25.6503C156.642 32.027 148.963 33.6726 147.934 37.5809C147.317 39.9807 148.346 42.6547 149.237 44.4375C149.786 45.5345 151.02 46.1516 152.254 45.8774L155.477 45.1917C157.122 44.8489 158.082 43.2033 157.534 41.6263C156.985 39.9121 156.779 37.7865 158.288 36.3467C161.236 33.5354 165.282 26.336 162.059 20.165C158.836 13.9255 150.471 13.7884 145.192 17.2852C139.912 20.8507 139.638 24.759 139.706 27.5016C139.706 27.8444 139.775 28.1873 139.844 28.5301C140.186 30.7242 142.861 31.4785 144.232 29.8329Z" fill="url(#paint34_linear_485_78)"/>
<path d="M157.054 57.328C159.591 57.328 161.648 55.2712 161.648 52.734C161.648 50.1969 159.591 48.1401 157.054 48.1401C154.517 48.1401 152.46 50.1969 152.46 52.734C152.46 55.2712 154.517 57.328 157.054 57.328Z" fill="url(#paint35_linear_485_78)"/>
<defs>
<linearGradient id="paint0_linear_485_78" x1="129.097" y1="113.025" x2="75.1387" y2="98.5399" gradientUnits="userSpaceOnUse">
<stop stop-color="#F1CCDE"/>
<stop offset="0.9946" stop-color="#FBECF4"/>
</linearGradient>
<linearGradient id="paint1_linear_485_78" x1="115.999" y1="98.1157" x2="98.4354" y2="94.4943" gradientUnits="userSpaceOnUse">
<stop stop-color="#F1CCDE"/>
<stop offset="0.9946" stop-color="#FBECF4"/>
</linearGradient>
<linearGradient id="paint2_linear_485_78" x1="253.203" y1="76.1162" x2="206.488" y2="97.4821" gradientUnits="userSpaceOnUse">
<stop stop-color="#F1CCDE"/>
<stop offset="0.9946" stop-color="#FBECF4"/>
</linearGradient>
<linearGradient id="paint3_linear_485_78" x1="259.684" y1="198.523" x2="259.973" y2="162.196" gradientUnits="userSpaceOnUse">
<stop stop-color="#F1CCDE"/>
<stop offset="0.9946" stop-color="#FBECF4"/>
</linearGradient>
<linearGradient id="paint4_linear_485_78" x1="123.426" y1="203.913" x2="175.574" y2="203.551" gradientUnits="userSpaceOnUse">
<stop stop-color="#F1CCDE"/>
<stop offset="0.9946" stop-color="#FBECF4"/>
</linearGradient>
<linearGradient id="paint5_linear_485_78" x1="264.386" y1="93.0969" x2="262.721" y2="82.2352" gradientUnits="userSpaceOnUse">
<stop stop-color="#F1CCDE"/>
<stop offset="0.9946" stop-color="#FBECF4"/>
</linearGradient>
<linearGradient id="paint6_linear_485_78" x1="307.594" y1="159.384" x2="304.421" y2="147.99" gradientUnits="userSpaceOnUse">
<stop stop-color="#F1CCDE"/>
<stop offset="0.9946" stop-color="#FBECF4"/>
</linearGradient>
<linearGradient id="paint7_linear_485_78" x1="281.301" y1="78.1907" x2="250.882" y2="101.005" gradientUnits="userSpaceOnUse">
<stop stop-color="#F1CCDE"/>
<stop offset="0.9946" stop-color="#FBECF4"/>
</linearGradient>
<linearGradient id="paint8_linear_485_78" x1="95.789" y1="163.342" x2="182.701" y2="180" gradientUnits="userSpaceOnUse">
<stop stop-color="#FDC07C"/>
<stop offset="0.9946" stop-color="#F1AD66"/>
</linearGradient>
<linearGradient id="paint9_linear_485_78" x1="78.2861" y1="137.388" x2="102.922" y2="134.4" gradientUnits="userSpaceOnUse">
<stop stop-color="#FDC07C"/>
<stop offset="0.9946" stop-color="#F1AD66"/>
</linearGradient>
<linearGradient id="paint10_linear_485_78" x1="206.183" y1="87.0771" x2="159.105" y2="86.715" gradientUnits="userSpaceOnUse">
<stop stop-color="#8B1D56"/>
<stop offset="1" stop-color="#C84799"/>
</linearGradient>
<linearGradient id="paint11_linear_485_78" x1="165.802" y1="194.379" x2="153.567" y2="73.4677" gradientUnits="userSpaceOnUse">
<stop stop-color="#C53027"/>
<stop offset="0.9946" stop-color="#D95530"/>
</linearGradient>
<linearGradient id="paint12_linear_485_78" x1="172.938" y1="176.392" x2="154.945" y2="136.327" gradientUnits="userSpaceOnUse">
<stop stop-color="#BF2726"/>
<stop offset="0.9892" stop-color="#D95530"/>
</linearGradient>
<linearGradient id="paint13_linear_485_78" x1="216.734" y1="194.414" x2="221.532" y2="154.35" gradientUnits="userSpaceOnUse">
<stop stop-color="#C53027"/>
<stop offset="0.9946" stop-color="#DA6330"/>
</linearGradient>
<linearGradient id="paint14_linear_485_78" x1="265.541" y1="164.081" x2="189.97" y2="106.143" gradientUnits="userSpaceOnUse">
<stop stop-color="#C53027"/>
<stop offset="0.9946" stop-color="#D95530"/>
</linearGradient>
<linearGradient id="paint15_linear_485_78" x1="211.058" y1="214.185" x2="221.522" y2="159.078" gradientUnits="userSpaceOnUse">
<stop stop-color="#C53027"/>
<stop offset="0.9946" stop-color="#DA6330"/>
</linearGradient>
<linearGradient id="paint16_linear_485_78" x1="250.864" y1="138.408" x2="249.065" y2="177.034" gradientUnits="userSpaceOnUse">
<stop stop-color="#C53027"/>
<stop offset="0.9946" stop-color="#D95530"/>
</linearGradient>
<linearGradient id="paint17_linear_485_78" x1="248.231" y1="155.098" x2="249.428" y2="148.791" gradientUnits="userSpaceOnUse">
<stop stop-color="#C53027"/>
<stop offset="0.9946" stop-color="#DA6330"/>
</linearGradient>
<linearGradient id="paint18_linear_485_78" x1="292.767" y1="197.662" x2="278.133" y2="178.709" gradientUnits="userSpaceOnUse">
<stop stop-color="#E59745"/>
<stop offset="0.9946" stop-color="#F1AD66"/>
</linearGradient>
<linearGradient id="paint19_linear_485_78" x1="274.508" y1="167.319" x2="278.955" y2="175.674" gradientUnits="userSpaceOnUse">
<stop stop-color="#2C3178"/>
<stop offset="0.9946" stop-color="#1C194E"/>
</linearGradient>
<linearGradient id="paint20_linear_485_78" x1="260.367" y1="145.037" x2="259.537" y2="162.862" gradientUnits="userSpaceOnUse">
<stop stop-color="#C53027"/>
<stop offset="0.9946" stop-color="#D95530"/>
</linearGradient>
<linearGradient id="paint21_linear_485_78" x1="215.708" y1="227.001" x2="248.946" y2="181.107" gradientUnits="userSpaceOnUse">
<stop stop-color="#8B1D56"/>
<stop offset="1" stop-color="#C84799"/>
</linearGradient>
<linearGradient id="paint22_linear_485_78" x1="214.25" y1="225.024" x2="260.235" y2="195.069" gradientUnits="userSpaceOnUse">
<stop stop-color="#8B1D56"/>
<stop offset="1" stop-color="#C84799"/>
</linearGradient>
<linearGradient id="paint23_linear_485_78" x1="216.202" y1="228.021" x2="262.187" y2="198.066" gradientUnits="userSpaceOnUse">
<stop stop-color="#8B1D56"/>
<stop offset="1" stop-color="#C84799"/>
</linearGradient>
<linearGradient id="paint24_linear_485_78" x1="306.696" y1="210.154" x2="325.698" y2="236.695" gradientUnits="userSpaceOnUse">
<stop stop-color="#F3704A"/>
<stop offset="1" stop-color="#F7915D"/>
</linearGradient>
<linearGradient id="paint25_linear_485_78" x1="300.212" y1="204.735" x2="325.887" y2="240.596" gradientUnits="userSpaceOnUse">
<stop stop-color="#F3704A"/>
<stop offset="1" stop-color="#F7915D"/>
</linearGradient>
<linearGradient id="paint26_linear_485_78" x1="295.895" y1="207.835" x2="321.514" y2="243.619" gradientUnits="userSpaceOnUse">
<stop stop-color="#F3704A"/>
<stop offset="1" stop-color="#F7915D"/>
</linearGradient>
<linearGradient id="paint27_linear_485_78" x1="238.18" y1="249.385" x2="264.731" y2="215.492" gradientUnits="userSpaceOnUse">
<stop stop-color="#FDC07C"/>
<stop offset="0.9946" stop-color="#F1AD66"/>
</linearGradient>
<linearGradient id="paint28_linear_485_78" x1="239.535" y1="250.447" x2="266.086" y2="216.553" gradientUnits="userSpaceOnUse">
<stop stop-color="#FDC07C"/>
<stop offset="0.9946" stop-color="#F1AD66"/>
</linearGradient>
<linearGradient id="paint29_linear_485_78" x1="275.187" y1="325.225" x2="272.929" y2="365.323" gradientUnits="userSpaceOnUse">
<stop stop-color="#292A69"/>
<stop offset="0.9946" stop-color="#1C194E"/>
</linearGradient>
<linearGradient id="paint30_linear_485_78" x1="301.912" y1="432.137" x2="306.126" y2="472.076" gradientUnits="userSpaceOnUse">
<stop stop-color="#292A69"/>
<stop offset="0.9946" stop-color="#1C194E"/>
</linearGradient>
<linearGradient id="paint31_linear_485_78" x1="299.745" y1="429.677" x2="303.903" y2="469.09" gradientUnits="userSpaceOnUse">
<stop stop-color="#292A69"/>
<stop offset="0.9946" stop-color="#1C194E"/>
</linearGradient>
<linearGradient id="paint32_linear_485_78" x1="193.404" y1="34.0896" x2="195.599" y2="-1.36226" gradientUnits="userSpaceOnUse">
<stop stop-color="#292A69"/>
<stop offset="0.9946" stop-color="#1C194E"/>
</linearGradient>
<linearGradient id="paint33_linear_485_78" x1="186.759" y1="33.763" x2="188.924" y2="-1.20196" gradientUnits="userSpaceOnUse">
<stop stop-color="#292A69"/>
<stop offset="0.9946" stop-color="#1C194E"/>
</linearGradient>
<linearGradient id="paint34_linear_485_78" x1="370.837" y1="287.805" x2="406.307" y2="329.938" gradientUnits="userSpaceOnUse">
<stop stop-color="#FDC07C"/>
<stop offset="0.9946" stop-color="#F1AD66"/>
</linearGradient>
<linearGradient id="paint35_linear_485_78" x1="361.531" y1="295.64" x2="397.001" y2="337.773" gradientUnits="userSpaceOnUse">
<stop stop-color="#FDC07C"/>
<stop offset="0.9946" stop-color="#F1AD66"/>
</linearGradient>
</defs>
</svg>
