<svg width="24" height="24" viewBox="0 0 24 24" fill="none" xmlns="http://www.w3.org/2000/svg">
<g filter="url(#filter0_d_734_5189)">
<path d="M5.31889 14.5035L4.48349 17.6222L1.4301 17.6868C0.517593 15.9942 0 14.0579 0 12C0 10.0101 0.483931 8.13361 1.34174 6.48126L4.06078 6.97973L5.25159 9.68172C5.0023 10.4084 4.86644 11.1884 4.86644 12C4.86655 12.8809 5.02609 13.7249 5.31889 14.5035Z" fill="#FBBB00"/>
</g>
<g filter="url(#filter1_d_734_5189)">
<path d="M23.7902 9.7583C23.9279 10.4841 23.9998 11.2339 23.9998 12C23.9998 12.8591 23.9094 13.6971 23.7374 14.5055C23.1532 17.2563 21.6269 19.6583 19.5124 21.358L16.0878 21.1827L15.6032 18.1576C17.0063 17.3348 18.1028 16.047 18.6804 14.5055H12.2637V9.7583H18.774H23.7902Z" fill="#518EF8"/>
</g>
<g filter="url(#filter2_d_734_5189)">
<path d="M19.5118 21.3574C17.4553 23.0103 14.8437 24 12 24C7.43013 24 3.45701 21.4457 1.43018 17.6868L5.31898 14.5035C6.33229 17.2081 8.94129 19.1334 12 19.1334C13.3147 19.1334 14.5464 18.778 15.6032 18.1575L19.5118 21.3574Z" fill="#28B446"/>
</g>
<g filter="url(#filter3_d_734_5189)">
<path d="M19.66 2.76263L15.7725 5.94526C14.6787 5.26154 13.3857 4.86657 12.0005 4.86657C8.87258 4.86657 6.21475 6.88018 5.25215 9.68172L1.34294 6.48137C3.34012 2.63077 7.36267 0 12.0005 0C14.9121 0 17.5817 1.03716 19.66 2.76263Z" fill="#F14336"/>
</g>
<defs>
<filter id="filter0_d_734_5189" x="-8" y="2.48126" width="21.3188" height="27.2055" filterUnits="userSpaceOnUse" color-interpolation-filters="sRGB">
<feFlood flood-opacity="0" result="BackgroundImageFix"/>
<feColorMatrix in="SourceAlpha" type="matrix" values="0 0 0 0 0 0 0 0 0 0 0 0 0 0 0 0 0 0 127 0" result="hardAlpha"/>
<feOffset dy="4"/>
<feGaussianBlur stdDeviation="4"/>
<feColorMatrix type="matrix" values="0 0 0 0 0.984314 0 0 0 0 0.733333 0 0 0 0 0 0 0 0 0.12 0"/>
<feBlend mode="normal" in2="BackgroundImageFix" result="effect1_dropShadow_734_5189"/>
<feBlend mode="normal" in="SourceGraphic" in2="effect1_dropShadow_734_5189" result="shape"/>
</filter>
<filter id="filter1_d_734_5189" x="4.26367" y="5.7583" width="27.7363" height="27.5997" filterUnits="userSpaceOnUse" color-interpolation-filters="sRGB">
<feFlood flood-opacity="0" result="BackgroundImageFix"/>
<feColorMatrix in="SourceAlpha" type="matrix" values="0 0 0 0 0 0 0 0 0 0 0 0 0 0 0 0 0 0 127 0" result="hardAlpha"/>
<feOffset dy="4"/>
<feGaussianBlur stdDeviation="4"/>
<feColorMatrix type="matrix" values="0 0 0 0 0.317647 0 0 0 0 0.556863 0 0 0 0 0.972549 0 0 0 0.12 0"/>
<feBlend mode="normal" in2="BackgroundImageFix" result="effect1_dropShadow_734_5189"/>
<feBlend mode="normal" in="SourceGraphic" in2="effect1_dropShadow_734_5189" result="shape"/>
</filter>
<filter id="filter2_d_734_5189" x="-6.56982" y="10.5035" width="34.0815" height="25.4965" filterUnits="userSpaceOnUse" color-interpolation-filters="sRGB">
<feFlood flood-opacity="0" result="BackgroundImageFix"/>
<feColorMatrix in="SourceAlpha" type="matrix" values="0 0 0 0 0 0 0 0 0 0 0 0 0 0 0 0 0 0 127 0" result="hardAlpha"/>
<feOffset dy="4"/>
<feGaussianBlur stdDeviation="4"/>
<feColorMatrix type="matrix" values="0 0 0 0 0.156863 0 0 0 0 0.705882 0 0 0 0 0.27451 0 0 0 0.12 0"/>
<feBlend mode="normal" in2="BackgroundImageFix" result="effect1_dropShadow_734_5189"/>
<feBlend mode="normal" in="SourceGraphic" in2="effect1_dropShadow_734_5189" result="shape"/>
</filter>
<filter id="filter3_d_734_5189" x="-6.65723" y="-4" width="34.3174" height="25.6817" filterUnits="userSpaceOnUse" color-interpolation-filters="sRGB">
<feFlood flood-opacity="0" result="BackgroundImageFix"/>
<feColorMatrix in="SourceAlpha" type="matrix" values="0 0 0 0 0 0 0 0 0 0 0 0 0 0 0 0 0 0 127 0" result="hardAlpha"/>
<feOffset dy="4"/>
<feGaussianBlur stdDeviation="4"/>
<feColorMatrix type="matrix" values="0 0 0 0 0.945098 0 0 0 0 0.262745 0 0 0 0 0.211765 0 0 0 0.12 0"/>
<feBlend mode="normal" in2="BackgroundImageFix" result="effect1_dropShadow_734_5189"/>
<feBlend mode="normal" in="SourceGraphic" in2="effect1_dropShadow_734_5189" result="shape"/>
</filter>
</defs>
</svg>
