<svg width="399" height="399" viewBox="0 0 399 399" fill="none" xmlns="http://www.w3.org/2000/svg">
<path d="M278.964 166.472C282.763 165.853 285.236 168.238 281.703 171.242C278.169 174.245 272.604 177.16 275.078 179.81C277.639 182.46 305.111 179.545 324.544 173.362C344.066 167.178 346.098 163.38 351.663 169.652C357.228 175.923 353.253 182.813 336.999 188.467C320.746 194.12 287.974 198.007 275.784 195.18C263.594 192.353 260.149 190.233 263.153 186.612C266.156 182.99 268.099 179.368 263.683 179.28C259.266 179.192 244.426 178.838 240.716 175.923C237.094 172.92 237.801 172.655 244.868 171.948C252.199 171.153 272.074 167.62 278.964 166.472Z" fill="url(#paint0_linear_575_1142)"/>
<path d="M300.871 161.437C307.585 159.758 315.093 156.225 316.771 160.818C318.538 165.323 306.613 169.828 299.458 168.592C292.303 167.355 291.155 163.91 300.871 161.437Z" fill="url(#paint1_linear_575_1142)"/>
<path d="M227.643 156.667C231.706 157.02 230.293 167.532 222.608 168.062C200.171 169.652 172.17 159.052 153.973 150.395C151.058 148.982 149.998 154.017 154.945 158.875C159.803 163.822 168.371 167.355 162.453 170.27C156.446 173.185 128.18 158.61 120.141 148.098C112.103 137.587 120.406 136.88 125.618 137.233C130.83 137.587 132.95 132.287 125 126.633C117.05 120.98 96.2914 105.168 98.6764 101.282C101.061 97.3067 126.943 119.832 154.68 133.347C194.253 152.603 208.74 155.077 227.643 156.667Z" fill="url(#paint2_linear_575_1142)"/>
<path d="M88.4298 248.092C84.3665 243.675 80.4798 237.58 77.2998 240.053C74.1198 242.527 80.5682 251.36 86.3098 253.833C92.0515 256.307 94.2598 254.452 88.4298 248.092Z" fill="#F9E0EC"/>
<path d="M91.7864 117.888C89.578 117.093 80.4797 119.302 92.0514 129.372C97.3514 133.965 103.535 139.795 106.538 137.145C109.541 134.583 103.976 122.217 91.7864 117.888Z" fill="url(#paint3_linear_575_1142)"/>
<path d="M67.6715 204.985C59.4565 199.155 50.7115 205.692 64.4032 217.352C70.6748 222.652 75.8865 225.743 79.2432 222.652C82.5115 219.56 80.1265 213.818 67.6715 204.985Z" fill="url(#paint4_linear_575_1142)"/>
<path d="M360.585 152.78C366.68 147.127 359.878 138.205 351.398 144.565C347.688 147.215 341.858 153.133 344.067 157.108C346.275 160.995 353.518 159.14 360.585 152.78Z" fill="url(#paint5_linear_575_1142)"/>
<path d="M82.3346 144.918C86.4863 147.745 90.8146 142.533 85.9563 138.382C83.9246 136.527 81.5396 135.908 79.508 137.675C77.4763 139.53 77.653 141.65 82.3346 144.918Z" fill="url(#paint6_linear_575_1142)"/>
<path d="M50.5347 131.845C50.888 127.87 55.658 130.785 62.6364 137.233C69.6147 143.77 79.4197 161.702 120.23 175.04C161.04 188.378 166.163 187.23 166.163 197.3C166.163 207.37 141.076 196.417 123.94 188.29C106.803 180.163 95.4964 178.662 95.408 186.17C95.408 193.678 118.021 214.702 169.431 219.472C220.841 224.242 245.221 209.137 255.998 220.443C266.775 231.838 234.18 250.388 192.663 246.06C151.058 241.82 124.735 233.87 93.9063 207.547C63.078 181.223 61.753 167.973 65.6397 165.765C69.5264 163.38 74.208 174.157 81.0097 176.188C87.8114 178.22 88.0764 175.217 84.1897 170.8C80.303 166.383 49.9164 138.912 50.5347 131.845Z" fill="url(#paint7_linear_575_1142)"/>
<path d="M307.232 217.882C304.758 219.472 302.373 226.627 310.677 225.39C325.252 223.8 354.843 208.518 353.872 199.067C353.96 194.208 320.835 209.313 307.232 217.882Z" fill="url(#paint8_linear_575_1142)"/>
<path d="M318.891 235.637C323.75 234.488 328.52 245.088 320.746 250.742C298.575 265.582 271.28 263.903 268.983 267.348C266.686 270.793 267.57 272.03 275.696 273.443C283.823 274.857 302.726 270.263 298.31 277.507C293.893 284.75 245.575 291.728 222.696 282.542C208.21 276.8 226.671 276.005 232.236 272.56C237.801 269.203 236.741 262.313 224.993 262.225C213.333 262.137 182.946 257.72 182.858 252.155C182.77 246.502 223.491 257.985 260.061 251.448C296.631 244.912 297.868 242.615 318.891 235.637Z" fill="url(#paint9_linear_575_1142)"/>
<path d="M202.998 138.117C205.913 139.795 204.941 144.565 201.055 143.417C197.168 142.268 185.42 138.647 182.24 135.732C179.06 132.817 182.151 130.343 186.745 131.58C191.426 132.817 198.67 135.555 202.998 138.117Z" fill="#F37D56"/>
<path d="M248.931 335.453H227.466C225.435 335.453 223.845 333.863 223.845 331.832V307.893C223.845 305.862 225.435 304.272 227.466 304.272H248.931C250.963 304.272 252.553 305.862 252.553 307.893V331.832C252.553 333.863 250.963 335.453 248.931 335.453Z" fill="url(#paint10_linear_575_1142)"/>
<path d="M282.145 335.453H260.68C258.648 335.453 257.058 333.863 257.058 331.832V307.893C257.058 305.862 258.648 304.272 260.68 304.272H282.145C284.176 304.272 285.766 305.862 285.766 307.893V331.832C285.766 333.863 284.176 335.453 282.145 335.453Z" fill="#FAA65A"/>
<path d="M268.983 329.182C268.63 329.182 268.188 329.005 267.923 328.74L261.475 322.115C260.945 321.585 260.945 320.613 261.475 320.083C262.005 319.553 262.976 319.553 263.506 320.083L268.806 325.472L279.76 311.25C280.201 310.632 281.173 310.543 281.791 310.985C282.41 311.427 282.498 312.398 282.056 313.017L270.131 328.563C269.866 329.005 269.513 329.182 268.983 329.182C269.071 329.182 268.983 329.182 268.983 329.182Z" fill="white"/>
<path d="M315.358 335.453H293.893C291.861 335.453 290.271 333.863 290.271 331.832V307.893C290.271 305.862 291.861 304.272 293.893 304.272H315.358C317.39 304.272 318.98 305.862 318.98 307.893V331.832C318.98 333.863 317.301 335.453 315.358 335.453Z" fill="url(#paint11_linear_575_1142)"/>
<path d="M190.189 345.612C188.864 345.612 187.628 345.347 186.656 344.905C182.504 342.962 165.544 278.39 162.364 269.468C159.184 260.547 150.969 232.722 150.263 225.39C149.998 222.033 150.263 218.323 151.588 215.497C153.178 212.052 156.181 209.843 161.393 211.257C171.993 214.083 177.116 239.877 180.738 259.045C183.476 273.62 197.609 331.39 198.581 338.015C199.288 343.227 194.341 345.612 190.189 345.612Z" fill="url(#paint12_linear_575_1142)"/>
<path d="M190.189 345.612C188.864 345.612 186.568 346.23 185.596 345.7C181.444 343.757 165.544 278.39 162.453 269.468C159.273 260.547 151.058 232.722 150.351 225.39C150.086 222.033 150.351 218.323 151.676 215.497C155.828 229.1 187.893 335.718 189.306 341.283C189.571 342.962 189.924 344.375 190.189 345.612Z" fill="#F69241"/>
<path d="M198.669 343.403C198.669 343.403 198.051 345.7 195.754 346.937C193.546 348.173 189.306 347.202 189.306 347.202C189.306 347.202 190.013 349.587 187.009 350.293C184.006 351 180.296 349.057 180.208 345.082C180.119 341.107 183.034 340.047 184.624 340.047C186.214 340.047 187.539 340.4 187.539 340.4C187.539 340.4 188.158 338.633 190.543 337.75C192.928 336.867 194.783 337.485 194.783 337.485C194.783 337.485 195.666 334.57 199.376 333.775C203.086 332.98 205.029 337.397 204.411 340.488C203.793 343.58 200.966 343.668 198.669 343.403Z" fill="url(#paint13_linear_575_1142)"/>
<path d="M95.4077 212.67C89.931 213.377 84.4543 219.383 79.2426 238.022C74.031 256.66 69.4376 271.942 71.0276 279.892C72.6176 287.842 78.6243 288.283 86.0443 286.87C93.4643 285.457 101.856 245 104.948 233.428C107.863 221.945 105.389 211.257 95.4077 212.67Z" fill="url(#paint14_linear_575_1142)"/>
<path d="M79.5077 266.553C79.1544 266.553 78.801 266.288 78.6244 265.935C78.4477 265.405 78.6243 264.875 79.1543 264.698L89.136 260.723L82.776 258.427C82.246 258.25 82.0693 257.72 82.246 257.19C82.4227 256.66 82.9527 256.483 83.4827 256.66L92.1393 259.84C92.4927 260.017 92.7577 260.37 92.7577 260.723C92.7577 261.077 92.4927 261.518 92.1393 261.607L79.7727 266.553C79.7727 266.553 79.596 266.553 79.5077 266.553Z" fill="#F3802A"/>
<path d="M118.11 204.808L132.42 205.162L132.862 183.078L118.64 182.725L118.11 204.808Z" fill="url(#paint15_linear_575_1142)"/>
<path d="M142.313 136.615C142.313 136.615 136.395 158.875 133.745 178.485C131.095 198.007 131.272 199.332 133.568 200.833C137.632 203.395 145.14 197.83 145.14 197.83C145.14 197.83 148.32 202.247 152.207 198.625C156.093 195.003 155.917 192.265 155.917 192.265C155.917 192.265 158.832 196.152 161.217 190.852C163.513 185.552 160.598 166.56 156.182 153.575C152.913 144.388 142.313 136.615 142.313 136.615Z" fill="url(#paint16_linear_575_1142)"/>
<path d="M145.582 197.476C145.405 197.653 145.14 197.653 144.963 197.476C144.61 197.211 144.522 196.593 144.698 196.151C144.698 196.151 145.758 193.236 146.023 190.586C146.2 187.848 146.023 185.375 146.023 185.375C146.023 184.845 146.2 184.315 146.553 184.315C146.907 184.226 147.26 184.668 147.26 185.198C147.26 185.286 147.437 187.848 147.26 190.851C146.995 193.943 145.847 197.035 145.847 197.123C145.758 197.211 145.67 197.388 145.582 197.476Z" fill="#600B32"/>
<path d="M156.182 192.265C156.005 192.442 155.828 192.442 155.563 192.265C155.21 192 155.122 191.47 155.298 190.94C155.298 190.94 155.917 189.173 155.917 187.407C156.005 185.552 155.828 183.962 155.828 183.962C155.74 183.432 156.005 182.902 156.358 182.813C156.712 182.725 157.065 183.078 157.065 183.608C157.065 183.697 157.242 185.375 157.153 187.407C157.065 189.527 156.447 191.558 156.358 191.647C156.358 192.088 156.27 192.177 156.182 192.265Z" fill="#600B32"/>
<path d="M150.97 156.932C151.235 155.607 152.648 154.812 153.973 155.342C155.74 156.048 157.86 157.727 158.302 161.613C159.097 168.503 155.033 172.567 152.118 173.627C151.323 173.98 150.528 174.068 149.91 174.068C148.585 174.068 147.613 172.743 147.878 171.418L150.97 156.932Z" fill="url(#paint17_linear_575_1142)"/>
<path d="M152.206 160.818C152.383 160.023 153.178 159.582 153.973 159.847C155.033 160.288 156.27 161.26 156.535 163.557C156.976 167.532 154.591 169.917 152.913 170.623C152.471 170.8 152.03 170.888 151.588 170.888C150.793 170.888 150.263 170.093 150.351 169.298L152.206 160.818Z" fill="url(#paint18_linear_575_1142)"/>
<path d="M99.295 145.713C99.295 145.713 93.5533 166.03 90.9033 175.482C88.2533 184.845 88.165 191.382 92.405 194.297C96.645 197.212 100.443 191.558 100.443 191.558C100.443 191.558 101.238 198.36 103.888 200.215C106.538 202.07 109.277 198.272 109.277 198.272C109.277 198.272 117.05 206.928 121.555 199.773C123.41 196.77 118.11 171.153 115.46 158.345C112.81 145.625 99.295 145.713 99.295 145.713Z" fill="url(#paint19_linear_575_1142)"/>
<path d="M109.453 197.477C109.63 197.653 109.895 197.653 110.071 197.477C110.425 197.212 110.513 196.593 110.336 196.152C110.336 196.152 109.276 193.237 109.011 190.587C108.835 187.848 109.011 185.375 109.011 185.375C109.011 184.845 108.835 184.315 108.481 184.315C108.128 184.227 107.775 184.668 107.775 185.198C107.775 185.287 107.598 187.848 107.775 190.852C108.04 193.943 109.188 197.035 109.276 197.123C109.276 197.212 109.365 197.388 109.453 197.477Z" fill="#600B32"/>
<path d="M100.09 191.205C100.267 191.382 100.443 191.382 100.708 191.205C101.062 190.94 101.15 190.41 100.973 189.88C100.973 189.88 100.355 188.113 100.355 186.347C100.267 184.492 100.443 182.902 100.443 182.902C100.532 182.372 100.267 181.842 99.9135 181.753C99.5601 181.665 99.2068 182.018 99.2068 182.548C99.2068 182.637 99.0302 184.315 99.1185 186.347C99.2068 188.467 99.8251 190.498 99.9135 190.587C99.9135 190.94 100.002 191.117 100.09 191.205Z" fill="#600B32"/>
<path d="M99.6481 156.932C99.3831 155.607 97.9698 154.812 96.6448 155.342C94.8781 156.048 92.7581 157.727 92.3165 161.613C91.5215 168.503 95.5848 172.567 98.4998 173.627C99.2948 173.98 100.09 174.068 100.708 174.068C102.033 174.068 103.005 172.743 102.74 171.418L99.6481 156.932Z" fill="url(#paint20_linear_575_1142)"/>
<path d="M98.3233 160.818C98.1466 160.023 97.3516 159.582 96.5566 159.847C95.4966 160.288 94.26 161.26 93.995 163.557C93.5533 167.532 95.9383 169.917 97.6167 170.623C98.0583 170.8 98.5 170.888 98.9417 170.888C99.7367 170.888 100.267 170.093 100.178 169.298L98.3233 160.818Z" fill="url(#paint21_linear_575_1142)"/>
<path d="M105.125 178.308C111.485 192.265 123.763 195.71 135.07 190.498C146.376 185.287 151.058 164.882 150.705 152.78C150.351 140.678 143.638 126.81 127.826 125.75C113.428 124.778 105.125 128.93 101.503 138.647C101.15 139.53 100.885 140.502 100.62 141.473C100.62 141.473 100.09 145.625 99.7365 151.367C99.2948 159.847 102.21 171.948 105.125 178.308Z" fill="url(#paint22_linear_575_1142)"/>
<path d="M99.5601 155.695C99.9134 155.783 100.885 155.871 101.238 155.783C104.153 155.43 109.277 150.395 109.365 150.748C109.365 151.101 110.16 154.9 114.665 153.221C119.17 151.543 121.378 147.126 121.378 147.126C121.378 147.126 123.057 147.126 127.208 148.098C131.36 149.07 140.812 148.628 140.812 148.628C140.812 148.628 130.212 141.12 130.123 140.678C129.947 140.236 125.265 140.148 125.265 140.148C125.265 140.148 118.993 138.381 116.52 137.675C114.047 136.968 103.623 140.06 103.623 140.06C103.623 140.06 102.917 141.296 101.857 142.886C101.503 143.77 101.238 144.741 100.973 145.713C101.062 145.978 99.9134 149.953 99.5601 155.695Z" fill="url(#paint23_linear_575_1142)"/>
<path d="M122.262 143.505C122.262 143.505 117.58 151.278 113.605 152.515C109.63 153.752 109.718 148.363 109.718 148.363C109.718 148.363 103.005 154.282 99.1184 154.9C95.2317 155.518 97.9701 144.477 100.797 140.59C103.623 136.703 128.445 131.403 122.262 143.505Z" fill="url(#paint24_linear_575_1142)"/>
<path d="M145.935 149.158L148.055 170.977L152.472 152.957C152.472 152.957 149.027 150.218 145.935 149.158Z" fill="#600B32"/>
<path d="M104.86 147.745L102.74 171.418L96.645 150.483C96.645 150.572 101.768 148.805 104.86 147.745Z" fill="#600B32"/>
<path d="M160.334 152.78C160.599 155.607 157.684 157.55 155.299 156.137C149.38 152.868 134.275 145.36 119.435 146.243C100.444 147.392 97.4402 152.78 95.3202 151.808C91.1685 149.953 93.7302 143.152 94.4369 141.827C95.1435 140.502 96.0269 117.358 119.259 110.115C142.49 102.872 153.444 113.472 155.387 118.507C158.39 126.457 153.267 131.58 153.444 135.113C153.62 138.647 158.39 146.243 159.185 147.922C159.45 148.717 160.157 150.748 160.334 152.78Z" fill="url(#paint25_linear_575_1142)"/>
<path d="M158.743 149.6C158.832 149.6 158.92 149.512 159.008 149.424C159.273 149.07 159.185 148.629 158.832 148.364C158.39 147.922 147.613 138.205 128.975 136.35C110.425 134.495 96.2033 140.502 96.0267 140.59C95.6733 140.767 95.4966 141.209 95.6733 141.562C95.85 142.004 96.2916 142.18 96.645 142.004C96.8216 141.915 110.778 136.085 128.975 137.852C147.083 139.619 157.86 149.335 157.948 149.512C158.213 149.6 158.567 149.689 158.743 149.6Z" fill="#CB2527"/>
<path d="M152.648 153.928C152.825 153.84 152.913 153.752 153.002 153.487C153.002 153.398 153.62 151.543 153.973 148.982C154.327 146.42 154.238 145.625 154.238 145.448C154.15 145.007 153.797 144.742 153.443 144.742C153.09 144.742 152.825 145.183 152.913 145.625C152.913 145.625 153.002 146.332 152.648 148.54C152.295 151.013 151.677 152.868 151.677 152.868C151.588 153.222 151.765 153.752 152.118 153.928C152.295 154.017 152.472 154.017 152.648 153.928Z" fill="#CB2527"/>
<path d="M144.169 149.423C144.345 149.335 144.434 149.158 144.522 148.982L146.465 141.385C146.554 140.943 146.377 140.502 145.935 140.413C145.582 140.237 145.14 140.502 145.052 140.855L143.109 148.452C143.02 148.893 143.197 149.335 143.639 149.423C143.815 149.512 143.992 149.512 144.169 149.423Z" fill="#CB2527"/>
<path d="M134.628 146.95C134.805 146.862 134.982 146.685 134.982 146.42L136.218 138.293C136.307 137.852 136.042 137.41 135.6 137.322C135.247 137.233 134.805 137.41 134.805 137.852L133.568 145.978C133.48 146.42 133.745 146.862 134.187 146.95C134.363 146.95 134.54 146.95 134.628 146.95Z" fill="#CB2527"/>
<path d="M125.707 145.36C125.883 145.272 126.06 145.095 126.06 144.83L127.12 136.968C127.208 136.527 126.943 136.085 126.502 135.997C126.148 135.908 125.795 136.173 125.707 136.527L124.647 144.388C124.558 144.83 124.823 145.272 125.265 145.36C125.353 145.448 125.53 145.448 125.707 145.36Z" fill="#CB2527"/>
<path d="M114.93 145.183C115.107 145.095 115.283 144.918 115.283 144.742L116.785 137.233C116.873 136.792 116.608 136.35 116.255 136.262C115.902 136.085 115.46 136.35 115.372 136.792L113.87 144.3C113.782 144.742 114.047 145.183 114.4 145.272C114.665 145.272 114.842 145.272 114.93 145.183Z" fill="#CB2527"/>
<path d="M104.948 146.597C105.125 146.508 105.302 146.332 105.302 146.155L106.892 138.735C106.98 138.293 106.715 137.852 106.362 137.763C106.008 137.587 105.567 137.852 105.478 138.293L103.888 145.713C103.8 146.155 104.065 146.597 104.418 146.685C104.595 146.597 104.772 146.597 104.948 146.597Z" fill="#CB2527"/>
<path d="M98.2351 149.158C98.4118 149.07 98.5884 148.893 98.5884 148.628L99.6484 140.413C99.7368 139.972 99.4718 139.53 99.0301 139.442C98.6768 139.353 98.3234 139.618 98.2351 139.972L97.1751 148.187C97.0868 148.628 97.3518 149.07 97.7935 149.158C97.9701 149.247 98.1468 149.158 98.2351 149.158Z" fill="#CB2527"/>
<path d="M126.678 205.25C102.651 206.222 91.8744 212.67 90.7261 219.295C89.5778 225.92 87.5461 318.847 85.6028 333.333C83.6594 347.82 88.0761 352.943 109.276 356.388C134.716 360.54 153.619 357.183 160.421 354.357C169.784 350.382 171.728 347.732 171.374 339.782C171.374 338.81 167.046 275.033 164.838 248.622C162.629 222.298 166.869 214.083 161.216 210.727C154.768 206.928 151.411 204.278 126.678 205.25Z" fill="url(#paint26_linear_575_1142)"/>
<path d="M136.306 209.755H116.784C114.929 209.755 113.428 208.253 113.428 206.398V201.717C113.428 199.862 114.929 198.36 116.784 198.36H136.306C138.161 198.36 139.663 199.862 139.663 201.717V206.398C139.663 208.253 138.161 209.755 136.306 209.755Z" fill="url(#paint27_linear_575_1142)"/>
<path d="M138.515 208.077C138.426 208.077 138.426 208.165 138.338 208.165C138.073 208.253 131.978 210.285 125.795 210.285C119.611 210.373 114.93 208.783 114.753 208.695C114.311 208.518 114.046 207.988 114.135 207.547C114.311 207.017 114.753 206.752 115.283 206.928C115.371 206.928 119.876 208.43 125.795 208.43C131.713 208.342 137.72 206.398 137.808 206.398C138.25 206.222 138.78 206.487 138.956 207.017C139.133 207.37 138.868 207.9 138.515 208.077Z" fill="#F3802A"/>
<path d="M118.463 209.313C118.286 209.402 118.198 209.49 118.021 209.402C117.491 209.313 117.138 208.783 117.226 208.165L117.58 201.805C117.58 201.187 118.021 200.657 118.551 200.745C119.081 200.833 119.435 201.363 119.346 201.982L118.993 208.342C118.905 208.783 118.728 209.137 118.463 209.313Z" fill="#F3802A"/>
<path d="M124.47 210.02C124.381 210.108 124.205 210.197 124.028 210.197C123.498 210.197 123.145 209.667 123.145 209.048V201.54C123.145 200.922 123.586 200.392 124.028 200.392C124.558 200.392 124.911 200.922 124.911 201.54V209.048C124.911 209.402 124.735 209.755 124.47 210.02Z" fill="#F3802A"/>
<path d="M130.388 209.49C130.3 209.578 130.123 209.667 129.946 209.667C129.416 209.667 129.063 209.225 129.063 208.518L128.798 200.833C128.798 200.215 129.151 199.597 129.681 199.597C130.211 199.597 130.565 200.038 130.565 200.745L130.83 208.43C130.83 208.872 130.653 209.313 130.388 209.49Z" fill="#F3802A"/>
<path d="M135.953 208.342C135.865 208.43 135.776 208.43 135.6 208.43C135.07 208.518 134.716 208.077 134.628 207.37L134.098 201.275C134.01 200.657 134.363 200.038 134.893 199.95C135.423 199.862 135.776 200.303 135.865 201.01L136.395 207.105C136.483 207.723 136.218 208.165 135.953 208.342Z" fill="#F3802A"/>
<path d="M128.445 351.177C100.531 351.177 87.1929 343.05 86.6629 342.697C86.2213 342.432 86.0446 341.813 86.3979 341.372C86.6629 340.93 87.2813 340.753 87.7229 341.107C87.8996 341.195 102.828 350.293 133.745 349.233C164.043 348.173 168.813 341.637 168.901 341.548C169.166 341.107 169.785 341.018 170.226 341.283C170.668 341.548 170.756 342.167 170.491 342.608C170.315 342.873 165.545 350.028 133.833 351.177C131.89 351.177 130.211 351.177 128.445 351.177Z" fill="#F3802A"/>
<path d="M89.9311 348.88C89.3128 348.88 88.9595 348.438 88.9595 347.908L89.2245 343.492C89.2245 342.962 89.6661 342.52 90.1961 342.608C90.7261 342.608 91.1678 343.05 91.0795 343.58L90.8145 347.997C90.9028 348.527 90.4611 348.88 89.9311 348.88Z" fill="#F3802A"/>
<path d="M96.5561 351.707C96.5561 351.707 96.4678 351.707 96.5561 351.707C95.9378 351.707 95.5845 351.265 95.5845 350.735L95.8495 346.318C95.8495 345.788 96.2911 345.435 96.8211 345.435C97.3511 345.435 97.7928 345.877 97.7045 346.407L97.4395 350.823C97.4395 351.265 97.0861 351.707 96.5561 351.707Z" fill="#F3802A"/>
<path d="M105.036 353.562C104.948 353.562 104.948 353.562 105.036 353.562C104.418 353.562 104.064 353.12 104.064 352.59L104.329 348.173C104.329 347.643 104.771 347.29 105.301 347.29C105.831 347.29 106.273 347.732 106.184 348.262L105.919 352.678C105.919 353.208 105.478 353.562 105.036 353.562Z" fill="#F3802A"/>
<path d="M113.34 355.152C113.34 355.152 113.251 355.152 113.34 355.152C112.721 355.152 112.368 354.71 112.368 354.18L112.633 349.763C112.633 349.233 113.075 348.88 113.605 348.88C114.135 348.88 114.576 349.322 114.488 349.852L114.223 354.268C114.223 354.71 113.87 355.152 113.34 355.152Z" fill="#F3802A"/>
<path d="M121.643 355.505C121.025 355.505 120.671 355.063 120.671 354.533L120.936 350.117C120.936 349.587 121.378 349.233 121.908 349.233C122.438 349.233 122.88 349.675 122.791 350.205L122.526 354.622C122.615 355.152 122.173 355.505 121.643 355.505Z" fill="#F3802A"/>
<path d="M129.858 355.77C129.858 355.77 129.77 355.77 129.858 355.77C129.24 355.77 128.886 355.328 128.886 354.798L129.151 350.382C129.151 349.852 129.593 349.498 130.123 349.498C130.653 349.498 131.095 349.94 131.006 350.47L130.741 354.887C130.741 355.328 130.3 355.77 129.858 355.77Z" fill="#F3802A"/>
<path d="M138.426 355.858C138.426 355.858 138.338 355.858 138.426 355.858C137.808 355.858 137.455 355.417 137.455 354.887L137.72 350.47C137.72 349.94 138.161 349.587 138.691 349.587C139.221 349.587 139.663 350.028 139.575 350.558L139.31 354.975C139.31 355.417 138.956 355.858 138.426 355.858Z" fill="#F3802A"/>
<path d="M147.083 354.533C147.083 354.533 146.995 354.533 147.083 354.533C146.465 354.533 146.111 354.092 146.111 353.562L146.376 349.145C146.376 348.615 146.818 348.262 147.348 348.262C147.878 348.262 148.32 348.703 148.231 349.233L147.966 353.65C147.966 354.18 147.613 354.533 147.083 354.533Z" fill="#F3802A"/>
<path d="M156.005 353.208C155.387 353.208 155.033 352.767 155.033 352.237L155.298 347.82C155.298 347.29 155.74 346.937 156.27 346.937C156.8 346.937 157.242 347.378 157.153 347.908L156.888 352.325C156.977 352.855 156.535 353.208 156.005 353.208Z" fill="#F3802A"/>
<path d="M163.513 351.353C163.513 351.353 163.425 351.353 163.513 351.353C162.895 351.353 162.542 350.912 162.542 350.382L162.806 345.965C162.806 345.435 163.248 344.993 163.778 345.082C164.308 345.082 164.75 345.523 164.662 346.053L164.397 350.47C164.397 351 164.043 351.353 163.513 351.353Z" fill="#F3802A"/>
<path d="M114.841 208.695C114.841 208.695 118.021 223.535 118.021 231.485C118.021 239.435 116.255 240.672 116.255 240.672C116.255 240.672 122.173 256.042 120.848 266.112C119.611 276.093 118.64 276.447 119.435 281.04C120.23 285.633 120.406 305.332 119.611 306.568C118.816 307.805 122.968 328.475 120.053 335.188C117.226 341.813 105.566 343.757 97.3512 342.52C89.1362 341.283 87.1929 335.895 87.1929 335.895L87.3695 331.302C87.3695 331.302 103.888 217.617 104.065 216.998C104.241 216.203 114.841 208.695 114.841 208.695Z" fill="#F69241"/>
<path d="M138.868 210.55C138.868 210.55 137.278 225.655 137.278 231.662C137.278 237.668 137.72 242.173 136.836 244.558C135.865 246.943 134.893 262.313 136.218 271.588C137.455 280.775 134.805 287.665 135.07 294.732C135.423 301.887 135.423 309.307 135.423 309.307C135.423 309.307 129.505 328.21 135.6 335.63C141.606 343.05 158.478 343.845 163.866 341.99C169.255 340.047 168.636 328.652 168.636 328.652C168.636 328.652 160.245 261.695 160.245 260.105C160.245 258.515 159.891 226.45 159.891 226.45L138.868 210.55Z" fill="#F69241"/>
<path d="M94.2596 208.783C99.1179 206.31 109.541 202.335 114.223 205.868C116.52 207.547 117.756 216.998 117.315 226.273C116.961 234.135 112.456 239.523 112.456 239.523C112.456 239.523 118.198 244.117 117.933 257.367C117.668 270.617 115.636 275.652 115.636 275.652C115.636 275.652 118.728 281.04 117.491 293.937C116.255 306.745 115.636 306.833 115.636 306.833C115.636 306.833 119.17 310.72 118.905 319.465C118.551 328.21 118.11 330.418 115.548 333.687C110.69 339.782 95.7613 341.018 91.6096 339.958C87.4579 338.898 82.8646 329.623 83.1296 321.32C83.3946 313.017 86.6629 306.745 86.6629 306.745C86.6629 306.745 83.5713 298.353 84.2779 290.05C85.2496 277.86 87.5463 273.532 87.5463 273.532C87.5463 273.532 85.3379 266.465 87.1046 254.805C88.6946 244.205 85.9563 241.908 85.5146 224.86C85.3379 219.825 86.7513 212.582 94.2596 208.783Z" fill="url(#paint28_linear_575_1142)"/>
<path d="M112.103 240.76C112.014 240.76 111.926 240.76 111.838 240.76C111.749 240.76 106.449 240.848 101.768 240.407C97.086 240.053 91.521 238.905 91.4326 238.905C90.991 238.817 90.726 238.375 90.8143 238.022C90.9026 237.58 91.256 237.315 91.6976 237.403C91.786 237.403 97.2626 238.552 101.856 238.905C106.449 239.258 111.749 239.258 111.838 239.258C112.279 239.258 112.633 239.612 112.633 240.053C112.633 240.318 112.456 240.672 112.103 240.76Z" fill="#A12168"/>
<path d="M102.474 311.25C102.386 311.25 102.298 311.338 102.121 311.25C101.944 311.25 97.8811 310.808 93.9944 309.748C90.1078 308.688 87.2811 307.628 87.2811 307.628C86.9278 307.452 86.6628 307.01 86.8394 306.657C87.0161 306.215 87.3694 306.038 87.8111 306.215C87.8111 306.215 90.6378 307.275 94.4361 308.335C98.2345 309.395 102.298 309.748 102.298 309.837C102.739 309.837 103.004 310.278 103.004 310.72C102.916 310.897 102.739 311.162 102.474 311.25Z" fill="#A12168"/>
<path d="M110.689 309.748L107.509 310.897C107.156 311.073 106.714 310.808 106.538 310.367C106.361 309.925 106.626 309.483 106.979 309.395L110.159 308.247C113.251 307.187 114.399 306.48 114.488 306.48C114.841 306.303 115.283 306.392 115.548 306.745C115.724 307.098 115.636 307.628 115.283 307.805C115.194 307.805 113.869 308.6 110.689 309.748Z" fill="#A12168"/>
<path d="M95.2309 276.093C95.1426 276.182 94.9659 276.182 94.7893 276.093L92.9343 275.652C91.0793 275.21 87.9876 274.327 87.8993 274.238C87.4576 274.15 87.2809 273.708 87.3693 273.267C87.4576 272.825 87.8993 272.648 88.3409 272.737C88.3409 272.737 91.5209 273.708 93.2876 274.15L95.1426 274.592C95.5843 274.68 95.7609 275.122 95.6726 275.563C95.5843 275.828 95.4076 276.005 95.2309 276.093Z" fill="#A12168"/>
<path d="M115.371 276.358H115.283C115.018 276.447 107.774 277.683 104.241 277.418C100.619 277.153 98.676 276.27 98.5877 276.27C98.2343 276.093 98.0577 275.652 98.2343 275.21C98.411 274.857 98.8527 274.592 99.206 274.768C99.206 274.768 101.061 275.563 104.329 275.828C107.686 276.093 115.018 274.857 115.018 274.857C115.459 274.768 115.813 275.122 115.901 275.475C115.901 275.828 115.724 276.182 115.371 276.358Z" fill="#A12168"/>
<path d="M87.3698 311.868C85.7798 313.547 87.7231 320.083 86.3098 324.147C84.8964 328.21 87.8998 337.043 92.4931 337.043C95.4081 337.043 97.7931 331.037 97.0864 327.062C96.4681 323.175 97.3514 316.285 95.0548 313.37C92.7581 310.632 91.3448 307.628 87.3698 311.868Z" fill="#C34498"/>
<path d="M161.04 208.783C156.535 205.78 145.758 202.335 141.076 205.868C138.78 207.547 137.543 216.998 137.985 226.273C138.338 234.135 142.843 239.523 142.843 239.523C142.843 239.523 137.101 244.117 137.366 257.367C137.631 270.617 139.663 275.652 139.663 275.652C139.663 275.652 136.571 281.04 137.808 293.937C139.045 306.745 139.663 306.833 139.663 306.833C139.663 306.833 136.13 310.72 136.395 319.465C136.66 328.21 137.19 330.418 139.751 333.687C144.61 339.782 159.538 341.018 163.69 339.958C167.841 338.898 172.435 329.623 172.17 321.32C171.816 313.017 168.636 306.745 168.636 306.745C168.636 306.745 171.728 298.353 171.021 290.05C170.05 277.86 167.753 273.532 167.753 273.532C167.753 273.532 168.636 266.553 168.195 254.805C168.018 248.71 169.873 240.142 170.226 223.093C170.403 214.172 166.958 212.758 161.04 208.783Z" fill="url(#paint29_linear_575_1142)"/>
<path d="M143.197 240.76C143.285 240.76 143.373 240.76 143.462 240.848C143.55 240.848 148.762 240.937 153.267 240.583C157.772 240.23 163.16 239.17 163.248 239.17C163.602 239.082 163.867 238.64 163.778 238.287C163.69 237.845 163.337 237.58 162.895 237.668C162.807 237.668 157.507 238.728 153.09 239.082C148.585 239.435 143.462 239.347 143.462 239.347C143.02 239.347 142.755 239.7 142.755 240.142C142.755 240.318 142.932 240.672 143.197 240.76Z" fill="#A12168"/>
<path d="M152.913 311.25C153.001 311.25 153.089 311.338 153.266 311.25C153.443 311.25 157.506 310.808 161.393 309.748C165.279 308.688 168.106 307.628 168.106 307.628C168.459 307.452 168.724 307.01 168.548 306.657C168.371 306.215 168.018 306.038 167.576 306.215C167.576 306.215 164.749 307.275 160.951 308.335C157.153 309.395 153.089 309.748 153.089 309.837C152.648 309.837 152.383 310.278 152.383 310.72C152.471 310.897 152.648 311.162 152.913 311.25Z" fill="#A12168"/>
<path d="M144.698 309.748L147.878 310.897C148.231 311.073 148.673 310.808 148.85 310.367C149.027 309.925 148.762 309.483 148.408 309.395L145.228 308.247C142.136 307.187 140.988 306.48 140.9 306.48C140.546 306.303 140.105 306.392 139.84 306.745C139.663 307.098 139.751 307.628 140.105 307.805C140.193 307.805 141.43 308.6 144.698 309.748Z" fill="#A12168"/>
<path d="M160.156 276.093C160.244 276.182 160.421 276.182 160.598 276.093L162.453 275.652C164.308 275.21 167.399 274.327 167.488 274.238C167.929 274.15 168.106 273.708 168.018 273.267C167.929 272.825 167.488 272.648 167.046 272.737C167.046 272.737 163.866 273.708 162.099 274.15L160.244 274.592C159.803 274.68 159.626 275.122 159.714 275.563C159.714 275.828 159.891 276.005 160.156 276.093Z" fill="#A12168"/>
<path d="M140.016 276.358H140.105C140.37 276.447 147.613 277.683 151.146 277.418C154.768 277.153 156.711 276.27 156.8 276.27C157.153 276.093 157.33 275.652 157.153 275.21C156.976 274.857 156.535 274.592 156.181 274.768C156.181 274.768 154.326 275.563 151.058 275.828C147.701 276.093 140.37 274.857 140.37 274.857C139.928 274.768 139.575 275.122 139.486 275.475C139.398 275.828 139.663 276.182 140.016 276.358Z" fill="#A12168"/>
<path d="M167.929 311.868C169.519 313.547 167.576 320.083 168.989 324.147C170.403 328.21 167.399 337.043 162.806 337.043C159.891 337.043 157.506 331.037 158.213 327.062C158.831 323.175 157.948 316.285 160.244 313.37C162.541 310.632 164.043 307.628 167.929 311.868Z" fill="#C34498"/>
<path d="M135.18 163.096C134.352 163.146 133.746 164.252 133.825 165.567C133.904 166.882 134.639 167.907 135.467 167.857C136.295 167.807 136.902 166.701 136.823 165.386C136.744 164.071 136.008 163.046 135.18 163.096Z" fill="#461C34"/>
<path d="M114.746 163.094C113.918 163.144 113.311 164.25 113.39 165.565C113.47 166.88 114.205 167.905 115.033 167.855C115.861 167.805 116.467 166.699 116.388 165.384C116.309 164.07 115.574 163.044 114.746 163.094Z" fill="#461C34"/>
<path d="M137.985 156.49C138.78 157.108 137.808 158.257 135.158 157.197C132.508 156.137 132.243 154.723 133.215 154.635C134.187 154.547 136.307 155.165 137.985 156.49Z" fill="#461C34"/>
<path d="M112.103 156.667C112.545 156.313 115.901 154.017 116.608 154.9C117.315 155.783 113.516 157.903 112.28 158.08C111.131 158.168 112.103 156.667 112.103 156.667Z" fill="#461C34"/>
<path d="M125.706 164.793C126.236 165.412 127.473 173.538 127.12 175.393C126.855 176.807 124.47 177.69 123.586 175.217C122.703 172.655 124.558 163.557 125.706 164.793Z" fill="url(#paint30_linear_575_1142)"/>
<path d="M131.272 179.28C131.537 179.633 129.947 183.255 124.823 182.813C120.23 182.372 118.816 180.163 119.17 179.545C119.611 178.838 121.378 181.223 125.177 181.223C129.77 181.312 130.653 178.485 131.272 179.28Z" fill="url(#paint31_linear_575_1142)"/>
<path d="M137.808 244.823L142.843 256.483L120.23 270.528L115.195 255.512L137.808 244.823Z" fill="url(#paint32_linear_575_1142)"/>
<path d="M122.085 268.673C122.085 268.673 94.7014 287.047 87.5464 290.138C80.3914 293.23 74.9147 291.375 72.5297 286.34C71.2931 283.778 72.2648 279.185 73.5014 275.298C74.8264 271.235 77.8298 267.967 81.7164 266.288L116.52 251.36L121.201 266.288L122.085 268.673Z" fill="url(#paint33_linear_575_1142)"/>
<path d="M122.085 268.673C122.085 268.673 94.7015 287.047 87.5465 290.138C80.3915 293.23 74.9148 291.375 72.5298 286.34C75.0915 286.958 78.0948 286.958 81.6281 285.722C92.7581 281.747 119.876 265.052 119.876 265.052L121.201 266.2L122.085 268.673Z" fill="#F69241"/>
<path d="M120.318 254.098C120.318 254.098 122.173 255.158 123.322 257.808C124.47 260.458 123.322 263.992 123.322 263.992C123.322 263.992 126.325 264.345 126.943 267.79C127.473 271.235 124.912 275.122 120.495 274.857C116.078 274.592 115.107 271.235 115.283 269.468C115.372 267.702 115.902 266.288 115.902 266.288C115.902 266.288 113.958 265.493 113.163 262.667C112.368 259.84 113.34 257.897 113.34 257.897C113.34 257.897 110.16 256.572 109.63 252.42C109.1 248.268 114.223 246.502 117.58 247.385C120.937 248.357 120.848 251.537 120.318 254.098Z" fill="url(#paint34_linear_575_1142)"/>
<path d="M137.543 243.587C137.543 243.587 130.123 245.618 130.211 246.855C130.3 248.003 131.271 252.862 132.861 256.218C134.451 259.575 138.073 261.872 139.663 261.43C141.253 260.988 144.521 257.278 145.228 256.395C145.935 255.512 146.376 254.01 146.553 253.922C146.73 253.833 148.32 254.363 151.058 252.067C153.796 249.77 154.15 247.12 154.15 247.12C154.15 247.12 154.768 247.032 154.68 247.473C154.591 247.915 152.736 250.83 153.09 251.713C153.443 252.597 155.74 253.48 157.418 251.802C159.185 250.123 162.541 246.325 162.453 245C162.276 243.675 161.658 242.703 161.658 242.703C161.658 242.703 164.661 241.378 163.955 238.375C163.248 235.372 162.895 235.018 161.305 232.81C159.715 230.602 155.828 225.743 152.206 226.362C150.616 226.627 142.401 237.403 141.076 239.788C139.84 242.173 138.073 243.322 137.543 243.587Z" fill="url(#paint35_linear_575_1142)"/>
<path d="M139.045 261.253C138.868 261.253 138.691 261.165 138.603 260.988C138.515 260.723 138.603 260.458 138.78 260.37C138.78 260.37 142.136 258.515 143.815 255.865C144.875 254.275 144.963 253.215 144.963 253.127C144.963 253.038 145.051 252.862 145.14 252.773C145.228 252.685 145.405 252.685 145.493 252.685C145.581 252.685 147.79 253.127 150.351 251.007C152.913 248.887 153.443 247.473 154.061 245.883L154.15 245.618C154.768 244.028 154.856 242.792 154.856 242.792C154.856 242.527 155.121 242.35 155.386 242.35C155.651 242.35 155.828 242.615 155.828 242.88C155.828 242.968 155.74 244.205 155.033 245.883L154.945 246.148C154.326 247.738 153.708 249.417 150.97 251.625C148.761 253.48 146.73 253.568 145.846 253.568C145.758 254.098 145.405 255.07 144.61 256.218C142.843 258.957 139.398 260.9 139.221 260.988C139.133 261.253 139.133 261.253 139.045 261.253Z" fill="#A12168"/>
<path d="M162.011 245.707C161.746 245.707 161.569 245.53 161.569 245.265C161.569 245.265 161.393 244.028 160.598 242.88C159.803 241.732 157.418 240.848 157.418 240.848C157.153 240.76 157.064 240.495 157.153 240.23C157.241 239.965 157.506 239.877 157.771 239.965C157.859 239.965 160.421 240.937 161.393 242.262C162.364 243.587 162.541 245 162.541 245.088C162.541 245.53 162.364 245.707 162.011 245.707C162.099 245.707 162.099 245.707 162.011 245.707Z" fill="#A12168"/>
<path d="M163.601 239.082C163.424 239.082 163.248 238.993 163.159 238.817C163.159 238.817 162.364 236.785 161.039 235.637C159.626 234.488 158.389 234.223 158.301 234.223C158.036 234.135 157.859 233.958 157.948 233.693C158.036 233.428 158.213 233.252 158.478 233.34C158.566 233.34 159.979 233.693 161.569 234.93C163.159 236.167 163.954 238.375 163.954 238.552C164.043 238.817 163.954 239.082 163.689 239.17C163.689 239.082 163.601 239.082 163.601 239.082Z" fill="#A12168"/>
<path d="M154.945 252.597H154.856C154.238 252.597 153.885 252.243 153.708 252.067C153.09 251.095 153.62 250.123 154.326 248.798L154.591 248.357C155.298 247.032 154.945 246.06 154.945 246.06C154.856 245.795 154.945 245.53 155.21 245.442C155.475 245.353 155.74 245.442 155.828 245.707C155.828 245.795 156.27 247.032 155.386 248.71L155.121 249.152C154.415 250.388 154.15 251.007 154.503 251.448C154.591 251.537 154.68 251.537 154.945 251.625C155.74 251.625 157.065 251.095 157.86 250.123C159.008 248.622 161.393 245.883 161.481 245.795C161.658 245.618 161.923 245.618 162.1 245.707C162.276 245.883 162.276 246.148 162.188 246.325C162.188 246.325 159.803 249.152 158.655 250.565C157.506 251.978 155.916 252.597 154.945 252.597Z" fill="#A12168"/>
<path d="M161.835 234.665C161.658 234.665 161.481 234.577 161.393 234.4C161.393 234.4 160.686 232.987 158.213 230.513C155.386 227.775 153.885 227.51 153.796 227.51C153.531 227.422 153.355 227.245 153.443 226.98C153.531 226.715 153.708 226.538 153.973 226.627C154.061 226.627 155.74 226.98 158.831 229.895C161.57 232.457 162.276 233.958 162.276 234.047C162.365 234.312 162.276 234.577 162.011 234.665C162.011 234.665 161.923 234.665 161.835 234.665Z" fill="#CE5DAE"/>
<path d="M145.405 253.745C145.316 253.745 145.228 253.745 145.228 253.657C145.14 253.657 144.08 253.038 142.49 251.36C140.811 249.593 139.928 247.208 139.928 247.12C139.84 246.855 139.928 246.59 140.193 246.502C140.458 246.413 140.723 246.502 140.811 246.767C140.811 246.767 141.695 249.063 143.196 250.653C144.698 252.243 145.67 252.773 145.67 252.773C145.935 252.862 146.023 253.127 145.846 253.392C145.758 253.657 145.581 253.745 145.405 253.745Z" fill="#A12168"/>
<path d="M132.155 246.59C131.978 246.59 131.801 246.502 131.713 246.237C131.625 245.972 131.801 245.707 131.978 245.618C132.066 245.618 135.158 244.558 136.836 244.205C138.338 243.852 138.338 243.852 139.133 242.88C139.398 242.527 140.281 241.467 141.341 240.053C143.55 237.138 146.906 232.633 148.32 231.043C150.351 228.747 151.853 227.422 151.941 227.333C152.118 227.157 152.383 227.157 152.56 227.422C152.736 227.598 152.736 227.863 152.471 228.04C152.471 228.04 150.97 229.365 148.938 231.662C147.613 233.252 144.256 237.668 141.96 240.583C140.9 241.997 140.016 243.145 139.751 243.498C138.868 244.558 138.691 244.735 136.925 245.177C135.335 245.53 132.155 246.59 132.155 246.59C132.243 246.59 132.243 246.59 132.155 246.59Z" fill="#CE5DAE"/>
<path d="M123.41 251.007C123.41 251.007 123.056 255.6 125.53 260.105C128.003 264.61 130.388 264.522 130.388 264.522L136.748 260.37C136.748 260.37 134.186 258.427 132.508 254.363C130.83 250.212 130.388 247.738 130.388 247.738L123.41 251.007Z" fill="url(#paint36_linear_575_1142)"/>
<path d="M132.42 247.562C133.038 249.152 131.095 251.537 128.445 252.508C125.795 253.48 122.968 253.038 122.35 251.448C121.466 249.152 123.498 247.12 126.148 246.148C128.798 245.177 131.448 245.177 132.42 247.562Z" fill="url(#paint37_linear_575_1142)"/>
<path d="M131.801 246.855C132.42 248.445 130.741 250.565 128.18 251.537C125.53 252.508 122.968 252.067 122.35 250.477C121.731 248.887 123.41 246.767 125.971 245.795C128.533 244.823 131.183 245.265 131.801 246.855Z" fill="url(#paint38_linear_575_1142)"/>
<path d="M130.565 246.943C131.006 248.18 129.77 249.858 127.65 250.653C125.53 251.448 123.498 251.095 123.056 249.77C122.615 248.533 123.851 246.855 125.971 246.06C128.091 245.265 130.035 245.707 130.565 246.943Z" fill="url(#paint39_linear_575_1142)"/>
<path d="M130.653 247.12C131.095 248.268 129.77 249.947 127.738 250.742C125.706 251.537 123.675 251.183 123.145 250.035C122.615 248.887 124.028 247.208 126.06 246.413C128.091 245.618 130.211 245.883 130.653 247.12Z" fill="url(#paint40_linear_575_1142)"/>
<path d="M251.758 271.323C238.684 271.323 225.876 268.938 213.863 264.08C211.654 263.197 210.594 260.723 211.478 258.515C212.361 256.307 214.834 255.247 217.043 256.13C228.084 260.547 239.833 262.755 251.846 262.755C291.243 262.755 326.841 237.933 340.533 201.01C341.239 198.978 343.359 197.83 345.479 198.272C347.599 198.713 349.013 200.657 348.836 202.777L346.363 241.908C346.186 244.293 344.154 246.06 341.769 245.883C339.384 245.707 337.618 243.675 337.794 241.29L338.943 223.358C320.128 252.773 287.356 271.323 251.758 271.323Z" fill="url(#paint41_linear_575_1142)"/>
<path d="M213.333 65.5951C210.418 47.0451 194.342 32.9117 174.997 32.9117C153.532 32.9117 136.218 50.3134 136.218 71.6901C136.218 73.1917 136.307 74.6934 136.483 76.1067C139.398 94.5684 155.475 108.702 174.82 108.702C196.285 108.702 213.598 91.3001 213.598 69.9234C213.51 68.5101 213.422 67.0084 213.333 65.5951ZM174.997 102.695C159.008 102.695 145.935 90.5934 144.257 75.1351C144.168 73.9867 144.08 72.9267 144.08 71.7784C144.08 54.7301 157.948 40.8617 174.997 40.8617C190.367 40.8617 203.087 52.0801 205.56 66.6551C205.825 68.3334 206.002 70.0117 206.002 71.7784C205.913 88.8267 192.045 102.695 174.997 102.695Z" fill="url(#paint42_linear_575_1142)"/>
<path d="M213.333 65.5951C211.125 46.2501 194.695 31.2334 174.731 31.2334C153.266 31.2334 135.953 48.6351 135.953 70.0117C135.953 72.1317 136.13 74.1634 136.483 76.1951C139.398 94.6567 155.475 108.79 174.82 108.79C196.285 108.79 213.598 91.3884 213.598 70.0117C213.51 68.5101 213.421 67.0084 213.333 65.5951ZM143.815 70.0117C143.815 52.8751 157.683 39.0951 174.731 39.0951C190.72 39.0951 203.793 51.1967 205.471 66.6551C205.56 67.8034 205.648 68.8634 205.648 70.0117C205.648 87.1484 191.78 100.928 174.731 100.928C159.361 100.928 146.641 89.7984 144.168 75.1351C143.903 73.4567 143.815 71.7784 143.815 70.0117Z" fill="url(#paint43_linear_575_1142)"/>
<path d="M202.998 48.5467C202.557 48.5467 202.203 48.3701 201.938 48.0167C195.225 40.0667 185.42 35.5617 174.997 35.5617C169.873 35.5617 164.927 36.6217 160.333 38.7417C159.803 39.0067 159.273 39.1834 158.832 39.4484C158.125 39.8017 157.242 39.5367 156.888 38.8301C156.535 38.1234 156.8 37.2401 157.507 36.8867C158.037 36.6217 158.567 36.3567 159.185 36.0917C164.132 33.7951 169.52 32.6467 174.997 32.6467C186.215 32.6467 196.815 37.5934 204.147 46.0734C204.677 46.6917 204.588 47.5751 203.97 48.1051C203.617 48.3701 203.263 48.5467 202.998 48.5467Z" fill="white"/>
<path d="M251.758 250.565C297.177 250.565 333.997 213.746 333.997 168.327C333.997 122.908 297.177 86.0884 251.758 86.0884C206.339 86.0884 169.52 122.908 169.52 168.327C169.52 213.746 206.339 250.565 251.758 250.565Z" fill="url(#paint44_linear_575_1142)"/>
<path d="M249.991 246.237C294.288 246.237 330.198 210.327 330.198 166.03C330.198 121.733 294.288 85.8234 249.991 85.8234C205.694 85.8234 169.785 121.733 169.785 166.03C169.785 210.327 205.694 246.237 249.991 246.237Z" fill="url(#paint45_linear_575_1142)"/>
<path d="M251.758 234.4C288.249 234.4 317.831 204.818 317.831 168.327C317.831 131.835 288.249 102.253 251.758 102.253C215.267 102.253 185.685 131.835 185.685 168.327C185.685 204.818 215.267 234.4 251.758 234.4Z" fill="url(#paint46_linear_575_1142)"/>
<path d="M312.708 168.327C312.708 168.945 312.708 169.563 312.708 170.182C311.736 203.042 284.795 229.277 251.758 229.277C218.103 229.277 190.808 201.982 190.808 168.327C190.808 159.582 192.663 151.278 195.931 143.77C205.383 122.305 226.848 107.377 251.758 107.377C285.413 107.288 312.708 134.583 312.708 168.327Z" fill="url(#paint47_linear_575_1142)"/>
<path d="M312.708 168.327C312.708 168.945 312.708 169.563 312.708 170.182C300.342 184.668 281.88 193.855 261.298 193.855C230.028 193.855 203.705 172.655 195.932 143.77C205.383 122.305 226.848 107.377 251.758 107.377C285.413 107.288 312.708 134.583 312.708 168.327Z" fill="url(#paint48_linear_575_1142)"/>
<path d="M255.998 170.182H248.048V119.213C248.048 117.005 249.815 115.238 252.023 115.238C254.232 115.238 255.998 117.005 255.998 119.213V170.182Z" fill="#A12168"/>
<path d="M248.048 167.62L255.91 168.503L251.405 206.84C251.14 209.048 249.197 210.55 246.988 210.373C244.78 210.108 243.278 208.165 243.455 205.957L248.048 167.62Z" fill="#A12168"/>
<path d="M221.283 193.678L211.39 201.54C210.153 202.512 208.475 202.335 207.503 201.098C206.532 199.862 206.708 198.183 207.945 197.212L217.838 189.35C219.075 188.378 220.753 188.555 221.725 189.792C222.608 191.028 222.432 192.795 221.283 193.678Z" fill="url(#paint49_linear_575_1142)"/>
<path d="M291.95 137.498L282.057 145.36C280.82 146.332 279.142 146.155 278.17 144.918C277.198 143.682 277.375 142.003 278.612 141.032L288.505 133.17C289.742 132.198 291.42 132.375 292.392 133.612C293.363 134.76 293.187 136.527 291.95 137.498Z" fill="url(#paint50_linear_575_1142)"/>
<path d="M223.58 138.647L215.718 128.753C214.747 127.517 214.923 125.838 216.16 124.867C217.397 123.895 219.075 124.072 220.047 125.308L227.908 135.202C228.88 136.438 228.703 138.117 227.467 139.088C226.318 140.06 224.552 139.883 223.58 138.647Z" fill="url(#paint51_linear_575_1142)"/>
<path d="M279.848 209.402L271.987 199.508C271.015 198.272 271.192 196.593 272.428 195.622C273.665 194.65 275.343 194.827 276.315 196.063L284.177 205.957C285.148 207.193 284.972 208.872 283.735 209.843C282.498 210.815 280.82 210.55 279.848 209.402Z" fill="url(#paint52_linear_575_1142)"/>
<path d="M213.068 98.3668L199.111 109.497L192.663 114.62C191.603 115.503 190.013 115.327 189.041 114.267L178.353 102.165C177.381 101.017 177.558 99.3384 178.706 98.3668L184.625 93.6851L199.818 81.5834C200.966 80.7001 202.645 80.8768 203.528 82.0251L213.598 94.6568C214.393 95.8051 214.216 97.4834 213.068 98.3668Z" fill="url(#paint53_linear_575_1142)"/>
<path d="M199.111 109.497L192.663 114.62C191.603 115.503 190.013 115.327 189.041 114.267L178.353 102.165C177.381 101.017 177.558 99.3384 178.706 98.3667L184.625 93.6851L199.111 109.497Z" fill="url(#paint54_linear_575_1142)"/>
<path d="M251.758 175.658C255.807 175.658 259.09 172.376 259.09 168.327C259.09 164.278 255.807 160.995 251.758 160.995C247.709 160.995 244.426 164.278 244.426 168.327C244.426 172.376 247.709 175.658 251.758 175.658Z" fill="#A12168"/>
<path d="M310.941 121.068C310.235 121.068 309.616 120.803 309.086 120.273C294.423 103.048 272.958 93.1551 250.345 93.1551C239.215 93.1551 228.438 95.4517 218.456 100.045C217.308 100.575 216.248 101.105 215.1 101.635C213.951 102.253 212.538 101.812 211.92 100.575C211.301 99.4268 211.743 98.0134 212.98 97.3951C214.128 96.7767 215.365 96.2467 216.513 95.6284C227.201 90.7701 238.596 88.2968 250.433 88.2968C274.46 88.2968 297.25 98.8084 312.796 117.093C313.68 118.065 313.503 119.567 312.531 120.45C312.001 120.892 311.471 121.068 310.941 121.068Z" fill="#3F48A5"/>
<path d="M186.303 207.9C187.01 207.9 187.628 208.253 188.07 208.872C201.673 226.98 222.431 238.198 245.045 239.523C256.175 240.23 267.04 238.552 277.286 234.577C278.435 234.135 279.583 233.693 280.731 233.163C281.968 232.633 283.381 233.163 283.911 234.4C284.441 235.637 283.911 237.05 282.675 237.58C281.438 238.11 280.201 238.64 279.053 239.082C268.1 243.322 256.616 245 244.78 244.293C220.753 242.792 198.758 230.955 184.271 211.698C183.476 210.638 183.653 209.137 184.713 208.342C185.243 207.988 185.773 207.812 186.303 207.9Z" fill="#3F48A5"/>
<defs>
<linearGradient id="paint0_linear_575_1142" x1="267.382" y1="184.247" x2="339.93" y2="173.981" gradientUnits="userSpaceOnUse">
<stop stop-color="#F0CBDD"/>
<stop offset="0.9946" stop-color="#FAEBF3"/>
</linearGradient>
<linearGradient id="paint1_linear_575_1142" x1="286.766" y1="165.441" x2="310.261" y2="163.519" gradientUnits="userSpaceOnUse">
<stop stop-color="#F0CBDD"/>
<stop offset="0.9946" stop-color="#FAEBF3"/>
</linearGradient>
<linearGradient id="paint2_linear_575_1142" x1="110.927" y1="115.103" x2="168.831" y2="150.658" gradientUnits="userSpaceOnUse">
<stop stop-color="#F0CBDD"/>
<stop offset="0.9946" stop-color="#FAEBF3"/>
</linearGradient>
<linearGradient id="paint3_linear_575_1142" x1="94.8127" y1="135.221" x2="99.0926" y2="119.979" gradientUnits="userSpaceOnUse">
<stop stop-color="#F0CBDD"/>
<stop offset="0.9946" stop-color="#FAEBF3"/>
</linearGradient>
<linearGradient id="paint4_linear_575_1142" x1="79.8499" y1="212.243" x2="58.001" y2="214.431" gradientUnits="userSpaceOnUse">
<stop stop-color="#ED4527"/>
<stop offset="0.9946" stop-color="#F26A41"/>
</linearGradient>
<linearGradient id="paint5_linear_575_1142" x1="332.77" y1="194.088" x2="357.059" y2="143.676" gradientUnits="userSpaceOnUse">
<stop stop-color="#F0CBDD"/>
<stop offset="0.9946" stop-color="#FAEBF3"/>
</linearGradient>
<linearGradient id="paint6_linear_575_1142" x1="78.2826" y1="141.218" x2="88.1027" y2="141.218" gradientUnits="userSpaceOnUse">
<stop stop-color="#ECEEFB"/>
<stop offset="1" stop-color="#E3E0FD"/>
</linearGradient>
<linearGradient id="paint7_linear_575_1142" x1="72.6607" y1="116.09" x2="109.155" y2="151.14" gradientUnits="userSpaceOnUse">
<stop stop-color="#F0CBDD"/>
<stop offset="0.9946" stop-color="#FAEBF3"/>
</linearGradient>
<linearGradient id="paint8_linear_575_1142" x1="277.891" y1="243.259" x2="327.844" y2="213.47" gradientUnits="userSpaceOnUse">
<stop stop-color="#F0CBDD"/>
<stop offset="0.9946" stop-color="#FAEBF3"/>
</linearGradient>
<linearGradient id="paint9_linear_575_1142" x1="145.524" y1="297.499" x2="237.794" y2="266.335" gradientUnits="userSpaceOnUse">
<stop stop-color="#F0CBDD"/>
<stop offset="0.9946" stop-color="#FAEBF3"/>
</linearGradient>
<linearGradient id="paint10_linear_575_1142" x1="246.259" y1="243.639" x2="232.6" y2="373.403" gradientUnits="userSpaceOnUse">
<stop stop-color="#ECEEFB"/>
<stop offset="1" stop-color="#E3E0FD"/>
</linearGradient>
<linearGradient id="paint11_linear_575_1142" x1="311.932" y1="250.552" x2="298.272" y2="380.316" gradientUnits="userSpaceOnUse">
<stop stop-color="#ECEEFB"/>
<stop offset="1" stop-color="#E3E0FD"/>
</linearGradient>
<linearGradient id="paint12_linear_575_1142" x1="174.412" y1="142.824" x2="174.412" y2="483.23" gradientUnits="userSpaceOnUse">
<stop stop-color="#FBB666"/>
<stop offset="1" stop-color="#F89E44"/>
</linearGradient>
<linearGradient id="paint13_linear_575_1142" x1="189.043" y1="333.002" x2="194.706" y2="348.501" gradientUnits="userSpaceOnUse">
<stop stop-color="#FDC876"/>
<stop offset="0.9892" stop-color="#F6DD9B"/>
</linearGradient>
<linearGradient id="paint14_linear_575_1142" x1="91.1707" y1="174.105" x2="84.1437" y2="364.915" gradientUnits="userSpaceOnUse">
<stop stop-color="#FBB666"/>
<stop offset="1" stop-color="#F89E44"/>
</linearGradient>
<linearGradient id="paint15_linear_575_1142" x1="125.698" y1="184.483" x2="125.369" y2="199.364" gradientUnits="userSpaceOnUse">
<stop stop-color="#F27C7D"/>
<stop offset="1" stop-color="#F6A2A4"/>
</linearGradient>
<linearGradient id="paint16_linear_575_1142" x1="146.608" y1="150.627" x2="146.795" y2="181.909" gradientUnits="userSpaceOnUse">
<stop offset="0.00537634" stop-color="#6A0F35"/>
<stop offset="1" stop-color="#772743"/>
</linearGradient>
<linearGradient id="paint17_linear_575_1142" x1="168.585" y1="160.657" x2="142.655" y2="166.809" gradientUnits="userSpaceOnUse">
<stop stop-color="#F27C7D"/>
<stop offset="1" stop-color="#F7B0AC"/>
</linearGradient>
<linearGradient id="paint18_linear_575_1142" x1="153.471" y1="145.747" x2="153.471" y2="137.119" gradientUnits="userSpaceOnUse">
<stop stop-color="#F27C7D"/>
<stop offset="1" stop-color="#F7B0AC"/>
</linearGradient>
<linearGradient id="paint19_linear_575_1142" x1="109.527" y1="163.048" x2="105.507" y2="191.295" gradientUnits="userSpaceOnUse">
<stop offset="0.00537634" stop-color="#6A0F35"/>
<stop offset="1" stop-color="#772743"/>
</linearGradient>
<linearGradient id="paint20_linear_575_1142" x1="81.9971" y1="160.657" x2="107.927" y2="166.809" gradientUnits="userSpaceOnUse">
<stop stop-color="#F27C7D"/>
<stop offset="1" stop-color="#F7B0AC"/>
</linearGradient>
<linearGradient id="paint21_linear_575_1142" x1="97.1111" y1="145.747" x2="97.1111" y2="137.119" gradientUnits="userSpaceOnUse">
<stop stop-color="#F27C7D"/>
<stop offset="1" stop-color="#F7B0AC"/>
</linearGradient>
<linearGradient id="paint22_linear_575_1142" x1="89.4855" y1="181.67" x2="114.892" y2="164.741" gradientUnits="userSpaceOnUse">
<stop stop-color="#F27C7D"/>
<stop offset="1" stop-color="#F7B0AC"/>
</linearGradient>
<linearGradient id="paint23_linear_575_1142" x1="120.168" y1="152.372" x2="118.218" y2="136.31" gradientUnits="userSpaceOnUse">
<stop offset="0.00537634" stop-color="#F05A53"/>
<stop offset="1" stop-color="#F0635E"/>
</linearGradient>
<linearGradient id="paint24_linear_575_1142" x1="111.102" y1="153.418" x2="109.069" y2="136.668" gradientUnits="userSpaceOnUse">
<stop offset="0.00537634" stop-color="#6A0F35"/>
<stop offset="1" stop-color="#772743"/>
</linearGradient>
<linearGradient id="paint25_linear_575_1142" x1="137.105" y1="161.666" x2="112.297" y2="108.935" gradientUnits="userSpaceOnUse">
<stop stop-color="#EC4728"/>
<stop offset="1" stop-color="#F16843"/>
</linearGradient>
<linearGradient id="paint26_linear_575_1142" x1="128.345" y1="127.623" x2="128.345" y2="514.98" gradientUnits="userSpaceOnUse">
<stop stop-color="#FBB666"/>
<stop offset="1" stop-color="#F89E44"/>
</linearGradient>
<linearGradient id="paint27_linear_575_1142" x1="126.559" y1="192.718" x2="126.559" y2="221.353" gradientUnits="userSpaceOnUse">
<stop stop-color="#FBB666"/>
<stop offset="1" stop-color="#F89E44"/>
</linearGradient>
<linearGradient id="paint28_linear_575_1142" x1="118.315" y1="276.1" x2="87.5812" y2="268.923" gradientUnits="userSpaceOnUse">
<stop stop-color="#B22878"/>
<stop offset="1" stop-color="#C24A9A"/>
</linearGradient>
<linearGradient id="paint29_linear_575_1142" x1="137.197" y1="276.043" x2="168.385" y2="268.76" gradientUnits="userSpaceOnUse">
<stop stop-color="#B22878"/>
<stop offset="1" stop-color="#C24A9A"/>
</linearGradient>
<linearGradient id="paint30_linear_575_1142" x1="125.558" y1="175.848" x2="123.954" y2="164.118" gradientUnits="userSpaceOnUse">
<stop offset="0.00537634" stop-color="#F05A53"/>
<stop offset="1" stop-color="#F0635E"/>
</linearGradient>
<linearGradient id="paint31_linear_575_1142" x1="125.044" y1="182.589" x2="125.237" y2="178.613" gradientUnits="userSpaceOnUse">
<stop offset="0.00537634" stop-color="#F05A53"/>
<stop offset="1" stop-color="#F0635E"/>
</linearGradient>
<linearGradient id="paint32_linear_575_1142" x1="120.285" y1="276.361" x2="131.002" y2="251.355" gradientUnits="userSpaceOnUse">
<stop stop-color="#F27C7D"/>
<stop offset="1" stop-color="#F7B0AC"/>
</linearGradient>
<linearGradient id="paint33_linear_575_1142" x1="97.0511" y1="230.873" x2="97.0511" y2="332.765" gradientUnits="userSpaceOnUse">
<stop stop-color="#FBB666"/>
<stop offset="1" stop-color="#F89E44"/>
</linearGradient>
<linearGradient id="paint34_linear_575_1142" x1="107.759" y1="263.843" x2="125.606" y2="258.982" gradientUnits="userSpaceOnUse">
<stop stop-color="#FDC876"/>
<stop offset="0.9892" stop-color="#F6DD9B"/>
</linearGradient>
<linearGradient id="paint35_linear_575_1142" x1="146.241" y1="258.851" x2="148.272" y2="224.083" gradientUnits="userSpaceOnUse">
<stop stop-color="#B22878"/>
<stop offset="1" stop-color="#C24A9A"/>
</linearGradient>
<linearGradient id="paint36_linear_575_1142" x1="126.145" y1="250.717" x2="135.83" y2="267.467" gradientUnits="userSpaceOnUse">
<stop stop-color="#19207D"/>
<stop offset="1" stop-color="#0E125C"/>
</linearGradient>
<linearGradient id="paint37_linear_575_1142" x1="123.958" y1="242.33" x2="127.7" y2="250.273" gradientUnits="userSpaceOnUse">
<stop stop-color="#19207D"/>
<stop offset="1" stop-color="#0E125C"/>
</linearGradient>
<linearGradient id="paint38_linear_575_1142" x1="127.957" y1="251.33" x2="129.088" y2="254.575" gradientUnits="userSpaceOnUse">
<stop stop-color="#19207D"/>
<stop offset="1" stop-color="#0E125C"/>
</linearGradient>
<linearGradient id="paint39_linear_575_1142" x1="127.521" y1="250.494" x2="128.412" y2="253.049" gradientUnits="userSpaceOnUse">
<stop stop-color="#19207D"/>
<stop offset="1" stop-color="#0E125C"/>
</linearGradient>
<linearGradient id="paint40_linear_575_1142" x1="127.587" y1="250.527" x2="128.436" y2="252.953" gradientUnits="userSpaceOnUse">
<stop stop-color="#F0CBDD"/>
<stop offset="0.9946" stop-color="#FAEBF3"/>
</linearGradient>
<linearGradient id="paint41_linear_575_1142" x1="338.392" y1="195.311" x2="256.468" y2="271.52" gradientUnits="userSpaceOnUse">
<stop stop-color="#ED4527"/>
<stop offset="0.9946" stop-color="#F26A41"/>
</linearGradient>
<linearGradient id="paint42_linear_575_1142" x1="187.846" y1="95.4804" x2="159.643" y2="42.1043" gradientUnits="userSpaceOnUse">
<stop stop-color="#ECEEFB"/>
<stop offset="1" stop-color="#E3E0FD"/>
</linearGradient>
<linearGradient id="paint43_linear_575_1142" x1="160.338" y1="26.1622" x2="180.819" y2="88.5578" gradientUnits="userSpaceOnUse">
<stop stop-color="#ECEEFB"/>
<stop offset="1" stop-color="#E3E0FD"/>
</linearGradient>
<linearGradient id="paint44_linear_575_1142" x1="265.957" y1="194.842" x2="280.246" y2="221.515" gradientUnits="userSpaceOnUse">
<stop stop-color="#19207D"/>
<stop offset="1" stop-color="#0E125C"/>
</linearGradient>
<linearGradient id="paint45_linear_575_1142" x1="254.327" y1="175.357" x2="202.886" y2="65.8069" gradientUnits="userSpaceOnUse">
<stop stop-color="#19207D"/>
<stop offset="1" stop-color="#0E125C"/>
</linearGradient>
<linearGradient id="paint46_linear_575_1142" x1="248.585" y1="231.269" x2="250.966" y2="183.639" gradientUnits="userSpaceOnUse">
<stop stop-color="#19207D"/>
<stop offset="1" stop-color="#0E125C"/>
</linearGradient>
<linearGradient id="paint47_linear_575_1142" x1="292.543" y1="38.0233" x2="232.195" y2="230.672" gradientUnits="userSpaceOnUse">
<stop stop-color="#F0CBDD"/>
<stop offset="0.9946" stop-color="#FAEBF3"/>
</linearGradient>
<linearGradient id="paint48_linear_575_1142" x1="256.579" y1="140.716" x2="243.581" y2="233.094" gradientUnits="userSpaceOnUse">
<stop stop-color="#F0CBDD"/>
<stop offset="0.9946" stop-color="#FAEBF3"/>
</linearGradient>
<linearGradient id="paint49_linear_575_1142" x1="217.123" y1="93.9252" x2="214.741" y2="189.186" gradientUnits="userSpaceOnUse">
<stop stop-color="#19207D"/>
<stop offset="1" stop-color="#0E125C"/>
</linearGradient>
<linearGradient id="paint50_linear_575_1142" x1="286.382" y1="95.6569" x2="284" y2="190.918" gradientUnits="userSpaceOnUse">
<stop stop-color="#19207D"/>
<stop offset="1" stop-color="#0E125C"/>
</linearGradient>
<linearGradient id="paint51_linear_575_1142" x1="222.768" y1="94.0665" x2="220.386" y2="189.327" gradientUnits="userSpaceOnUse">
<stop stop-color="#19207D"/>
<stop offset="1" stop-color="#0E125C"/>
</linearGradient>
<linearGradient id="paint52_linear_575_1142" x1="280.737" y1="95.5161" x2="278.355" y2="190.776" gradientUnits="userSpaceOnUse">
<stop stop-color="#19207D"/>
<stop offset="1" stop-color="#0E125C"/>
</linearGradient>
<linearGradient id="paint53_linear_575_1142" x1="200.518" y1="87.8146" x2="189.087" y2="114.011" gradientUnits="userSpaceOnUse">
<stop stop-color="#19207D"/>
<stop offset="1" stop-color="#0E125C"/>
</linearGradient>
<linearGradient id="paint54_linear_575_1142" x1="188.419" y1="82.399" x2="188.419" y2="105.738" gradientUnits="userSpaceOnUse">
<stop stop-color="#19207D"/>
<stop offset="1" stop-color="#0E125C"/>
</linearGradient>
</defs>
</svg>
