<svg width="15" height="17" viewBox="0 0 15 17" fill="none" xmlns="http://www.w3.org/2000/svg">
<path d="M14.6566 0.379593C9.39499 -0.872011 3.0564 1.07947 0.810267 4.64632C-0.360531 6.50533 -0.259405 8.59348 1.09342 10.5288C1.24357 10.7899 1.42269 11.0316 1.62737 11.2489C2.55854 8.95978 4.19791 7.06179 6.28419 5.85743C6.49453 5.72852 6.76539 5.80192 6.889 6.02126C7.01262 6.2406 6.9424 6.52305 6.73189 6.65195C4.64546 7.93072 3.25542 9.44233 2.39803 11.7292C1.79774 13.25 1.39534 14.8476 1.2015 16.4795C1.17319 16.7309 1.34211 16.9601 1.58239 16.9962C1.61135 17 1.64063 17.0011 1.66976 16.9989C1.87978 16.9838 2.05032 16.8165 2.0775 16.599C2.23752 15.1407 2.58329 13.7112 3.10575 12.3485C3.67206 12.6478 4.27526 12.8641 4.89819 12.9911C5.08653 13.0291 5.2739 13.0591 5.46029 13.0814C7.14109 13.3075 8.83775 12.8121 10.1618 11.7092C11.5547 10.1547 11.6882 8.75494 11.8175 7.40126C11.9833 5.6585 12.1555 3.85618 14.8633 1.16231C14.9809 1.04521 15.0273 0.870077 14.9841 0.706583C14.9409 0.543088 14.8152 0.417387 14.6566 0.379593Z" fill="#973456"/>
</svg>
