<svg width="414" height="408" viewBox="0 0 414 408" fill="none" xmlns="http://www.w3.org/2000/svg">
<path d="M263.318 280.462C266.763 280.462 269.767 277.988 270.12 274.632C270.738 269.508 270.12 262.177 263.76 257.848C253.072 250.693 243.885 257.672 243.885 257.672C243.885 257.672 246.182 249.368 240.793 243.803C235.493 238.238 227.632 241.86 227.632 241.86C227.632 241.86 222.95 231.79 212.438 235.323C202.015 238.857 205.902 249.192 205.902 249.192C205.902 249.192 198.305 241.86 188.677 246.453C179.048 251.047 184.172 261.47 184.172 261.47C184.172 261.47 175.073 253.608 166.947 263.855C162.707 269.155 164.65 274.278 166.682 277.458C167.918 279.402 170.127 280.55 172.423 280.55H263.318V280.462Z" fill="url(#paint0_linear_575_971)"/>
<path d="M243.974 280.462C243.974 280.462 249.98 277.105 245.74 270.038C241.765 263.325 228.692 269.773 228.692 269.773C228.692 269.773 232.137 260.675 226.219 258.29C221.625 256.435 217.915 259.88 217.915 259.88C217.915 259.88 216.414 252.46 211.379 252.548C202.369 252.637 205.284 263.06 205.284 263.06C205.284 263.06 199.895 257.583 192.74 260.763C185.585 263.943 188.5 271.187 188.5 271.187C188.5 271.187 180.197 266.505 177.017 271.893C173.837 277.193 177.017 280.373 180.374 280.373C183.73 280.373 243.974 280.462 243.974 280.462Z" fill="url(#paint1_linear_575_971)"/>
<path d="M260.227 281.168C256.782 281.168 253.69 279.225 252.189 276.222C250.687 273.13 249.98 269.067 253.337 265.18C259.874 257.76 268.707 263.237 268.707 263.237C268.707 263.237 262.789 254.05 270.032 248.573C277.275 243.097 283.9 248.043 283.9 248.043C283.9 248.043 283.989 229.935 300.419 232.32C316.849 234.705 313.58 249.368 313.58 249.368C313.58 249.368 321.265 243.715 328.067 249.81C334.869 255.905 328.95 262.972 328.95 262.972C328.95 262.972 337.077 259.262 340.787 267.565C340.787 267.653 340.875 267.742 340.875 267.83C343.614 274.19 338.844 281.168 331.954 281.168H260.227Z" fill="url(#paint2_linear_575_971)"/>
<path d="M322.855 280.903C325.329 280.903 327.802 280.108 329.745 278.43C331.07 277.282 332.13 275.692 331.865 273.66C331.158 268.802 325.328 271.363 325.328 271.363C325.328 271.363 329.039 265.71 323.827 261.293C318.615 256.877 311.725 262 311.725 262C311.725 262 315.347 251.488 306.072 249.633C299.005 248.22 296.178 259.438 296.178 259.438C296.178 259.438 292.115 254.403 285.755 258.113C279.395 261.823 287.61 270.48 287.61 270.48C287.61 270.48 280.013 267.212 274.978 271.187C269.943 275.162 273.3 280.815 278.865 280.815C283.458 280.815 313.845 280.903 322.855 280.903Z" fill="url(#paint3_linear_575_971)"/>
<path d="M215.088 141.867C215.088 141.867 207.05 139.217 198.658 134.8C190.267 130.383 190.09 128.617 188.235 131.355C186.38 134.182 198.658 140.188 199.718 142.397C200.778 144.605 198.923 146.018 192.298 142.397C185.585 138.775 181.698 137.538 179.402 141.16C177.105 144.782 182.935 153.615 197.157 162.007C211.29 170.398 218.622 166.423 216.413 158.827C214.205 151.23 209.258 151.583 209.435 149.198C209.612 146.813 213.587 150.788 223.392 154.057C233.197 157.325 239.38 154.498 234.875 150.258C230.37 146.107 223.833 145.488 215.088 141.867Z" fill="#FEF5F9"/>
<path d="M183.465 127.557C182.317 128.617 175.868 127.38 166.858 119.96C157.848 112.54 159.262 106.092 161.735 106.887C164.208 107.682 162.972 111.303 171.098 117.575C179.048 123.758 184.79 126.408 183.465 127.557Z" fill="#FEF5F9"/>
<path d="M190.709 116.073C187.97 117.575 190.974 122.875 194.949 125.083C199.012 127.292 199.984 125.172 198.747 121.727C197.599 118.37 193.712 114.395 190.709 116.073Z" fill="#FEF5F9"/>
<path d="M170.922 147.785C170.568 149.463 161.735 146.548 156.523 142.397C151.312 138.245 149.987 134.005 152.813 133.387C155.64 132.857 155.64 134.888 161.382 138.245C167.212 141.69 171.452 145.577 170.922 147.785Z" fill="#FEF5F9"/>
<path d="M215.088 179.585C209.612 177.023 207.05 176.67 193.535 168.632C181.963 161.742 169.332 152.29 167.212 153.615C165.18 154.94 168.272 161.388 173.66 165.628C179.048 169.868 190.002 174.197 189.648 176.847C189.207 179.497 181.61 172.518 181.168 176.582C180.727 180.557 188.235 190.008 202.722 195.838C217.208 201.757 221.978 199.813 221.802 197.693C221.625 195.573 209.347 189.655 208.552 187.535C207.757 185.415 210.407 186.475 215.177 186.74C219.858 187.005 222.773 183.118 215.088 179.585Z" fill="#FEF5F9"/>
<path d="M298.122 163.508C298.122 163.508 308.015 163.332 320.912 152.82C333.808 142.397 337.695 135.33 340.345 136.567C342.995 137.803 340.875 145.577 334.515 152.643C328.155 159.71 326.3 165.275 328.332 167.483C330.363 169.692 337.077 165.098 343.437 158.827C349.797 152.555 352.623 151.76 350.15 161.653C347.677 171.458 324.798 194.602 304.747 201.05C284.607 207.498 296.002 193.453 305.277 187.977C314.463 182.588 321.883 173.137 318.703 171.282C315.523 169.515 302.627 175.08 295.56 173.048C290.437 171.723 289.642 164.922 298.122 163.508Z" fill="#FEF5F9"/>
<path d="M354.655 159.445C354.302 161.388 362.693 157.148 369.672 150.7C376.562 144.252 380.183 137.803 377.798 136.743C375.413 135.683 372.41 141.867 365.255 148.668C358.1 155.558 354.832 158.12 354.655 159.445Z" fill="#FEF5F9"/>
<path d="M345.468 141.69C346.263 142.662 354.036 138.863 359.336 132.415C364.636 125.967 365.166 124.112 363.576 123.052C361.986 121.992 359.513 125.967 354.655 131.355C349.796 136.743 343.966 139.747 345.468 141.69Z" fill="#FEF5F9"/>
<path d="M338.225 115.543C332.925 119.607 331.688 124.907 334.957 126.497C338.843 128.352 345.557 118.988 345.027 115.543C344.762 113.688 340.698 113.688 338.225 115.543Z" fill="#FEF5F9"/>
<path d="M287.61 215.183C301.125 211.208 311.106 203.7 317.82 199.107C324.533 194.513 325.858 199.637 323.385 203.435C320.911 207.233 330.098 204.76 344.85 191.687C359.601 178.525 366.315 174.02 366.05 177.73C365.785 181.44 344.408 207.145 318.88 222.162C293.44 237.178 268.618 238.768 258.106 238.768C247.595 238.768 251.658 232.055 259.873 230.995C268.176 229.935 284.253 227.55 289.641 224.282C295.03 221.102 283.193 227.197 275.773 224.017C268.353 220.748 276.656 218.363 287.61 215.183Z" fill="#FEF5F9"/>
<path d="M298.21 241.507C297.327 241.948 297.768 243.538 298.652 243.362C307.308 241.507 321.442 237.002 340.698 221.455C357.482 207.852 353.772 202.817 349.267 205.29C344.762 207.675 340.08 215.183 327.36 225.077C314.552 235.058 305.365 237.797 298.21 241.507Z" fill="#FEF5F9"/>
<path d="M369.76 186.122C369.318 184.443 362.075 192.57 358.365 195.927C354.655 199.283 355.626 201.05 360.308 197.87C364.99 194.602 370.555 189.213 369.76 186.122Z" fill="#FEF5F9"/>
<path d="M280.455 245.393C270.65 246.63 263.23 247.69 256.87 246.365C250.51 245.04 246.623 245.128 246.182 247.337C245.74 249.457 257.93 252.195 269.943 251.047C282.045 249.987 288.493 246.453 288.405 244.863C288.228 243.273 285.578 244.775 280.455 245.393Z" fill="#FEF5F9"/>
<path d="M186.026 208.823V283.642C186.026 287.263 188.941 290.178 192.563 290.178C196.185 290.178 199.1 287.263 199.1 283.642V208.823H186.026Z" fill="url(#paint4_linear_575_971)"/>
<path d="M186.026 208.823V226.137C186.556 226.402 187.086 226.755 187.705 227.02C192.828 229.847 196.538 232.32 199.188 234.352V208.823H186.026Z" fill="#F05236"/>
<path d="M195.831 261.205C196.273 261.205 196.626 260.852 196.626 260.41V225.165C196.626 224.723 196.273 224.37 195.831 224.37C195.389 224.37 195.036 224.723 195.036 225.165V260.41C195.036 260.852 195.389 261.205 195.831 261.205Z" fill="#F05236"/>
<path d="M190.708 281.08H190.973C191.327 281.08 191.592 280.815 191.592 280.462V256.082C191.592 255.728 191.327 255.463 190.973 255.463H190.708C190.355 255.463 190.09 255.728 190.09 256.082V280.462C190.09 280.815 190.355 281.08 190.708 281.08Z" fill="#F05236"/>
<path d="M190.708 243.097H190.973C191.327 243.097 191.592 242.832 191.592 242.478V218.098C191.592 217.745 191.327 217.48 190.973 217.48H190.708C190.355 217.48 190.09 217.745 190.09 218.098V242.478C190.09 242.832 190.355 243.097 190.708 243.097Z" fill="#F05236"/>
<path d="M176.751 90.81C176.751 90.81 173.66 93.8133 172.423 96.4633C171.275 99.025 171.716 104.855 171.716 104.855L176.486 108.83L171.716 113.953C171.716 113.953 170.568 124.73 170.303 134.977C170.038 145.223 171.451 152.29 171.451 152.29L176.221 159.798L172.07 165.628C172.07 165.628 170.656 183.56 170.656 188.507C170.656 193.453 171.893 199.195 171.893 199.195L175.78 202.022L172.511 206.968C172.511 206.968 172.511 212.622 175.338 213.505C178.165 214.388 238.231 215.713 272.858 215.36C307.485 215.007 330.186 213.77 331.6 213.77C333.013 213.77 342.111 209.265 342.111 209.265C342.111 209.265 343.348 205.643 343.525 199.725C343.701 193.807 343.348 192.217 343.348 192.217L340.256 188.153C340.256 188.153 342.553 186.475 342.906 185.592C343.26 184.62 341.935 182.765 341.935 182.765C341.935 182.765 343.083 180.203 343.613 178.878C344.055 177.553 345.733 160.593 345.291 151.495C344.85 142.485 342.906 136.39 342.906 136.39L341.228 131.443C341.228 131.443 343.083 127.557 343.966 125.702C344.938 123.847 345.556 108.742 344.761 103.265C343.966 97.7883 341.67 92.4883 339.815 92.2233C320.911 89.3966 226.13 86.57 176.751 90.81Z" fill="url(#paint5_linear_575_971)"/>
<path d="M180.903 94.0783C180.903 94.0783 177.988 96.905 176.84 99.29C175.691 101.675 176.133 107.152 176.133 107.152L180.638 110.862L176.133 115.632C176.133 115.632 174.985 125.613 174.808 135.242C174.543 144.782 175.956 151.318 175.956 151.318L180.461 158.297L175.515 165.717C175.515 165.717 175.25 180.468 175.25 185.062C175.25 189.743 176.486 196.987 176.486 196.987L181.345 199.283L177.105 202.198C177.105 202.198 177.105 207.41 179.843 208.293C182.581 209.177 239.556 210.325 272.416 210.06C305.276 209.795 326.83 208.647 328.155 208.647C329.48 208.647 338.136 204.407 338.136 204.407C338.136 204.407 339.373 201.05 339.461 195.573C339.638 190.097 339.285 188.595 339.285 188.595L336.37 184.797C336.37 184.797 338.49 183.295 338.843 182.412C339.196 181.528 337.96 179.762 337.96 179.762C337.96 179.762 339.108 177.377 339.55 176.14C339.991 174.903 341.581 159.092 341.14 150.7C340.698 142.308 338.843 136.655 338.843 136.655L335.486 131.178C335.486 131.178 338.931 128.44 339.815 126.673C340.698 124.907 341.316 110.862 340.61 105.827C339.815 100.792 337.695 95.7567 335.928 95.4917C317.731 92.8417 227.72 90.1917 180.903 94.0783Z" fill="url(#paint6_linear_575_971)"/>
<path d="M203.517 95.1383C225.423 94.9617 246.093 93.8133 265.438 94.8733C284.783 95.9333 268.707 96.0216 248.125 95.9333C230.635 95.845 190.973 98.8483 188.765 97.2583C186.557 95.6683 196.45 95.1383 203.517 95.1383Z" fill="#F3802C"/>
<path d="M242.736 100.615C239.821 101.233 246.093 101.057 262.523 101.057C278.953 101.057 286.108 104.06 299.005 102.912C311.901 101.763 314.993 100.438 314.375 100.262C313.756 100.085 303.068 101.587 295.118 101.763C287.168 102.028 272.858 99.4666 265.438 99.6433C258.018 99.8199 246.093 99.9083 242.736 100.615Z" fill="#F3802C"/>
<path d="M293.528 95.58C287.787 95.58 282.222 95.845 286.815 97.3466C291.408 98.8483 302.98 97.6999 304.482 96.7283C305.895 95.8449 297.415 95.58 293.528 95.58Z" fill="#F3802C"/>
<path d="M324.887 95.8449C323.208 95.7566 323.473 97.2583 327.007 97.3466C330.54 97.4349 331.688 98.8483 326.653 100.262C321.618 101.675 302.097 104.59 304.658 105.032C307.132 105.473 320.823 103.353 325.593 102.028C330.363 100.615 334.603 98.6716 332.748 97.4349C330.805 96.2866 327.802 95.9333 324.887 95.8449Z" fill="#F3802C"/>
<path d="M194.065 103.883C197.686 103.442 210.936 103.53 216.943 102.823C222.95 102.028 235.493 100.527 234.61 101.763C233.638 103 217.738 104.855 209.17 105.208C200.601 105.473 188.058 104.678 194.065 103.883Z" fill="#F3802C"/>
<path d="M176.133 107.152C176.133 107.152 183.907 109.36 190.09 110.332C196.273 111.303 207.845 111.127 206.255 112.098C204.665 113.07 193.977 113.6 188.147 113.512C182.405 113.423 176.398 109.89 176.133 107.152Z" fill="#F3802C"/>
<path d="M339.815 126.85C339.815 126.85 331.158 128.793 323.561 129.323C315.965 129.765 299.711 129.323 298.298 130.295C296.885 131.267 313.845 131.973 321.971 131.973C330.098 131.973 333.366 132.503 336.635 130.648C339.461 129.058 339.815 126.85 339.815 126.85Z" fill="#F3802C"/>
<path d="M177.9 154.322C177.9 154.322 182.935 154.852 192.74 155.823C202.545 156.795 219.858 156.265 217.297 157.502C214.647 158.65 200.16 158.915 194.86 158.915C189.56 158.915 180.462 158.385 180.462 158.385L177.9 154.322Z" fill="#F3802C"/>
<path d="M336.281 184.708C336.281 184.708 324.71 184.09 317.82 184.09C310.93 184.09 294.235 182.942 295.648 184.355C297.061 185.768 314.728 186.917 321.883 187.623C329.038 188.33 337.253 186.828 337.165 186.298C336.988 185.857 337.871 184.973 336.281 184.708Z" fill="#F3802C"/>
<path d="M214.735 202.375C214.735 202.375 228.073 200.167 239.468 201.138C250.863 202.11 270.915 201.138 266.498 201.757C262.081 202.375 250.598 204.583 239.821 203.612C229.045 202.64 202.722 205.113 214.735 202.375Z" fill="#F3802C"/>
<path d="M282.575 200.343C282.575 200.343 295.913 198.135 307.308 199.107C318.703 200.078 338.755 199.107 334.338 199.725C329.922 200.343 318.438 202.552 307.662 201.58C296.885 200.697 270.473 203.082 282.575 200.343Z" fill="#F3802C"/>
<path d="M313.315 206.262C313.315 206.262 295.737 207.322 280.72 206.88C265.703 206.438 239.38 206.88 245.21 206.615C251.04 206.35 266.057 205.29 280.278 205.732C294.5 206.173 329.127 205.025 313.315 206.262Z" fill="#F3802C"/>
<path d="M306.866 194.337C306.866 194.337 289.288 195.397 274.271 194.955C259.255 194.513 232.931 194.955 238.761 194.69C244.591 194.425 259.608 193.365 273.83 193.807C288.051 194.248 322.678 193.1 306.866 194.337Z" fill="#F3802C"/>
<path d="M176.398 196.987C176.398 196.987 182.405 197.87 187.44 197.87C192.475 197.87 203.605 196.898 203.428 197.958C203.251 199.018 181.256 199.283 181.256 199.283L176.398 196.987Z" fill="#F3802C"/>
<path d="M329.391 202.64H186.291C184.436 202.64 183.023 201.138 183.023 199.372V103.707C183.023 101.852 184.525 100.438 186.291 100.438H329.391C331.246 100.438 332.66 101.94 332.66 103.707V199.372C332.748 201.138 331.246 202.64 329.391 202.64Z" fill="#F37040"/>
<path d="M327.095 197.958H188.677C186.468 197.958 184.613 196.192 184.613 193.895V105.473C184.613 103.265 186.38 101.41 188.677 101.41H327.095C329.303 101.41 331.158 103.177 331.158 105.473V193.895C331.158 196.103 329.303 197.958 327.095 197.958Z" fill="url(#paint7_linear_575_971)"/>
<path d="M334.691 208.823V283.642C334.691 287.263 331.777 290.178 328.155 290.178C324.533 290.178 321.618 287.263 321.618 283.642V208.823H334.691Z" fill="url(#paint8_linear_575_971)"/>
<path d="M334.691 208.823V226.137C334.161 226.402 333.631 226.755 333.013 227.02C327.89 229.847 324.18 232.32 321.53 234.352V208.823H334.691Z" fill="#F05236"/>
<path d="M324.886 261.205C324.445 261.205 324.091 260.852 324.091 260.41V225.165C324.091 224.723 324.445 224.37 324.886 224.37C325.328 224.37 325.681 224.723 325.681 225.165V260.41C325.681 260.852 325.328 261.205 324.886 261.205Z" fill="#F05236"/>
<path d="M330.01 281.08H329.745C329.391 281.08 329.126 280.815 329.126 280.462V256.082C329.126 255.728 329.391 255.463 329.745 255.463H330.01C330.363 255.463 330.628 255.728 330.628 256.082V280.462C330.628 280.815 330.363 281.08 330.01 281.08Z" fill="#F05236"/>
<path d="M330.01 243.097H329.745C329.391 243.097 329.126 242.832 329.126 242.478V218.098C329.126 217.745 329.391 217.48 329.745 217.48H330.01C330.363 217.48 330.628 217.745 330.628 218.098V242.478C330.628 242.832 330.363 243.097 330.01 243.097Z" fill="#F05236"/>
<path d="M208.64 118.723H194.948C194.33 118.723 193.8 118.193 193.8 117.575V117.398C193.8 116.78 194.33 116.25 194.948 116.25H208.64C209.258 116.25 209.788 116.78 209.788 117.398V117.575C209.788 118.193 209.258 118.723 208.64 118.723Z" fill="#FAA65B"/>
<path d="M208.64 123.935H194.948C194.33 123.935 193.8 123.405 193.8 122.787V122.61C193.8 121.992 194.33 121.462 194.948 121.462H208.64C209.258 121.462 209.788 121.992 209.788 122.61V122.787C209.788 123.405 209.258 123.935 208.64 123.935Z" fill="#FAA65B"/>
<path d="M201.22 128.97H194.948C194.33 128.97 193.8 128.44 193.8 127.822V127.645C193.8 127.027 194.33 126.497 194.948 126.497H201.22C201.838 126.497 202.368 127.027 202.368 127.645V127.822C202.28 128.44 201.838 128.97 201.22 128.97Z" fill="#FAA65B"/>
<path d="M211.378 188.507L234.345 158.032C235.493 156.442 238.055 156.442 239.292 158.032L251.747 174.462C252.983 176.052 255.721 175.963 256.781 174.285L280.19 137.627C281.338 135.772 284.342 135.86 285.402 137.715L314.198 188.772C315.17 190.538 313.756 192.658 311.548 192.658H213.763C211.467 192.658 210.053 190.273 211.378 188.507Z" fill="url(#paint9_linear_575_971)"/>
<path d="M246.535 126.408C244.856 127.645 246.005 129.588 249.45 130.56C252.541 131.355 252.1 134.623 253.955 134.623C255.898 134.535 257.223 132.062 255.368 129.147C253.601 126.232 248.478 124.995 246.535 126.408Z" fill="white"/>
<path d="M244.68 134.447C245.21 132.415 247.507 132.768 249.538 135.595C251.393 138.157 254.308 136.567 255.015 138.333C255.633 140.1 253.867 142.308 250.51 141.69C247.153 141.072 244.062 136.743 244.68 134.447Z" fill="white"/>
<path d="M297.327 132.768C297.415 134.8 299.623 135.065 302.362 132.768C304.747 130.737 307.22 132.945 308.28 131.355C309.34 129.765 308.015 127.203 304.57 127.027C301.125 126.85 297.238 130.383 297.327 132.768Z" fill="white"/>
<path d="M302.892 138.952C301.567 137.362 303.068 135.683 306.602 135.595C309.782 135.507 310.135 132.15 311.902 132.68C313.668 133.21 314.463 135.86 312.078 138.333C309.693 140.807 304.393 140.718 302.892 138.952Z" fill="white"/>
<path d="M199.63 157.148C200.602 158.915 202.722 158.12 204.047 154.763C205.195 151.848 208.463 152.643 208.64 150.7C208.817 148.757 206.52 147.167 203.428 148.58C200.248 150.082 198.482 155.028 199.63 157.148Z" fill="white"/>
<path d="M207.315 159.975C205.372 159.18 205.99 156.972 209.082 155.293C211.82 153.703 210.583 150.612 212.438 150.17C214.293 149.728 216.237 151.76 215.265 155.117C214.293 158.473 209.523 160.858 207.315 159.975Z" fill="white"/>
<path d="M202.633 184.267C202.28 184.267 202.015 184.178 201.75 183.913C201.132 183.383 201.131 182.5 201.573 181.97L237.083 140.365C237.348 140.012 237.79 139.835 238.231 139.835C238.673 139.835 239.027 140.1 239.292 140.453L254.661 162.537L277.628 125.525C277.805 125.26 278.158 124.995 278.511 124.907L313.315 115.985C314.11 115.808 314.817 116.25 314.993 116.957C315.17 117.663 314.728 118.458 314.022 118.635L279.748 127.38L255.986 165.717C255.722 166.158 255.28 166.335 254.838 166.423C254.397 166.423 253.955 166.247 253.69 165.805L238.143 143.457L203.781 183.648C203.428 184.09 202.987 184.267 202.633 184.267Z" fill="url(#paint10_linear_575_971)"/>
<path d="M203.34 186.475C205.486 186.475 207.226 184.735 207.226 182.588C207.226 180.442 205.486 178.702 203.34 178.702C201.193 178.702 199.453 180.442 199.453 182.588C199.453 184.735 201.193 186.475 203.34 186.475Z" fill="#F05236"/>
<path d="M238.231 145.488C240.378 145.488 242.118 143.748 242.118 141.602C242.118 139.455 240.378 137.715 238.231 137.715C236.085 137.715 234.345 139.455 234.345 141.602C234.345 143.748 236.085 145.488 238.231 145.488Z" fill="#F05236"/>
<path d="M254.485 168.543C256.631 168.543 258.371 166.803 258.371 164.657C258.371 162.51 256.631 160.77 254.485 160.77C252.338 160.77 250.598 162.51 250.598 164.657C250.598 166.803 252.338 168.543 254.485 168.543Z" fill="#F05236"/>
<path d="M279.218 129.588C281.365 129.588 283.105 127.848 283.105 125.702C283.105 123.555 281.365 121.815 279.218 121.815C277.072 121.815 275.332 123.555 275.332 125.702C275.332 127.848 277.072 129.588 279.218 129.588Z" fill="#F05236"/>
<path d="M312.608 121.727C314.755 121.727 316.495 119.987 316.495 117.84C316.495 115.693 314.755 113.953 312.608 113.953C310.462 113.953 308.722 115.693 308.722 117.84C308.722 119.987 310.462 121.727 312.608 121.727Z" fill="#F05236"/>
<path d="M113.858 237.885C113.417 239.652 112.622 241.418 111.65 243.008C105.555 252.637 75.345 278.783 67.2184 283.023C61.83 285.762 56.6184 287.352 53.35 286.822C51.76 286.557 50.6117 285.762 50.17 284.437C48.9334 280.285 45.8417 276.575 57.9434 262.618C70.1334 248.662 92.2167 226.402 95.485 224.988C111.562 218.098 116.332 228.61 113.858 237.885Z" fill="url(#paint11_linear_575_971)"/>
<path d="M113.858 237.885C113.417 239.652 112.622 241.418 111.65 243.008C105.555 252.637 75.3451 278.783 67.2184 283.023C61.8301 285.762 56.6184 287.352 53.3501 286.822C53.9684 286.292 54.5868 285.673 55.2051 285.143C69.5151 271.717 94.1601 251.753 94.1601 251.753C103.7 243.892 109.883 239.74 113.858 237.885Z" fill="#F79342"/>
<path d="M88.6834 321.448C83.3834 322.332 67.4834 308.463 59.1801 298.217C54.1451 292.033 50.1701 287.617 48.7567 283.288C47.8734 280.462 47.9617 277.635 49.5517 274.455C53.5267 266.152 63.5084 268.802 67.7484 274.985C67.7484 274.985 84.0901 297.422 89.0367 304.665C90.1851 306.343 91.0684 307.845 91.6867 309.17C95.4851 316.767 93.1884 320.742 88.6834 321.448Z" fill="url(#paint12_linear_575_971)"/>
<path d="M88.6835 321.448C83.3835 322.332 67.4835 308.463 59.1802 298.217C54.1452 292.033 50.1702 287.617 48.7568 283.288C55.2935 290.708 70.2218 305.637 87.7118 308.728C89.1252 308.993 90.4502 309.17 91.6868 309.258C95.4852 316.767 93.1885 320.742 88.6835 321.448Z" fill="#F79342"/>
<path d="M71.3699 279.932C71.1049 279.932 70.7516 279.755 70.5749 279.49C70.5749 279.49 68.1899 275.868 66.7766 274.367L65.3633 272.777C65.0099 272.423 65.0099 271.805 65.4516 271.452C65.8049 271.098 66.4233 271.098 66.7766 271.54L68.1899 273.13C68.8083 273.837 69.6916 274.985 70.4866 276.045C70.4866 275.338 70.4866 274.632 70.4866 273.837C70.5749 271.098 70.4866 268.802 70.4866 268.802C70.4866 268.272 70.8399 267.83 71.3699 267.83C71.8999 267.83 72.3416 268.183 72.3416 268.713C72.3416 268.713 72.4299 271.01 72.3416 273.837C72.2533 276.663 72.2533 278.96 72.2533 278.96C72.2533 279.402 71.9883 279.755 71.5466 279.843C71.5466 279.932 71.4583 279.932 71.3699 279.932Z" fill="#F28127"/>
<path d="M217.562 206.438C217.562 212.887 213.057 216.155 207.403 215.272C207.403 215.272 207.403 215.272 207.315 215.272C205.99 215.095 204.577 214.653 203.252 213.947C197.863 211.385 168.537 182.147 168.537 182.147C168.978 179.762 169.862 177.995 170.922 176.67C174.013 172.783 178.607 173.048 178.607 173.048C178.607 173.048 217.562 198.488 217.562 206.438Z" fill="url(#paint13_linear_575_971)"/>
<path d="M208.198 215.36C208.198 215.36 207.933 215.36 207.403 215.272C207.403 215.272 207.403 215.272 207.315 215.272C205.99 215.095 204.577 214.653 203.252 213.947C197.863 211.385 168.537 182.147 168.537 182.147C168.978 179.762 169.862 177.995 170.922 176.67C174.367 180.822 185.32 194.072 192.563 201.138C201.132 209.53 208.198 215.36 208.198 215.36Z" fill="#F79342"/>
<path d="M168.625 180.733L158.732 172.43C158.732 172.43 154.404 172.077 149.457 171.812C144.51 171.547 141.507 169.957 141.86 168.19C142.214 166.423 145.04 166.423 146.984 166.777C148.927 167.13 149.545 166.688 149.545 166.688C149.545 166.688 144.864 165.54 141.86 164.745C138.857 163.95 131.79 163.685 131.614 161.477C131.349 159.268 139.122 159.357 143.185 159.268C148.839 159.18 152.902 159.887 158.29 161.123C163.679 162.448 167.389 165.805 170.215 167.395C173.042 168.985 176.752 173.313 176.752 173.313C176.752 173.313 171.894 180.998 168.625 180.733Z" fill="url(#paint14_linear_575_971)"/>
<path d="M166.858 179.497C166.858 179.497 162.972 180.822 164.385 185.415C165.533 189.125 170.303 189.213 171.982 187.623C173.748 185.945 173.837 184.797 173.837 184.797C173.837 184.797 177.105 185.238 179.667 183.472C182.228 181.705 180.815 178.437 180.815 178.437C180.815 178.437 183.818 179.85 185.232 177.112C186.645 174.462 184.26 170.045 181.168 169.338C177.37 168.455 176.398 171.635 176.398 171.635C176.398 171.635 172.335 170.133 169.42 172.607C166.593 174.992 166.858 179.497 166.858 179.497Z" fill="url(#paint15_linear_575_971)"/>
<path d="M193.624 205.555C193.359 205.555 193.094 205.467 192.917 205.29C192.652 205.025 192.564 204.583 192.74 204.23C192.74 204.142 193.8 201.933 195.214 200.167C196.539 198.488 197.245 197.693 197.334 197.693C197.687 197.34 198.305 197.34 198.659 197.693C199.012 198.047 199.012 198.665 198.659 199.018C198.659 199.018 197.952 199.813 196.627 201.403C196.274 201.845 195.92 202.287 195.655 202.817C196.185 202.64 196.627 202.375 197.069 202.198L200.16 200.962C200.602 200.785 201.22 200.962 201.397 201.492C201.574 201.933 201.397 202.552 200.867 202.728L197.775 203.965C196.185 204.672 193.889 205.555 193.889 205.555C193.889 205.555 193.8 205.555 193.624 205.555Z" fill="#F28127"/>
<path d="M217.385 208.823C216.413 214.212 196.538 231.702 181.61 242.037C166.682 252.283 156.347 257.23 146.983 250.252C146.542 249.898 146.1 249.545 145.658 249.192C137.885 242.213 141.33 231.967 159.085 222.25C163.943 219.6 193.888 204.937 203.075 201.668C210.672 198.93 216.148 202.022 217.208 206.262C217.473 206.968 217.473 207.852 217.385 208.823Z" fill="url(#paint16_linear_575_971)"/>
<path d="M217.385 208.823C216.413 214.212 196.538 231.702 181.61 242.037C166.682 252.283 156.347 257.23 146.983 250.252C146.542 249.898 146.1 249.545 145.658 249.192C166.328 244.157 183.465 234.617 208.64 214.035C212.262 211.12 215.088 208.382 217.208 206.173C217.473 206.968 217.473 207.852 217.385 208.823Z" fill="#F79342"/>
<path d="M123.575 216.243C108.116 217.127 94.3364 219.953 90.6264 227.462C86.9164 234.97 87.6231 255.728 87.7998 266.24C87.9764 275.427 89.2131 278.607 89.2131 278.607C89.2131 278.607 85.6798 282.847 84.7964 291.945C83.8248 301.043 89.4781 306.697 89.4781 306.697C89.4781 306.697 82.9414 314.205 83.8248 324.452C84.7964 334.698 93.6298 343.178 122.603 343.885C151.576 344.592 167.476 340.175 171.451 330.988C175.426 321.89 168.183 309.7 168.183 309.7C168.183 309.7 174.278 303.428 173.571 293.093C172.865 282.847 169.155 278.607 169.155 278.607C169.155 278.607 173.306 270.922 171.01 260.145C167.035 241.242 169.243 228.787 164.915 219.158C162.883 214.565 153.785 214.653 123.575 216.243Z" fill="url(#paint17_linear_575_971)"/>
<path d="M136.383 252.813C135.147 252.813 133.998 252.813 132.673 252.813C111.385 252.548 95.0433 250.605 94.8666 250.605C94.3366 250.517 93.9833 250.075 94.0716 249.545C94.16 249.015 94.6016 248.662 95.1316 248.75C95.3083 248.75 111.562 250.605 132.762 250.958C154.933 251.312 164.65 248.662 164.738 248.662C165.268 248.573 165.71 248.838 165.887 249.28C166.063 249.722 165.71 250.252 165.268 250.428C164.827 250.517 156.258 252.813 136.383 252.813Z" fill="#A12168"/>
<path d="M133.38 283.288C133.115 283.288 132.938 283.288 132.673 283.288C111.297 283.2 93.3651 280.462 93.1884 280.462C92.6584 280.373 92.3051 279.932 92.3934 279.402C92.4817 278.872 92.9234 278.518 93.4534 278.607C93.6301 278.607 111.473 281.345 132.585 281.433C132.762 281.433 133.027 281.433 133.203 281.433C155.022 281.433 166.417 278.342 166.505 278.342C167.035 278.165 167.477 278.518 167.653 278.96C167.83 279.49 167.477 279.932 167.035 280.108C166.77 280.197 155.463 283.288 133.38 283.288Z" fill="#A12168"/>
<path d="M131.967 314.028C131.702 314.028 131.437 314.028 131.172 314.028C109.088 313.94 90.3617 308.463 90.0967 308.375C89.5667 308.198 89.3017 307.668 89.4783 307.227C89.655 306.697 90.185 306.432 90.6267 306.608C90.8033 306.697 109.353 312.173 131.172 312.173C154.138 312.262 165.092 309.612 165.18 309.612C165.71 309.523 166.152 309.788 166.328 310.318C166.417 310.848 166.152 311.29 165.622 311.467C165.18 311.467 154.58 314.028 131.967 314.028Z" fill="#A12168"/>
<path d="M90.6266 313.145C87.0933 313.675 84.6199 320.3 89.1249 323.568C93.6299 326.837 111.297 330.193 115.802 325.07C120.307 319.947 117.745 316.237 110.06 315.353C102.375 314.47 96.4566 312.173 90.6266 313.145Z" fill="#C34599"/>
<path d="M122.426 287.352C118.186 288.588 111.738 291.15 128.256 294.33C134.351 295.478 163.766 293.977 168.536 289.03C173.306 284.083 161.646 285.408 150.428 286.115C140.888 286.733 129.405 285.232 122.426 287.352Z" fill="#C34599"/>
<path d="M159.438 225.872C163.678 224.635 170.126 222.073 153.608 218.893C147.513 217.745 118.098 219.247 113.328 224.193C108.558 229.14 120.218 227.815 131.436 227.108C140.976 226.402 152.46 227.992 159.438 225.872Z" fill="#C34599"/>
<path d="M99.3713 252.018C93.453 251.93 93.6297 257.142 96.0147 259.35C98.3997 261.558 125.518 263.855 130.288 260.587C135.058 257.318 131.966 254.315 125.518 254.227C119.07 254.05 106.35 252.195 99.3713 252.018Z" fill="#C34599"/>
<path d="M149.28 217.568C149.28 217.568 150.075 211.208 146.1 209.53C142.125 207.852 120.13 208.823 114.035 209.795C107.94 210.767 105.025 217.48 109.707 219.158C114.3 220.748 146.63 218.893 149.28 217.568Z" fill="url(#paint18_linear_575_971)"/>
<path d="M109.353 218.54C108.911 218.54 108.558 218.275 108.47 217.833C108.293 217.303 108.646 216.862 109.088 216.685C109.353 216.597 115.978 214.83 127.903 214.388C141.86 213.858 147.601 214.212 147.866 214.212C148.396 214.212 148.75 214.653 148.75 215.183C148.75 215.713 148.22 216.067 147.778 216.067C147.69 216.067 141.771 215.713 127.991 216.243C116.243 216.685 109.618 218.452 109.618 218.452C109.53 218.54 109.441 218.54 109.353 218.54Z" fill="#A12168"/>
<path d="M146.1 216.332C140.712 217.127 141.418 210.502 141.507 209.707C141.33 210.502 139.74 216.862 132.408 216.95C124.635 217.127 125.253 209.618 125.253 209.618C125.253 209.618 119.335 215.095 113.593 212.798C107.852 210.502 110.855 201.58 110.855 201.58C110.855 201.58 100.962 208.205 97.4284 200.697C96.015 197.605 96.8984 193.277 98.4884 189.213C100.785 183.295 104.407 177.907 104.407 177.907L146.718 157.06C146.718 157.06 151.047 163.155 153.697 172.872C154.492 175.787 155.198 179.055 155.463 182.588C157.142 197.87 151.842 215.448 146.1 216.332Z" fill="url(#paint19_linear_575_971)"/>
<path d="M111.208 201.933C111.032 201.933 110.855 201.845 110.678 201.757C110.325 201.492 110.237 200.962 110.502 200.52C110.502 200.52 112.268 198.047 113.152 196.722C114.212 195.132 114.742 193.188 114.83 193.1C115.007 192.658 115.448 192.393 115.89 192.482C116.332 192.658 116.597 193.1 116.508 193.542C116.508 193.63 115.802 195.838 114.653 197.605C113.77 198.842 112.092 201.315 112.003 201.403C111.738 201.845 111.473 201.933 111.208 201.933Z" fill="#600C32"/>
<path d="M125.96 208.912C125.783 208.912 125.695 208.912 125.518 208.823C125.077 208.558 124.9 208.028 125.165 207.587C125.165 207.587 126.49 205.113 127.108 203.082C127.727 201.05 127.727 200.078 127.727 199.99C127.727 199.548 128.168 199.107 128.61 199.107C129.052 199.107 129.493 199.46 129.493 199.99C129.493 200.078 129.493 201.315 128.787 203.523C128.08 205.82 126.755 208.293 126.667 208.382C126.578 208.735 126.313 208.912 125.96 208.912Z" fill="#600C32"/>
<path d="M142.302 209C142.125 209 142.037 209 141.86 208.911C141.418 208.646 141.242 208.116 141.507 207.763C141.507 207.763 142.302 206.173 142.92 204.053C143.539 201.845 143.715 200.52 143.715 200.431C143.804 199.99 144.245 199.636 144.687 199.636C145.129 199.725 145.482 200.166 145.482 200.608C145.482 200.696 145.305 202.021 144.687 204.406C144.069 206.791 143.185 208.47 143.097 208.558C142.92 208.911 142.655 209 142.302 209Z" fill="#600C32"/>
<path d="M153.873 172.872C145.923 181.97 134.263 190.892 118.275 192.393C105.997 193.542 100.697 191.687 98.5767 189.213C100.873 183.295 104.495 177.907 104.495 177.907L146.807 157.06C146.807 157.06 151.223 163.155 153.873 172.872Z" fill="url(#paint20_linear_575_971)"/>
<path d="M101.404 183.295C101.404 183.295 104.584 185.062 122.515 182.765C140.889 180.468 152.902 168.19 153.874 165.187C154.492 163.42 152.814 160.858 152.107 159.71C151.4 158.562 151.224 145.842 133.91 139.482C113.682 131.973 87.7118 152.378 85.7685 157.413C83.8252 162.36 95.8385 159.887 96.6335 163.597C97.4285 167.218 97.9585 172.607 97.6052 174.285C97.2518 175.875 96.8102 183.03 101.404 183.295Z" fill="url(#paint21_linear_575_971)"/>
<path d="M150.517 157.502C150.605 157.502 150.694 157.59 150.87 157.59C151.224 157.767 151.4 158.208 151.224 158.562C150.959 159.003 144.599 169.603 127.904 174.462C112.269 179.055 98.9303 176.228 98.7536 176.228C98.4003 176.14 98.2236 175.787 98.2236 175.433C98.2236 175.08 98.577 174.815 98.842 174.903C98.9303 174.903 112.004 177.642 127.285 173.048C143.45 168.278 149.722 157.767 149.81 157.678C149.987 157.502 150.252 157.413 150.517 157.502Z" fill="#CB2628"/>
<path d="M146.365 162.625C146.542 162.625 146.63 162.713 146.807 162.802C146.807 162.89 147.867 164.038 149.015 165.717C150.164 167.395 150.34 168.013 150.34 168.102C150.429 168.455 150.252 168.72 149.899 168.72C149.545 168.72 149.28 168.543 149.192 168.19C149.192 168.19 149.015 167.66 148.044 166.158C146.984 164.568 145.924 163.42 145.924 163.332C145.747 163.067 145.747 162.713 145.924 162.537C146.012 162.625 146.189 162.625 146.365 162.625Z" fill="#CB2628"/>
<path d="M140.005 167.837C140.182 167.837 140.359 167.925 140.447 168.102L144.422 173.225C144.599 173.49 144.599 173.843 144.334 174.108C144.069 174.285 143.715 174.197 143.45 173.932L139.564 168.808C139.387 168.543 139.387 168.19 139.652 168.013C139.74 167.837 139.917 167.837 140.005 167.837Z" fill="#CB2628"/>
<path d="M132.144 171.9C132.321 171.9 132.497 172.077 132.586 172.165L136.119 177.907C136.296 178.172 136.207 178.525 135.942 178.702C135.677 178.878 135.324 178.702 135.147 178.437L131.614 172.695C131.437 172.43 131.526 172.077 131.791 171.9C131.879 171.9 131.967 171.812 132.144 171.9Z" fill="#CB2628"/>
<path d="M124.282 174.197C124.459 174.197 124.635 174.373 124.724 174.55L128.08 180.557C128.257 180.91 128.169 181.263 127.904 181.44C127.639 181.617 127.197 181.44 127.02 181.087L123.664 175.08C123.487 174.727 123.575 174.373 123.84 174.285C124.105 174.108 124.194 174.108 124.282 174.197Z" fill="#CB2628"/>
<path d="M115.007 175.61C115.184 175.61 115.361 175.787 115.449 175.963L119.159 181.97C119.336 182.323 119.336 182.677 118.982 182.853C118.717 183.03 118.276 182.942 118.099 182.588L114.477 176.582C114.301 176.228 114.389 175.875 114.654 175.698C114.654 175.61 114.831 175.522 115.007 175.61Z" fill="#CB2628"/>
<path d="M107.498 176.052C107.675 176.14 107.763 176.228 107.852 176.405L110.413 182.588C110.59 182.942 110.413 183.295 110.148 183.472C109.883 183.648 109.53 183.472 109.353 183.118L106.792 176.935C106.615 176.582 106.792 176.228 107.057 176.052C107.233 176.052 107.322 176.052 107.498 176.052Z" fill="#CB2628"/>
<path d="M100.432 175.257C100.608 175.257 100.785 175.433 100.873 175.61L103.877 181.97C104.053 182.323 103.965 182.677 103.612 182.853C103.347 183.03 102.993 182.853 102.817 182.5L99.8134 176.14C99.6368 175.787 99.7251 175.433 100.078 175.345C100.255 175.168 100.343 175.168 100.432 175.257Z" fill="#CB2628"/>
<path d="M101.668 163.243C99.1066 163.243 97.5166 162.802 97.4283 162.802C97.1633 162.713 96.8983 162.537 96.81 162.183C96.7216 161.918 96.7216 161.565 96.8983 161.3L99.725 157.237C99.99 156.795 100.608 156.707 101.05 156.972C101.492 157.237 101.58 157.855 101.315 158.297L99.2833 161.123C100.078 161.212 101.138 161.3 102.463 161.212C105.378 161.123 107.587 160.417 107.675 160.417C108.205 160.24 108.735 160.505 108.823 161.035C109 161.565 108.735 162.095 108.205 162.183C108.117 162.183 105.643 162.978 102.552 163.067C102.287 163.243 101.933 163.243 101.668 163.243Z" fill="#CB2628"/>
<defs>
<linearGradient id="paint0_linear_575_971" x1="221.997" y1="301.77" x2="210.404" y2="225.257" gradientUnits="userSpaceOnUse">
<stop stop-color="#DEDBEE"/>
<stop offset="1" stop-color="#F7F9FD"/>
</linearGradient>
<linearGradient id="paint1_linear_575_971" x1="202.997" y1="256.269" x2="234.654" y2="326.066" gradientUnits="userSpaceOnUse">
<stop stop-color="#DEDBEE"/>
<stop offset="1" stop-color="#B2AFD7"/>
</linearGradient>
<linearGradient id="paint2_linear_575_971" x1="293.989" y1="289.059" x2="300.944" y2="236.195" gradientUnits="userSpaceOnUse">
<stop stop-color="#DEDBEE"/>
<stop offset="1" stop-color="#F7F9FD"/>
</linearGradient>
<linearGradient id="paint3_linear_575_971" x1="311.361" y1="242.873" x2="288.137" y2="323.408" gradientUnits="userSpaceOnUse">
<stop stop-color="#DEDBEE"/>
<stop offset="1" stop-color="#B2AFD7"/>
</linearGradient>
<linearGradient id="paint4_linear_575_971" x1="192.568" y1="273.086" x2="192.568" y2="225.859" gradientUnits="userSpaceOnUse">
<stop stop-color="#F9B566"/>
<stop offset="1" stop-color="#EF6C4A"/>
</linearGradient>
<linearGradient id="paint5_linear_575_971" x1="249.664" y1="51.2194" x2="260.418" y2="176.055" gradientUnits="userSpaceOnUse">
<stop stop-color="#F9B566"/>
<stop offset="1" stop-color="#F05236"/>
</linearGradient>
<linearGradient id="paint6_linear_575_971" x1="253.69" y1="105.479" x2="274.776" y2="311.648" gradientUnits="userSpaceOnUse">
<stop stop-color="#F9B566"/>
<stop offset="1" stop-color="#EF6C4A"/>
</linearGradient>
<linearGradient id="paint7_linear_575_971" x1="186.678" y1="299.192" x2="286.388" y2="89.8001" gradientUnits="userSpaceOnUse">
<stop stop-color="#F0CBDD"/>
<stop offset="0.9946" stop-color="#FAEBF3"/>
</linearGradient>
<linearGradient id="paint8_linear_575_971" x1="328.157" y1="273.086" x2="328.157" y2="225.859" gradientUnits="userSpaceOnUse">
<stop stop-color="#F9B566"/>
<stop offset="1" stop-color="#EF6C4A"/>
</linearGradient>
<linearGradient id="paint9_linear_575_971" x1="262.608" y1="232.643" x2="262.608" y2="169.041" gradientUnits="userSpaceOnUse">
<stop stop-color="#171A47"/>
<stop offset="1" stop-color="#2D3079"/>
</linearGradient>
<linearGradient id="paint10_linear_575_971" x1="201.218" y1="150.121" x2="315.066" y2="150.121" gradientUnits="userSpaceOnUse">
<stop stop-color="#EC4927"/>
<stop offset="1" stop-color="#F06944"/>
</linearGradient>
<linearGradient id="paint11_linear_575_971" x1="84.7357" y1="244.817" x2="67.7006" y2="311.21" gradientUnits="userSpaceOnUse">
<stop stop-color="#FAB666"/>
<stop offset="1" stop-color="#F99F45"/>
</linearGradient>
<linearGradient id="paint12_linear_575_971" x1="85.3043" y1="241.36" x2="66.9923" y2="312.73" gradientUnits="userSpaceOnUse">
<stop stop-color="#FAB666"/>
<stop offset="1" stop-color="#F99F45"/>
</linearGradient>
<linearGradient id="paint13_linear_575_971" x1="205.309" y1="207.237" x2="189.53" y2="189.353" gradientUnits="userSpaceOnUse">
<stop stop-color="#FAB666"/>
<stop offset="1" stop-color="#F99F45"/>
</linearGradient>
<linearGradient id="paint14_linear_575_971" x1="154.838" y1="180.349" x2="153.153" y2="150.468" gradientUnits="userSpaceOnUse">
<stop stop-color="#B32978"/>
<stop offset="1" stop-color="#C14B9B"/>
</linearGradient>
<linearGradient id="paint15_linear_575_971" x1="179.596" y1="190.594" x2="171.052" y2="170.337" gradientUnits="userSpaceOnUse">
<stop stop-color="#FEC976"/>
<stop offset="0.9892" stop-color="#F6DD9B"/>
</linearGradient>
<linearGradient id="paint16_linear_575_971" x1="201.111" y1="196.909" x2="174.929" y2="229.326" gradientUnits="userSpaceOnUse">
<stop stop-color="#FAB666"/>
<stop offset="1" stop-color="#F99F45"/>
</linearGradient>
<linearGradient id="paint17_linear_575_971" x1="130.75" y1="344.524" x2="121.399" y2="178.7" gradientUnits="userSpaceOnUse">
<stop stop-color="#B32978"/>
<stop offset="1" stop-color="#C14B9B"/>
</linearGradient>
<linearGradient id="paint18_linear_575_971" x1="128.054" y1="205.679" x2="128.521" y2="223.446" gradientUnits="userSpaceOnUse">
<stop stop-color="#B32978"/>
<stop offset="1" stop-color="#C14B9B"/>
</linearGradient>
<linearGradient id="paint19_linear_575_971" x1="128.2" y1="176.357" x2="124.683" y2="209.481" gradientUnits="userSpaceOnUse">
<stop offset="0.00537634" stop-color="#6B1036"/>
<stop offset="1" stop-color="#782844"/>
</linearGradient>
<linearGradient id="paint20_linear_575_971" x1="126.283" y1="181.618" x2="122.472" y2="154.063" gradientUnits="userSpaceOnUse">
<stop offset="0.00537634" stop-color="#6B1036"/>
<stop offset="1" stop-color="#782844"/>
</linearGradient>
<linearGradient id="paint21_linear_575_971" x1="98.3179" y1="183.401" x2="135.722" y2="145.062" gradientUnits="userSpaceOnUse">
<stop stop-color="#EC4927"/>
<stop offset="1" stop-color="#F06944"/>
</linearGradient>
</defs>
</svg>
