<svg width="20" height="18" viewBox="0 0 20 18" fill="none" xmlns="http://www.w3.org/2000/svg">
<path d="M11.2763 17.2724H8.70548C8.51638 17.2741 8.32884 17.2358 8.15389 17.1596C7.97893 17.0833 7.82007 16.9707 7.68664 16.8284C7.55321 16.6861 7.4479 16.5169 7.37688 16.3307C7.30586 16.1446 7.27057 15.9453 7.27307 15.7444V2.24541C7.28437 1.65136 7.51244 1.08518 7.9092 0.666277C8.30596 0.247375 8.84039 0.00849011 9.39979 0H10.607C11.1675 0.0102918 11.7021 0.25177 12.0979 0.673331C12.4936 1.09489 12.7194 1.66345 12.7275 2.25869V15.7577C12.7284 15.9591 12.6912 16.1587 12.6183 16.3446C12.5454 16.5306 12.4381 16.6991 12.3028 16.8403C12.1676 16.9815 12.0071 17.0924 11.8307 17.1666C11.6544 17.2409 11.4659 17.2768 11.2763 17.2724Z" fill="#29319F"/>
<path d="M3.97756 17.2727H1.49C1.29386 17.2746 1.09933 17.2339 0.917786 17.1531C0.736237 17.0723 0.571299 16.9529 0.432599 16.8019C0.2939 16.6509 0.184217 16.4714 0.109952 16.2738C0.0356876 16.0761 -0.0016709 15.8644 5.73345e-05 15.6509V7.84508C4.59774e-05 7.52938 0.0574861 7.21681 0.169061 6.92541C0.280636 6.634 0.444135 6.36954 0.65012 6.14729C0.856105 5.92504 1.10049 5.74941 1.36918 5.63053C1.63786 5.51166 1.92552 5.45189 2.21554 5.45468H3.26498C3.84628 5.45655 4.40319 5.70922 4.81363 6.1573C5.22407 6.60539 5.45455 7.21233 5.45455 7.84508V15.665C5.45455 16.0914 5.29893 16.5003 5.02195 16.8018C4.74496 17.1033 4.36928 17.2727 3.97756 17.2727Z" fill="#29319F"/>
<path d="M18.4525 17.2724H16.0673C15.6652 17.2643 15.2819 17.104 14.998 16.825C14.7142 16.5461 14.5519 16.1702 14.5454 15.7766V12.178C14.5454 11.8914 14.6032 11.6077 14.7154 11.3431C14.8276 11.0784 14.9921 10.838 15.1994 10.6357C15.4068 10.4334 15.6528 10.2731 15.9236 10.164C16.1943 10.0549 16.4843 9.99919 16.7771 10H17.7683C18.061 9.99919 18.3511 10.0549 18.6218 10.164C18.8925 10.2731 19.1386 10.4334 19.3459 10.6357C19.5532 10.838 19.7177 11.0784 19.83 11.3431C19.9422 11.6077 20 11.8914 20 12.178V15.7891C20 15.9866 19.9598 16.182 19.8816 16.3641C19.8035 16.5461 19.689 16.711 19.5448 16.8492C19.4007 16.9873 19.2298 17.0959 19.0423 17.1686C18.8547 17.2413 18.6542 17.2766 18.4525 17.2724Z" fill="#29319F"/>
</svg>
