<svg width="40" height="41" viewBox="0 0 40 41" fill="none" xmlns="http://www.w3.org/2000/svg">
<g style="mix-blend-mode:luminosity">
<defs>
<linearGradient id="paint0_linear_727_5380" x1="-0.0111808" y1="15.2336" x2="26.4813" y2="15.2336" gradientUnits="userSpaceOnUse">
<stop stop-color="#DDDCFE"/>
<stop offset="1" stop-color="#B1AFE9"/>
</linearGradient>
<linearGradient id="paint1_linear_727_5380" x1="34.3613" y1="28.798" x2="40.0022" y2="28.798" gradientUnits="userSpaceOnUse">
<stop stop-color="#DDDCFE"/>
<stop offset="1" stop-color="#B1AFE9"/>
</linearGradient>
<linearGradient id="paint2_linear_727_5380" x1="11.7477" y1="33.4503" x2="22.4272" y2="14.7159" gradientUnits="userSpaceOnUse">
<stop stop-color="#F94E33"/>
<stop offset="1" stop-color="#F06C49"/>
</linearGradient>
<linearGradient id="paint3_linear_727_5380" x1="31.0491" y1="6.31054" x2="8.37859" y2="33.2242" gradientUnits="userSpaceOnUse">
<stop stop-color="#F9B566"/>
<stop offset="1" stop-color="#F06C49"/>
</linearGradient>
<linearGradient id="paint4_linear_727_5380" x1="22.353" y1="2.36979" x2="19.9372" y2="20.0051" gradientUnits="userSpaceOnUse">
<stop stop-color="#F9B566"/>
<stop offset="1" stop-color="#F06C49"/>
</linearGradient>
<linearGradient id="paint5_linear_727_5380" x1="17.7562" y1="26.4668" x2="25.3585" y2="6.55583" gradientUnits="userSpaceOnUse">
<stop stop-color="#0D1748"/>
<stop offset="1" stop-color="#1B237E"/>
</linearGradient>
<linearGradient id="paint6_linear_727_5380" x1="27.5048" y1="4.55312" x2="22.7081" y2="15.2326" gradientUnits="userSpaceOnUse">
<stop stop-color="#0D1748"/>
<stop offset="1" stop-color="#1B237E"/>
</linearGradient>
<linearGradient id="paint7_linear_727_5380" x1="21.1123" y1="22.0484" x2="22.2587" y2="13.4204" gradientUnits="userSpaceOnUse">
<stop stop-color="#F6E3EE"/>
<stop offset="0.9946" stop-color="#FDF4F8"/>
</linearGradient>
<linearGradient id="paint8_linear_727_5380" x1="16.1672" y1="16.0322" x2="28.2061" y2="16.0322" gradientUnits="userSpaceOnUse">
<stop stop-color="#F8DBE9"/>
<stop offset="0.1344" stop-color="white"/>
<stop offset="0.8387" stop-color="white"/>
<stop offset="1" stop-color="#F8DBE9"/>
</linearGradient>
<linearGradient id="paint9_linear_727_5380" x1="23.8867" y1="12.9173" x2="21.2319" y2="19.9163" gradientUnits="userSpaceOnUse">
<stop stop-color="#0D1748"/>
<stop offset="1" stop-color="#1B237E"/>
</linearGradient>
<linearGradient id="paint10_linear_727_5380" x1="23.6295" y1="4.57601" x2="22.3624" y2="10.3683" gradientUnits="userSpaceOnUse">
<stop stop-color="#F9B566"/>
<stop offset="1" stop-color="#F06C49"/>
</linearGradient>
<linearGradient id="paint11_linear_727_5380" x1="17.9108" y1="38.295" x2="18.6348" y2="31.5072" gradientUnits="userSpaceOnUse">
<stop stop-color="#F9B566"/>
<stop offset="1" stop-color="#F06C49"/>
</linearGradient>
<linearGradient id="paint12_linear_727_5380" x1="-0.0652971" y1="27.8541" x2="7.44655" y2="24.3244" gradientUnits="userSpaceOnUse">
<stop stop-color="#F9B566"/>
<stop offset="1" stop-color="#F06C49"/>
</linearGradient>
<linearGradient id="paint13_linear_727_5380" x1="7.69916" y1="8.77629" x2="11.9548" y2="14.4807" gradientUnits="userSpaceOnUse">
<stop stop-color="#F9B566"/>
<stop offset="1" stop-color="#F06C49"/>
</linearGradient>
<linearGradient id="paint14_linear_727_5380" x1="36.6818" y1="13.8998" x2="29.3958" y2="17.217" gradientUnits="userSpaceOnUse">
<stop stop-color="#F9B566"/>
<stop offset="1" stop-color="#F06C49"/>
</linearGradient>
<linearGradient id="paint15_linear_727_5380" x1="36.2577" y1="32.0695" x2="30.9179" y2="28.1778" gradientUnits="userSpaceOnUse">
<stop stop-color="#F9B566"/>
<stop offset="1" stop-color="#F06C49"/>
</linearGradient>
</defs>
<path d="M22.4313 5.35268C19.5235 4.8655 15.6109 5.76373 13.7688 6.37269C11.9266 6.98166 11.1502 6.32702 12.3834 5.13954C13.6165 3.96728 17.4682 2.93203 17.3617 1.60753C17.2551 0.267802 12.5965 -0.447735 6.38503 5.24611C0.325807 10.8029 -0.587644 18.7804 0.280134 23.713C1.14791 28.6457 2.59421 29.4525 3.09661 28.737C3.61423 28.0215 2.42674 25.814 1.92435 23.0888C1.40672 20.3637 1.66553 18.3237 2.53331 17.8517C3.40109 17.3798 2.99004 23.5912 4.78649 26.7731C6.58294 29.9549 8.3185 30.0006 9.50599 29.5896C10.6782 29.1785 6.01965 22.4647 8.42507 16.4663C10.8305 10.468 15.55 8.62587 18.9906 8.26049C22.4313 7.89511 24.7911 9.34141 26.0699 8.15393C27.3487 6.96644 25.5066 5.8703 22.4313 5.35268Z" fill="url(#paint0_linear_727_5380)"/>
<path d="M4.19262 31.3099C3.21827 31.4013 4.87771 35.4661 8.80554 38.039C12.7334 40.6119 13.4641 39.805 13.5403 39.1961C13.6164 38.5871 12.2767 38.8155 9.2775 36.4709C6.27833 34.1264 5.07562 31.2338 4.19262 31.3099Z" fill="#FFF5FA"/>
<path d="M15.0017 39.8354C14.682 40.2922 15.6564 40.8859 17.3767 40.9468C19.1122 41.0077 19.6755 40.6119 19.2493 40.1399C18.823 39.668 17.8334 39.7136 16.7525 39.531C15.6716 39.3483 15.2453 39.4701 15.0017 39.8354Z" fill="#FFF5FA"/>
<path d="M4.42132 2.79503C2.73143 4.31744 1.30036 6.14434 1.48305 6.95123C1.65052 7.75811 2.50307 7.11869 3.67533 5.48971C4.8476 3.86072 8.21214 1.50097 9.49097 0.952901C10.7546 0.389606 10.6632 -0.386827 8.82111 0.22214C7.13122 0.77021 5.76105 1.59231 4.42132 2.79503Z" fill="#FFF5FA"/>
<path d="M27.8966 7.77328C27.105 7.31655 26.3133 8.50404 27.242 9.76764C28.1706 11.0312 31.8549 15.9639 29.7083 22.4951C27.5617 29.0414 23.71 29.8788 23.4055 31.2642C23.101 32.6496 25.8718 32.6496 27.4856 31.5687C29.0993 30.4877 31.9919 27.5647 33.0272 24.9461C34.0624 22.3276 33.9558 21.9774 34.717 22.0688C35.4935 22.1449 35.2499 25.8748 32.4791 29.4525C29.7083 33.0302 27.5617 34.2938 27.6682 35.2681C27.7748 36.2425 34.7475 33.5021 37.3204 25.1897C39.8933 16.8773 35.0367 8.06254 32.1594 5.48965C29.282 2.93199 27.8509 3.58663 28.3686 4.81978C28.8862 6.05294 30.9871 6.92072 32.0071 9.02166C33.0272 11.1226 31.7483 11.3814 30.7283 10.1026C29.7083 8.83897 28.8101 8.30612 27.8966 7.77328Z" fill="#FFF5FA"/>
<path d="M21.3503 0.99855C20.7566 1.28781 21.7614 1.9729 23.7405 2.38395C25.7196 2.795 26.9528 4.1804 27.4095 3.95204C27.8662 3.72368 26.8158 2.53619 25.3543 1.71409C23.8927 0.891981 22.3703 0.480928 21.3503 0.99855Z" fill="#FFF5FA"/>
<path d="M18.7623 0.739776C17.9402 0.922466 17.9402 1.50099 18.26 1.6989C18.5797 1.88159 20.0564 1.56188 19.9803 1.16605C19.8889 0.770225 19.4018 0.602759 18.7623 0.739776Z" fill="#FFF5FA"/>
<path d="M24.471 37.3691C22.568 38.0237 19.8581 38.2369 19.7515 38.8611C19.6449 39.4853 22.431 39.6375 24.608 38.8611C26.7851 38.0846 27.5006 37.2321 27.3484 36.6688C27.1961 36.1055 25.8716 36.8819 24.471 37.3691Z" fill="#FFF5FA"/>
<path d="M39.7109 24.2307C39.1324 23.9262 38.3255 27.717 36.7422 30.0311C35.1589 32.3451 34.2302 33.1064 34.3824 33.3652C34.5347 33.624 36.8183 32.0863 38.3864 29.2851C39.9393 26.4838 40.3503 24.5656 39.7109 24.2307Z" fill="url(#paint1_linear_727_5380)"/>
<path d="M19.3562 32.9085C26.5619 32.9085 32.4033 27.1694 32.4033 20.0898C32.4033 13.0101 26.5619 7.271 19.3562 7.271C12.1505 7.271 6.30908 13.0101 6.30908 20.0898C6.30908 27.1694 12.1505 32.9085 19.3562 32.9085Z" fill="url(#paint2_linear_727_5380)"/>
<path d="M20.0562 31.4014C26.8163 31.4014 32.2964 26.0166 32.2964 19.3743C32.2964 12.7319 26.8163 7.34717 20.0562 7.34717C13.2961 7.34717 7.81592 12.7319 7.81592 19.3743C7.81592 26.0166 13.2961 31.4014 20.0562 31.4014Z" fill="url(#paint3_linear_727_5380)"/>
<path d="M20.0258 29.6657C25.6003 29.6657 30.1194 25.0717 30.1194 19.4046C30.1194 13.7376 25.6003 9.14355 20.0258 9.14355C14.4512 9.14355 9.93213 13.7376 9.93213 19.4046C9.93213 25.0717 14.4512 29.6657 20.0258 29.6657Z" fill="url(#paint4_linear_727_5380)"/>
<path d="M29.2063 16.1009C31.0028 21.2314 28.5974 26.7578 23.817 28.4325C19.0366 30.1071 13.7081 27.3059 11.9117 22.1601C10.1152 17.0296 12.5206 11.5032 17.301 9.82854C22.0814 8.15388 27.4099 10.9551 29.2063 16.1009Z" fill="url(#paint5_linear_727_5380)"/>
<path d="M29.1604 15.7356C30.8807 20.6226 28.7189 25.8292 24.3343 27.3669C19.9498 28.9045 15.0171 26.1794 13.2968 21.2924C11.5765 16.4055 13.7383 11.1988 18.1229 9.66115C22.5074 8.12351 27.4401 10.8486 29.1604 15.7356Z" fill="url(#paint6_linear_727_5380)"/>
<path d="M28.2016 18.7651C28.2625 21.4598 26.9684 23.8957 24.6848 24.9157C21.4725 26.3468 17.499 24.4285 15.8243 20.6377C14.6825 18.0496 14.8957 15.2636 16.1593 13.2997C16.753 12.3862 17.5751 11.6555 18.5951 11.1987C21.8074 9.76765 25.781 11.6859 27.4556 15.4767C27.9428 16.5576 28.1864 17.6842 28.2016 18.7651Z" fill="url(#paint7_linear_727_5380)"/>
<path d="M28.2015 18.7651C27.6078 19.6786 26.7857 20.4094 25.7656 20.8661C22.5533 22.2972 18.5798 20.3789 16.9052 16.5881C16.418 15.5072 16.1744 14.3806 16.1592 13.2997C16.7529 12.3862 17.575 11.6555 18.595 11.1987C21.8073 9.76765 25.7809 11.6859 27.4555 15.4767C27.9427 16.5576 28.1863 17.6842 28.2015 18.7651Z" fill="url(#paint8_linear_727_5380)"/>
<path d="M27.3791 22.3734C28.0489 20.5312 28.0033 18.2781 27.0594 16.1619C25.3238 12.2645 21.2437 10.2854 17.9249 11.7469C17.5899 11.8991 17.2702 12.0818 16.981 12.2797C17.4377 11.823 17.9857 11.4576 18.5947 11.1836C21.807 9.75252 25.7805 11.6708 27.4552 15.4616C28.5209 17.867 28.4143 20.4551 27.3791 22.3734Z" fill="url(#paint9_linear_727_5380)"/>
<path d="M16.6616 21.3381C16.5702 21.3381 16.4789 21.2924 16.4332 21.2011C16.3571 21.0793 16.4028 20.9118 16.5246 20.8357L18.0317 19.9375C18.1535 19.8614 18.321 19.907 18.3971 20.0288C18.4732 20.1506 18.4276 20.3181 18.3058 20.3942L16.7986 21.2924C16.7529 21.3381 16.7072 21.3381 16.6616 21.3381Z" fill="#1B237E"/>
<path d="M18.7472 14.2894C18.6559 14.2894 18.5797 14.2437 18.5188 14.1676L17.5293 12.7213C17.4379 12.5995 17.4684 12.432 17.6054 12.3407C17.7272 12.2493 17.8946 12.2798 17.986 12.4168L18.9756 13.8631C19.0669 13.9849 19.0365 14.1523 18.8994 14.2437C18.8538 14.2741 18.7929 14.2894 18.7472 14.2894Z" fill="#1B237E"/>
<path d="M25.415 23.911C25.3237 23.911 25.2475 23.8653 25.1866 23.7892L24.395 22.6322C24.3036 22.5104 24.3341 22.3429 24.4711 22.2516C24.5929 22.1602 24.7604 22.1907 24.8517 22.3277L25.6434 23.4847C25.7347 23.6065 25.7043 23.774 25.5673 23.8653C25.5216 23.8958 25.4607 23.911 25.415 23.911Z" fill="#1B237E"/>
<path d="M25.2178 16.4969C25.1264 16.4969 25.0351 16.4512 24.9742 16.3599C24.898 16.2229 24.9437 16.0706 25.0807 15.9945L26.1008 15.4312C26.2378 15.3551 26.39 15.4008 26.4661 15.5378C26.5423 15.6748 26.4966 15.827 26.3596 15.9032L25.3396 16.4664C25.2939 16.4817 25.2482 16.4969 25.2178 16.4969Z" fill="#1B237E"/>
<path d="M18.656 4.91123L17.0879 7.71248C17.0879 7.71248 20.6808 6.95127 23.3907 7.89516C26.1006 8.83906 28.1711 10.5746 28.1711 10.5746C28.1711 10.5746 28.1559 8.70205 28.1711 8.1083C28.2015 7.16441 28.1406 6.05304 27.0445 5.55064C25.6591 4.91123 22.4925 3.96733 21.3507 3.70852C19.7369 3.35836 18.9605 4.11957 18.656 4.91123Z" fill="url(#paint10_linear_727_5380)"/>
<path d="M12.8555 29.1024L13.16 34.0959C13.1904 34.6136 13.5253 35.0703 14.0125 35.2682C14.926 35.6184 16.4179 36.1664 17.849 36.4557C19.5998 36.8211 21.0156 36.8058 21.7768 36.8363C22.2031 36.8667 22.7816 36.4861 22.9187 36.0751L24.8064 30.4574C24.8064 30.4574 20.8786 31.8428 17.575 31.0816C14.8955 30.4878 12.8555 29.1024 12.8555 29.1024Z" fill="url(#paint11_linear_727_5380)"/>
<path d="M13.2056 34.4156C13.2056 34.4156 14.2257 35.2225 16.8594 35.8772C20.3915 36.7602 22.9034 36.0294 22.9034 36.0294C22.9034 36.0294 22.5381 37.8563 20.6503 37.8411C19.9804 37.8411 18.7929 37.8411 16.8899 37.4605C15.0325 37.0799 13.571 36.6536 12.825 36.1055C12.551 35.8924 12.6728 35.2225 12.8707 34.9333L13.2056 34.4156Z" fill="#F94E33"/>
<path d="M12.8554 29.1024L13.2208 34.4157C13.2208 34.4157 12.9468 34.8419 12.8402 35.2225C12.7336 35.6031 12.7641 36.0294 12.7641 36.0294C12.7641 36.0294 12.2617 35.6488 12.2008 34.5222C12.1703 33.9589 11.7593 30.4574 11.7593 30.4574L12.8554 29.1024Z" fill="#F94E33"/>
<path d="M7.86208 18.2019L3.05124 21.1097C2.59452 21.3838 2.32048 21.9014 2.35093 22.4342C2.3966 23.1954 2.50317 24.3372 2.83811 25.3573C3.41662 27.108 4.04082 28.2346 4.48232 28.8741C4.7868 29.3156 5.31965 29.5287 5.83727 29.4221L11.8204 28.2194C11.8204 28.2194 9.56719 26.0728 8.60807 23.439C7.57282 20.5617 7.86208 18.2019 7.86208 18.2019Z" fill="url(#paint12_linear_727_5380)"/>
<path d="M4.81689 29.2242C4.81689 29.2242 5.45631 30.229 6.41543 30.3661C7.37456 30.5031 10.9218 29.8789 10.9218 29.8789L11.82 28.2042C11.82 28.2042 9.18623 28.661 7.51157 29.0263C5.82169 29.4069 4.81689 29.2242 4.81689 29.2242Z" fill="#F94E33"/>
<path d="M2.4574 21.8101C2.4574 21.8101 2.0159 22.7996 2.19859 24.185C2.32038 25.2051 2.68576 26.56 3.49265 28.0063C4.2843 29.4374 5.10641 29.8789 5.56313 30.1072C6.01986 30.3356 6.233 30.3356 6.233 30.3356C6.233 30.3356 4.39087 28.463 3.67533 26.8036C2.5183 24.1394 2.4574 21.8101 2.4574 21.8101Z" fill="#F94E33"/>
<path d="M7.953 17.6386C7.953 17.6386 3.62933 13.3911 3.93382 11.9752C4.02516 11.5489 4.90816 9.90473 6.17177 8.44321C7.43538 6.98168 8.50107 6.69242 9.01869 6.75332C10.4498 6.90556 14.4842 8.74769 14.4842 8.74769C14.4842 8.74769 11.2262 10.8791 9.99304 12.5537C8.37928 14.746 7.953 17.6386 7.953 17.6386Z" fill="url(#paint13_linear_727_5380)"/>
<path d="M6.47653 18.141C6.47653 18.141 4.46694 15.9487 3.85798 14.6547C3.24901 13.3606 3.17289 13.1323 3.3708 12.6603C3.58394 12.1731 3.88843 11.8687 3.88843 11.8687C3.88843 11.8687 4.83232 13.6956 6.09593 15.1723C7.35954 16.649 7.93806 17.6234 7.93806 17.6234L6.47653 18.141Z" fill="#F94E33"/>
<path d="M3.26416 13.1932L3.93402 12.3406C3.93402 12.3406 4.16238 11.077 5.44122 9.47846C6.70482 7.87993 7.25289 7.37753 7.77052 7.07304C8.28814 6.76856 8.86666 6.73811 8.86666 6.73811C8.86666 6.73811 8.56217 6.60109 7.78574 6.87513C7.00931 7.14916 5.79137 8.16918 5.03016 9.1892C4.26895 10.2092 3.88835 10.94 3.67521 11.4424C3.37073 12.1427 3.26416 13.1932 3.26416 13.1932Z" fill="#F94E33"/>
<path d="M33.0733 11.5642L29.0693 11.4424C29.0693 11.4424 31.3073 14.1066 31.8097 16.6338C32.3121 19.161 32.0076 21.9775 32.0076 21.9775L35.905 19.7243C36.3769 19.4199 36.6662 18.9022 36.6357 18.3389C36.6053 17.6843 36.4835 16.6947 36.0877 15.3398C35.7071 14.0153 34.7023 12.5842 34.2608 12.1122C33.9563 11.7469 33.53 11.549 33.0733 11.5642Z" fill="url(#paint14_linear_727_5380)"/>
<path d="M32.0225 21.6578C32.0225 21.6578 34.8389 19.9832 35.661 19.5721C36.4831 19.1458 36.6354 18.6434 36.6354 18.6434C36.6354 18.6434 36.5593 19.4351 35.9503 19.8309C35.3413 20.2267 32.2204 22.2972 32.2204 22.2972L32.0225 21.6578Z" fill="#F94E33"/>
<path d="M20.1934 3.63232C20.1934 3.63232 19.4779 3.92158 19.1582 4.51533C18.8385 5.12429 17.0877 7.7124 17.0877 7.7124L16.5244 7.57539C16.5244 7.57539 18.0621 4.91116 18.5949 4.24129C19.1277 3.57143 19.8433 3.678 20.1934 3.63232Z" fill="#F94E33"/>
<path d="M25.9028 29.9398L30.7746 32.9085C31.4749 33.3348 32.3731 33.1369 32.8298 32.4518L35.3266 28.6914C35.7224 28.0825 35.6463 27.2908 35.1439 26.7732L31.6423 23.2869C31.6423 23.2869 30.7441 25.3574 29.4805 26.895C27.8668 28.8589 25.9028 29.9398 25.9028 29.9398Z" fill="url(#paint15_linear_727_5380)"/>
<path d="M25.9023 29.9398L25.4761 31.4318C25.4761 31.4318 29.3126 33.4871 30.0586 33.822C30.8045 34.1721 31.0633 34.233 31.4287 34.0656C31.7941 33.9133 32.601 32.7258 32.601 32.7258C32.601 32.7258 31.8855 33.1521 31.2917 32.9999C30.6827 32.8629 25.9023 29.9398 25.9023 29.9398Z" fill="#F94E33"/>
<path d="M19.8896 18.0954L19.9658 13.178C19.9658 12.9039 20.1789 12.6756 20.4682 12.6603C20.6813 12.6451 20.8792 12.7669 20.9706 12.9648L23.2999 17.9279L23.6044 23.1041C23.6196 23.4086 23.3912 23.6826 23.0867 23.7131C22.8431 23.7435 22.6148 23.6065 22.5082 23.3934L19.8896 18.0954Z" fill="#EC4726"/>
<path d="M19.8892 18.0954L23.2994 17.9127L23.6039 23.0889C23.6191 23.3934 23.3907 23.6675 23.0862 23.6979C22.8427 23.7284 22.6143 23.5913 22.5077 23.3782L19.8892 18.0954Z" fill="#F7A45F"/>
<path d="M22.3611 19.1634C22.876 18.9349 23.0723 18.2513 22.7996 17.6364C22.5268 17.0216 21.8883 16.7083 21.3733 16.9367C20.8584 17.1652 20.662 17.8488 20.9348 18.4637C21.2075 19.0785 21.8461 19.3918 22.3611 19.1634Z" fill="#F94E33"/>
<path d="M22.2513 18.8848C22.6433 18.7109 22.7952 18.1961 22.5907 17.735C22.3861 17.2738 21.9025 17.0409 21.5105 17.2148C21.1185 17.3887 20.9666 17.9035 21.1712 18.3646C21.3758 18.8258 21.8594 19.0587 22.2513 18.8848Z" fill="#FD6D47"/>
<path d="M29.7388 11.5795C29.7388 11.5795 33.423 11.6556 33.6057 11.7165C33.7884 11.7774 35.1281 12.6299 36.0264 15.3551C36.8028 17.7148 36.4374 18.4912 36.4374 18.4912C36.4374 18.4912 35.5087 15.3094 34.8084 14.1371C34.3821 13.3911 33.9711 12.7974 33.6971 12.4625C33.5296 12.2646 32.8902 12.0514 32.6314 12.0057L29.7388 11.5795Z" fill="#FFD8BB"/>
<path d="M35.3109 27.1689C35.3109 27.1689 35.6306 27.854 35.3566 28.3412C35.0826 28.8284 32.8598 32.2538 32.5401 32.604C32.2204 32.9541 31.5962 33.0302 31.17 32.9084C30.7437 32.7866 28.0186 31.0968 28.0186 31.0968C28.0186 31.0968 30.7437 32.1929 31.1852 32.3451C31.6267 32.4974 31.9312 32.4517 32.5858 31.6448C33.2404 30.8379 34.8542 28.4021 34.976 28.0671C35.0978 27.7322 34.6411 26.9862 34.0778 26.3468C33.484 25.677 32.738 24.5808 32.738 24.5808C32.738 24.5808 34.9912 26.6361 35.3109 27.1689Z" fill="#FFD8BB"/>
<path d="M17.103 7.91042C17.103 7.91042 21.99 6.08352 27.3032 10.0875C32.586 14.0762 31.977 21.0032 31.977 21.0032C31.977 21.0032 31.5355 13.9696 27.1205 10.4985C22.6903 7.02742 17.103 7.91042 17.103 7.91042Z" fill="#FFD8BB"/>
<path d="M17.9248 9.8591C17.9248 9.8591 21.8222 8.18444 26.0088 11.3358C30.165 14.4872 29.6474 20.1811 29.6474 20.1811C29.6474 20.1811 29.3582 14.4111 25.8718 11.6708C22.3855 8.94564 17.9248 9.8591 17.9248 9.8591Z" fill="#4056B2"/>
<path d="M18.4272 6.11393C18.4272 6.11393 19.3711 4.3936 19.7517 4.01299C20.1324 3.63239 20.65 3.63239 21.2742 3.76941C21.8984 3.90643 24.3647 4.59151 25.7349 5.15481C27.105 5.7181 27.4704 5.85512 27.7749 6.31185C28.0794 6.76857 28.1098 7.56023 28.0946 8.12352C28.0794 8.68682 28.0794 9.66116 28.0794 9.66116C28.0794 9.66116 28.0185 7.63635 27.6531 6.92081C27.2877 6.19005 26.9223 6.02259 25.1716 5.44407C23.4208 4.86555 20.9392 4.04344 20.3912 4.10434C19.8431 4.16524 18.4272 6.11393 18.4272 6.11393Z" fill="#FFD8BB"/>
<path d="M13.4791 8.39761C13.4791 8.39761 9.50563 6.95131 9.14025 6.87519C8.79009 6.79907 7.86142 7.08833 7.17633 7.72775C6.49124 8.36716 5.16674 9.88958 4.64911 10.7878C4.13149 11.686 4.14672 12.0666 4.43598 12.5386C4.72524 13.0105 6.14108 14.9745 6.14108 14.9745C6.14108 14.9745 4.57299 12.3254 4.67956 11.8687C4.78613 11.412 6.03451 9.47853 7.20678 8.45851C8.39426 7.43849 8.69875 7.31669 9.38383 7.42326C10.0689 7.52983 13.4791 8.39761 13.4791 8.39761Z" fill="#FFD8BB"/>
<path d="M14.4845 8.73242C14.4845 8.73242 11.8507 9.98081 10.0542 12.6298C8.2578 15.2788 8.09033 17.1971 8.09033 17.1971C8.09033 17.1971 9.46051 13.9391 11.1047 11.9752C12.7946 9.91991 14.4845 8.73242 14.4845 8.73242Z" fill="#FFD8BB"/>
<path d="M4.86247 20.1659C4.86247 20.1659 3.27915 21.0641 2.8681 21.3382C2.47227 21.6122 2.50272 21.9623 2.59406 22.6931C2.68541 23.4239 2.79198 24.6266 3.59886 26.4078C4.40574 28.189 5.15172 29.1177 5.39531 29.1786C5.65412 29.2395 7.86163 28.8284 8.44015 28.7371C9.01867 28.6458 9.59718 28.5087 9.59718 28.5087C9.59718 28.5087 6.59802 28.8285 6.03473 28.8589C5.47143 28.8893 4.98426 28.3869 4.05558 26.1794C3.14213 23.9719 2.91377 21.9014 2.97467 21.5817C3.05079 21.2925 4.86247 20.1659 4.86247 20.1659Z" fill="#FFD8BB"/>
<path d="M17.5596 31.0969C17.5596 31.0969 21.8528 31.8428 25.4457 30.0768C29.0386 28.3108 30.0891 25.9663 30.0891 25.9663C30.0891 25.9663 28.2622 28.3413 25.1717 29.7267C22.0659 31.1273 17.5596 31.0969 17.5596 31.0969Z" fill="#FFD8BB"/>
<path d="M13.0684 31.051C13.0684 31.051 13.2206 33.9893 13.3881 34.2786C13.5403 34.5678 15.215 35.5422 18.0619 35.9837C20.9088 36.4252 22.7357 36.1207 22.8118 35.938C22.888 35.7553 23.8471 32.954 23.8471 32.954C23.8471 32.954 22.8575 35.4813 22.4921 35.6792C22.1267 35.8771 19.9345 35.7553 18.1076 35.5422C16.2807 35.329 13.8448 34.309 13.7078 34.0197C13.5708 33.7305 13.0684 31.051 13.0684 31.051Z" fill="#FFD8BB"/>
</g>

</svg>
